<svg width="492" height="96" viewBox="0 0 492 96" fill="none" xmlns="http://www.w3.org/2000/svg">
<g clip-path="url(#clip0_1699_1208)">
<path d="M359.719 61.5365V58.3025H394.296V37.7412H359.719V29.3065H394.296V2.28027H317.74V93.7038H359.719H394.299V66.7278H359.719" fill="#3F1195"/>
<path d="M124.954 2.28027H78.4767V93.7007H120.453V73.9047H124.954C129.714 73.9668 134.439 73.089 138.859 71.3216C143.278 69.5541 147.306 66.9318 150.71 63.6049C154.115 60.278 156.829 56.3119 158.698 51.9339C160.567 47.556 161.553 42.8523 161.6 38.0925C161.6 16.4301 144.662 2.28027 124.954 2.28027Z" fill="#3F1195"/>
<path d="M18.7542 61.6958H0.0153053C-0.103171 66.1499 0.684759 70.5817 2.33126 74.7221C3.97777 78.8625 6.4485 82.6251 9.59347 85.7815C12.7384 88.938 16.4921 91.4223 20.6264 93.0839C24.7608 94.7454 29.1897 95.5494 33.6443 95.4471C39.2262 95.4767 44.7504 94.3165 49.8487 92.0437V92.0437C55.5115 89.6216 60.3463 85.6027 63.7626 80.4779C67.1789 75.3532 69.0288 69.3445 69.0864 63.1857V62.8124C69.1241 59.1053 68.342 55.4355 66.796 52.0659C65.25 48.6963 62.9783 45.71 60.1435 43.3207L50.8588 34.2994H69.0958C69.2165 29.8433 68.4299 25.4091 66.7841 21.2663C65.1382 17.1234 62.6673 13.3584 59.5214 10.2C56.3756 7.04154 52.6205 4.55558 48.4843 2.89313C44.3481 1.23068 39.9171 0.426437 35.4605 0.529258C29.9889 0.481861 24.5737 1.63728 19.598 3.9138L19.645 3.96085L19.598 3.9138C14.094 6.45562 9.44347 10.5364 6.20788 15.6633C2.9723 20.7903 1.29 26.7442 1.3641 32.8063V33.1796C1.28352 36.7375 1.96064 40.2719 3.3505 43.5481C4.74037 46.8243 6.8112 49.7674 9.42553 52.182C14.9964 57.8658 18.795 61.6958 18.795 61.6958H18.7542Z" fill="#3F1195"/>
<path d="M211.157 46.7783V46.794L211.182 46.7689L211.157 46.7406V2.27417H167.477V93.6977H211.157V46.7783Z" fill="#3F1195"/>
<path d="M444.632 2.27888H445.134C451.192 2.19195 457.206 3.31006 462.828 5.56821C468.45 7.82636 473.568 11.1795 477.882 15.4327C482.197 19.6859 485.623 24.7543 487.962 30.3434C490.3 35.9324 491.505 41.9305 491.505 47.9891C491.505 54.0476 490.3 60.0458 487.962 65.6348C485.623 71.2238 482.197 76.2922 477.882 80.5454C473.568 84.7987 468.45 88.1518 462.828 90.4099C457.206 92.6681 451.192 93.7862 445.134 93.6993H402.647V2.27888H444.632Z" fill="#3F1195"/>
<path d="M258.688 41.566C260.332 40.1335 262.449 39.3599 264.63 39.394C266.81 39.4282 268.902 40.2678 270.501 41.7511C271.117 42.3347 271.645 43.0046 272.069 43.7398H312.279C311.355 32.0617 306.038 21.168 297.401 13.2538C288.459 5.08452 276.787 0.552196 264.675 0.546392C252.564 0.540589 240.887 5.06172 231.937 13.2224C227.09 17.6145 223.215 22.9716 220.56 28.9499C217.906 34.9282 216.531 41.3955 216.523 47.9367C216.516 54.4778 217.876 60.9482 220.517 66.9325C223.158 72.9167 227.022 78.2826 231.859 82.6856V82.6856C240.819 90.8879 252.526 95.4354 264.674 95.4314C276.821 95.4273 288.526 90.872 297.48 82.6636C306.094 74.7366 311.389 63.8427 312.301 52.1714H272.1C271.694 52.9059 271.183 53.5769 270.582 54.1632C268.971 55.6847 266.848 56.5474 264.633 56.581C262.417 56.6147 260.269 55.817 258.612 54.3451C257.689 53.5535 256.948 52.5701 256.443 51.4633C255.938 50.3566 255.68 49.1531 255.687 47.9366C255.694 46.72 255.967 45.5197 256.485 44.4189C257.003 43.3182 257.755 42.3436 258.688 41.5629" fill="#3F1195"/>
</g>
<defs>
<clipPath id="clip0_1699_1208">
<rect width="491.509" height="94.9179" fill="white" transform="translate(0.01371 0.528564)"/>
</clipPath>
</defs>
</svg>
