<?xml version="1.0" standalone="no"?>
<!DOCTYPE svg PUBLIC "-//W3C//DTD SVG 20010904//EN"
 "http://www.w3.org/TR/2001/REC-SVG-20010904/DTD/svg10.dtd">
<svg version="1.0" xmlns="http://www.w3.org/2000/svg"
 width="512.000000pt" height="512.000000pt" viewBox="0 0 512.000000 512.000000"
 preserveAspectRatio="xMidYMid meet">

<g transform="translate(0.000000,512.000000) scale(0.100000,-0.100000)"
fill="#000000" stroke="none">
<path d="M0 2560 l0 -2560 2560 0 2560 0 0 2560 0 2560 -2560 0 -2560 0 0
-2560z m2630 -1 c0 -671 -3 -1008 -10 -1004 -11 7 -15 1997 -3 2008 3 4 8 7
10 7 2 0 3 -455 3 -1011z m-374 859 l7 -23 10 23 c18 39 37 27 37 -23 0 -25
-4 -45 -10 -45 -5 0 -10 10 -10 22 0 21 -1 21 -14 3 -13 -18 -13 -18 -24 1
-11 18 -11 18 -12 -3 0 -13 -4 -23 -10 -23 -5 0 -10 18 -10 40 0 31 -3 38 -15
34 -9 -4 -15 -19 -15 -40 0 -19 -4 -34 -10 -34 -5 0 -10 16 -10 35 0 24 -5 35
-15 35 -8 0 -15 5 -15 10 0 6 24 10 54 10 48 0 56 -3 62 -22z m-1271 -15 c29
-15 105 -81 105 -93 0 -3 -13 -14 -30 -23 -29 -18 -30 -18 -57 13 -38 42 -91
59 -156 49 -95 -15 -147 -76 -147 -173 0 -79 23 -123 81 -156 49 -27 140 -33
192 -12 23 10 27 17 27 54 l0 43 -85 -2 -85 -2 0 40 0 40 123 -3 122 -3 3 -95
3 -96 -62 -29 c-156 -75 -340 -8 -384 139 -19 62 -19 99 0 162 16 53 67 114
119 141 62 32 172 35 231 6z m215 -28 l0 -55 -40 0 -40 0 0 55 0 55 40 0 40 0
0 -55z m478 -197 l2 -248 -40 0 -40 0 0 251 0 250 38 -3 37 -3 3 -247z m-165
128 c18 -8 41 -22 52 -31 19 -15 19 -16 -7 -42 l-26 -26 -27 22 c-33 25 -43
26 -112 4 l-53 -17 0 -143 0 -143 -35 0 -35 0 0 190 0 190 35 0 c26 0 35 -4
35 -16 0 -12 4 -14 13 -7 39 32 112 40 160 19z m492 3 c45 -12 105 -54 105
-72 0 -7 -12 -20 -26 -30 -24 -18 -25 -18 -55 7 -35 30 -83 41 -143 32 -47 -7
-76 -30 -59 -47 5 -5 50 -16 99 -24 167 -28 226 -85 179 -175 -48 -92 -253
-101 -360 -15 -19 15 -19 16 6 41 l26 25 36 -24 c46 -31 113 -42 169 -27 112
30 86 79 -52 100 -103 16 -153 39 -170 80 -39 95 100 169 245 129z m-805 -189
l0 -190 -40 0 -40 0 0 183 c0 101 3 187 7 190 3 4 21 7 40 7 l33 0 0 -190z
m3311 -260 c10 -124 10 -192 -1 -185 -5 3 -10 14 -10 23 0 25 -48 123 -73 150
-37 40 -77 55 -167 60 l-85 4 3 -168 2 -169 61 1 c76 1 107 23 134 92 11 29
23 52 28 52 4 0 7 -74 7 -165 0 -166 -9 -203 -30 -126 -20 76 -96 122 -179
109 -23 -3 -23 -5 -24 -182 l-2 -178 90 4 c50 3 102 11 115 18 67 34 110 102
140 218 12 46 35 59 26 15 -3 -16 -11 -85 -17 -155 l-12 -128 -294 0 c-267 0
-338 6 -254 23 24 5 32 14 40 44 12 42 14 611 2 653 -4 15 -20 31 -38 40 -18
8 -33 20 -33 25 0 7 97 8 282 5 l283 -5 6 -75z m-841 44 c86 -41 130 -80 168
-151 78 -147 62 -345 -38 -472 -30 -37 -59 -59 -117 -88 l-77 -38 -228 -3
c-159 -3 -228 0 -228 7 0 6 9 11 20 11 11 0 29 9 40 20 19 19 20 33 20 355 0
322 -1 336 -20 355 -11 11 -26 20 -34 20 -8 0 -18 5 -22 11 -4 8 60 10 222 7
l229 -3 65 -31z m-2012 -152 l3 -52 -35 0 -36 0 0 48 c0 27 2 51 5 53 2 3 17
4 32 4 26 -2 28 -4 31 -53z m2 -252 l0 -190 -35 0 -35 0 0 190 0 190 35 0 35
0 0 -190z m148 175 c7 -14 12 -14 47 1 53 22 155 16 186 -11 40 -36 49 -76 49
-220 l0 -135 -37 0 -38 0 0 138 c0 103 -4 143 -14 155 -20 25 -98 22 -151 -6
l-42 -22 1 -133 2 -132 -41 0 -40 0 1 183 c0 100 3 185 6 190 8 13 62 7 71 -8z
m2 -570 l0 -74 43 19 c59 27 135 26 178 -3 53 -36 59 -56 59 -219 l0 -148 -35
0 -35 0 0 143 c0 131 -2 146 -20 162 -25 23 -106 15 -156 -15 l-34 -22 0 -134
0 -134 -35 0 -35 0 0 250 0 250 35 0 35 0 0 -75z m-810 30 l0 -35 -90 0 -90 0
0 -210 0 -210 -35 0 -35 0 0 210 0 210 -90 0 -90 0 0 35 0 35 215 0 215 0 0
-35z m168 -84 c66 -34 112 -104 112 -171 l0 -30 -161 0 -160 0 6 -22 c4 -13
20 -35 36 -50 25 -24 38 -28 87 -28 32 0 84 7 115 15 77 20 77 20 77 -19 0
-34 0 -34 -69 -50 -87 -20 -168 -20 -212 -2 -95 40 -137 168 -90 273 39 86
171 129 259 84z m439 3 c35 -17 93 -69 93 -84 0 -4 -14 -13 -30 -20 -28 -12
-32 -10 -54 13 -29 32 -63 41 -118 34 -56 -7 -90 -35 -107 -86 -12 -37 -11
-48 3 -84 21 -56 58 -77 131 -77 52 0 60 3 92 35 34 34 35 34 64 19 33 -16 30
-32 -13 -70 -47 -44 -87 -56 -163 -52 -90 4 -134 31 -170 102 -56 111 -7 233
110 274 46 16 123 14 162 -4z"/>
<path d="M3390 2545 l0 -368 75 6 c100 7 158 36 196 94 37 60 49 121 49 258 0
266 -61 356 -251 372 l-69 6 0 -368z"/>
<path d="M1021 1978 c-19 -12 -41 -33 -49 -45 l-14 -23 121 0 c73 0 121 4 121
10 0 5 -13 24 -28 41 -39 43 -103 51 -151 17z"/>
</g>
</svg>
