<svg width="652" height="179" viewBox="0 0 652 179" fill="none" xmlns="http://www.w3.org/2000/svg">
<path fill-rule="evenodd" clip-rule="evenodd" d="M289.074 36.3199L301.392 0.0700684L313.613 36.3199L301.34 55.5718L289.074 36.3199ZM354.328 178.592H307.595V68.0153H348.307C372.142 68.0153 383.936 77.2631 383.936 95.3019C383.936 108.032 376.073 118.44 364.736 120.522C379.54 122.836 389.028 133.708 389.028 148.512C389.028 166.094 374.68 178.584 354.32 178.584L354.328 178.592ZM345.537 82.5871H325.177V114.516H343.919C354.792 114.516 356.177 114.284 360.348 111.042C364.055 108.039 366.129 103.412 366.129 97.8553C366.129 86.7505 360.573 82.5871 345.537 82.5871ZM364.047 132.555C361.269 130.481 357.795 129.32 354.328 129.088H325.177V164.02H345.537C357.106 164.02 358.034 164.02 362.655 161.474C367.514 158.471 370.525 152.915 370.525 146.67C370.525 140.882 368.211 135.558 364.047 132.555ZM238.029 120.53C223.225 122.844 213.738 133.716 213.738 148.52C213.738 166.102 228.085 178.592 248.438 178.592H295.171V68.0233H254.458C230.624 68.0233 218.83 77.2711 218.83 95.3099C218.83 108.032 226.692 118.448 238.029 120.53ZM242.425 111.042C238.726 108.032 236.644 103.412 236.644 97.8558H236.637C236.637 86.751 242.193 82.5876 257.229 82.5876H277.589V114.517H258.846C247.974 114.517 246.588 114.285 242.425 111.042ZM240.111 161.475C235.251 158.464 232.249 152.916 232.249 146.671H232.241C232.241 140.882 234.555 135.566 238.718 132.556C241.496 130.474 244.971 129.321 248.438 129.089H277.589V164.021H257.229C245.66 164.021 244.739 164.021 240.111 161.475ZM494.843 152.303C499.179 152.303 505.581 151.435 510.141 150.349V150.341C510.925 150.167 511.994 149.851 513.342 149.454L513.342 149.454L513.343 149.454C513.67 149.357 514.013 149.256 514.372 149.151V127.997H506.128V144.381C501.028 145.25 498.752 145.467 496.146 145.467C482.802 145.467 472.611 136.571 472.611 124.747C472.611 113.575 481.829 105.218 494.304 105.218C498.318 105.218 503.305 106.312 506.667 107.719C507.423 108.049 508.621 108.7 510.246 109.674L513.721 102.837C510.141 100.995 508.621 100.344 506.023 99.6921C503.095 99.0406 498.205 98.5015 494.087 98.5015C476.73 98.5015 463.932 109.666 463.932 125.182C463.932 140.697 477.052 152.303 494.843 152.303ZM89.3475 125.464C89.3475 141.084 101.388 152.369 118.094 152.369C134.688 152.369 146.841 140.972 146.841 125.464C146.841 109.956 134.8 98.5596 118.094 98.5596C101.388 98.5596 89.3475 109.844 89.3475 125.464ZM98.0262 125.464C98.0262 114.075 106.705 105.509 118.094 105.509C129.484 105.509 138.057 114.075 138.057 125.464C138.057 136.854 129.484 145.532 118.094 145.532C106.705 145.532 98.0262 136.854 98.0262 125.464ZM74.3592 162.349C72.6294 164.843 71.3789 166.138 71.3789 166.138H61.562C65.1413 162.125 66.2271 160.829 67.6349 158.658C69.8064 155.183 70.6675 151.169 70.6675 144.55V99.5391H78.9119V151.858C78.2133 156.84 76.8371 158.799 75.126 161.235C74.8747 161.592 74.6163 161.96 74.3517 162.349H74.3592ZM47.7581 99.5481V151.396H55.995V99.5481H47.7581ZM0 151.398H21.9101L21.9176 151.405C31.4649 151.405 38.1892 145.542 38.1892 137.298C38.1892 130.356 33.7413 125.257 26.7999 124.171C32.1089 123.197 35.8005 118.315 35.8005 112.347C35.8005 103.886 30.2668 99.5501 19.0946 99.5501H0V151.398ZM8.24438 106.379H17.7917C24.838 106.379 27.4438 108.326 27.4438 113.538C27.4438 116.144 26.4704 118.315 24.7331 119.723C22.7788 121.243 22.1273 121.348 17.0279 121.348H8.24438V106.379ZM21.9101 128.185C23.5425 128.289 25.1675 128.836 26.4704 129.809C28.4248 131.217 29.5105 133.718 29.5105 136.429C29.5105 139.357 28.0953 141.963 25.8189 143.37C23.6474 144.561 23.2131 144.561 17.7917 144.561H8.24438V128.185H21.9101ZM192.542 149.007C188.633 151.283 182.777 152.908 177.79 152.908C172.803 152.908 166.947 151.283 162.934 149.007C157.505 145.75 155.446 140.545 155.446 130.242V99.5481H163.578V131.65C163.578 141.085 168.46 145.967 177.79 145.967C187.12 145.967 192.003 141.085 192.003 131.65V99.5481H200.135V130.242C200.135 140.545 198.075 145.757 192.542 149.007ZM416.865 130.063L430.531 151.217L430.538 151.224H440.086L425.768 129.419C433.039 128.228 437.922 122.148 437.922 114.121C437.922 104.574 431.085 99.3693 418.61 99.3693H401.14V151.217H409.385V130.063H416.865ZM417.517 106.198C423.485 106.198 424.136 106.303 425.873 107.606V107.599C427.94 109.119 429.018 111.395 429.018 114.435C429.018 117.258 428.157 119.318 426.203 121.055C423.919 123.009 422.833 123.226 417.517 123.226H409.385V106.198H417.517ZM447.417 151.217V99.3693H455.654V151.217H447.417ZM524.777 151.217V99.3693H533.021V151.217H524.777ZM567.972 99.3693H583.914H612.991V106.198H594.548V151.217H586.416V106.198H583.914H567.972H565.471V151.217H557.339V106.198H538.896V99.3693H567.972ZM618.767 151.217V99.3693H650.876V106.206H627.004V121.175H646.75V128.011H627.004V144.395H651.52V151.232H618.759L618.767 151.217ZM341.992 11.4538L319.258 36.3217L321.827 54.5777L341.992 11.4538ZM283.518 36.3217L260.784 11.4538L280.957 54.5777L283.518 36.3217Z" fill="#2E2014"/>
</svg>
