<?xml version="1.0" standalone="no"?>
<!DOCTYPE svg PUBLIC "-//W3C//DTD SVG 20010904//EN"
 "http://www.w3.org/TR/2001/REC-SVG-20010904/DTD/svg10.dtd">
<svg version="1.0" xmlns="http://www.w3.org/2000/svg"
 width="600.000000pt" height="73.000000pt" viewBox="0 0 600.000000 73.000000"
 preserveAspectRatio="xMidYMid meet">

<g transform="translate(0.000000,73.000000) scale(0.100000,-0.100000)"
fill="#000000" stroke="none">
<path d="M5818 723 c6 -2 12 -20 12 -39 0 -19 5 -34 10 -34 6 0 10 15 10 34 0
19 6 37 13 39 6 3 -4 5 -23 5 -19 0 -29 -2 -22 -5z"/>
<path d="M5892 690 c0 -40 1 -41 7 -15 7 29 7 29 15 7 9 -27 30 -24 34 4 3 16
1 17 -8 4 -8 -10 -13 -11 -16 -4 -3 6 -11 20 -19 30 -13 17 -14 15 -13 -26z"/>
<path d="M5957 723 c-7 -13 5 -73 14 -73 5 0 9 18 9 40 0 36 -12 52 -23 33z"/>
<path d="M259 687 c-79 -27 -137 -71 -177 -135 -69 -110 -77 -244 -20 -361 85
-176 335 -241 538 -139 l65 33 3 133 3 132 -173 0 -173 0 1 -42 1 -43 127 -3
126 -3 0 -64 0 -64 -57 -21 c-48 -18 -73 -21 -143 -18 -93 5 -134 20 -188 72
-44 41 -58 69 -71 143 -20 108 16 202 101 263 50 37 103 52 179 51 73 0 113
-18 168 -74 l44 -45 33 21 c19 12 34 26 34 30 0 5 -24 32 -53 61 -95 95 -227
121 -368 73z"/>
<path d="M750 645 l0 -65 45 0 45 0 0 65 0 65 -45 0 -45 0 0 -65z"/>
<path d="M1450 360 l0 -350 45 0 45 0 0 350 0 350 -45 0 -45 0 0 -350z"/>
<path d="M2560 645 l0 -65 45 0 45 0 0 65 0 65 -45 0 -45 0 0 -65z"/>
<path d="M5310 360 l0 -350 45 0 45 0 0 194 0 195 68 32 c54 26 80 33 134 33
57 1 70 -2 92 -23 l26 -24 2 -201 3 -201 40 0 40 0 0 210 c0 199 -1 212 -22
245 -26 42 -81 75 -141 84 -50 7 -161 -16 -209 -44 l-33 -19 0 109 0 110 -45
0 -45 0 0 -350z"/>
<path d="M3620 655 l0 -45 125 0 125 0 2 -297 3 -298 43 -3 42 -3 0 300 0 301
130 0 130 0 0 45 0 45 -300 0 -300 0 0 -45z"/>
<path d="M1160 546 c-25 -7 -55 -18 -67 -24 -29 -16 -43 -15 -43 3 0 11 -11
15 -40 15 l-40 0 0 -265 0 -265 40 0 40 0 2 203 3 202 50 24 c36 18 68 25 112
25 54 1 65 -2 91 -27 l29 -28 27 32 c15 17 25 37 23 43 -7 21 -92 65 -137 70
-25 3 -65 -1 -90 -8z"/>
<path d="M1828 550 c-103 -18 -161 -67 -160 -138 1 -87 55 -121 241 -152 167
-28 202 -49 180 -106 -16 -44 -57 -59 -164 -59 -105 0 -152 14 -203 59 l-23
20 -31 -31 c-27 -28 -30 -34 -18 -48 47 -56 194 -101 300 -91 94 10 136 25
183 67 41 36 42 38 42 102 0 59 -3 69 -29 96 -34 36 -84 53 -221 75 -100 17
-165 41 -172 63 -14 41 93 72 204 59 63 -7 86 -18 126 -54 l27 -26 30 30 c28
28 29 31 15 52 -26 35 -95 70 -165 81 -73 12 -94 12 -162 1z"/>
<path d="M2997 544 c-31 -7 -70 -20 -87 -29 -39 -20 -50 -19 -50 5 0 17 -7 20
-40 20 l-40 0 0 -265 0 -265 40 0 40 0 0 188 0 188 28 20 c56 40 114 59 184
59 104 0 102 5 108 -243 l5 -207 43 -3 42 -3 0 206 c0 227 -5 252 -58 297 -17
14 -54 31 -82 37 -61 13 -59 13 -133 -5z"/>
<path d="M4287 546 c-107 -23 -189 -108 -205 -212 -25 -164 64 -297 216 -324
62 -11 80 -10 175 9 155 31 161 34 154 77 -4 20 -7 38 -9 39 -2 2 -43 -8 -93
-21 -199 -51 -328 -13 -351 105 l-6 31 231 0 231 0 0 34 c0 56 -31 134 -71
180 -65 74 -168 105 -272 82z m130 -87 c48 -18 113 -92 113 -129 0 -6 -61 -10
-180 -10 -119 0 -180 4 -180 10 0 24 32 70 64 95 56 43 126 56 183 34z"/>
<path d="M4884 539 c-59 -17 -126 -71 -158 -128 -26 -47 -30 -64 -29 -130 0
-86 15 -130 63 -185 113 -128 353 -121 459 13 17 21 31 41 31 44 0 3 -16 12
-36 22 l-36 17 -33 -36 c-42 -46 -90 -66 -160 -66 -93 0 -154 34 -186 105 -35
75 -19 163 38 216 40 37 63 48 126 55 68 8 117 -7 168 -53 37 -33 38 -34 68
-19 16 9 32 20 35 24 9 15 -88 101 -133 117 -47 16 -166 19 -217 4z"/>
<path d="M752 278 l3 -263 43 -3 42 -3 0 265 0 266 -45 0 -45 0 2 -262z"/>
<path d="M2562 278 l3 -263 43 -3 42 -3 0 265 0 266 -45 0 -45 0 2 -262z"/>
</g>
</svg>
