<svg width="379" height="162" viewBox="0 0 379 162" fill="none" xmlns="http://www.w3.org/2000/svg">
<path d="M185.952 124.212C185.952 130.372 185.952 136.531 185.952 142.69C185.952 144.875 186.198 145.124 188.363 145.072C190.191 145.031 190.334 145.187 190.324 147.122C190.314 151.408 190.324 155.695 190.324 159.981C190.324 161.688 190.058 161.969 188.424 161.969C179.967 161.969 171.509 161.969 163.052 161.969C161.489 161.969 161.193 161.677 161.193 160.065C161.193 155.612 161.193 151.159 161.193 146.706C161.193 145.374 161.55 145.052 162.909 145.093C164.795 145.142 165.738 144.195 165.738 142.253C165.738 139.506 165.708 136.76 165.749 134.013C165.769 132.848 165.35 132.38 164.165 132.4C160.325 132.452 156.484 132.421 152.644 132.421C151.081 132.421 150.826 132.671 150.826 134.2C150.826 137.155 150.826 140.11 150.826 143.064C150.826 144.854 151.132 145.135 152.93 145.124C155.228 145.124 155.269 145.124 155.289 147.517C155.33 151.887 155.32 156.257 155.33 160.626C155.33 161.5 155.034 162 154.023 162C145.483 161.969 136.944 161.979 128.405 161.969C126.158 161.969 126.097 161.885 126.097 159.565C126.097 155.279 126.127 150.992 126.066 146.706C126.046 145.551 126.464 145.166 127.537 145.124C130.52 145.01 130.52 144.979 130.52 141.941C130.52 130.039 130.52 118.136 130.52 106.234C130.52 103.342 130.53 103.342 127.68 103.29C126.178 103.269 126.087 103.155 126.087 101.667C126.087 97.2556 126.087 92.8443 126.087 88.433C126.087 86.2793 126.138 86.2273 128.303 86.2273C136.883 86.2273 145.463 86.2273 154.043 86.1753C155.126 86.1753 155.259 86.7683 155.259 87.5902C155.279 92.0015 155.34 96.4128 155.289 100.824C155.259 103.3 155.187 103.3 152.776 103.3C150.999 103.3 150.795 103.498 150.805 105.287C150.805 107.576 150.795 109.865 150.815 112.154C150.836 113.579 151.193 113.944 152.562 113.944C156.403 113.944 160.243 113.923 164.084 113.964C165.248 113.975 165.718 113.486 165.708 112.331C165.687 109.792 165.687 107.254 165.708 104.715C165.718 103.612 165.217 103.259 164.196 103.29C160.468 103.394 161.193 103.352 161.162 100.148C161.121 96.3192 161.142 92.4905 161.162 88.6619C161.162 86.373 161.326 86.2377 163.501 86.2377C171.795 86.2377 180.089 86.2377 188.383 86.2377C190.089 86.2377 190.283 86.3938 190.293 88.1521C190.314 92.8131 190.293 97.474 190.344 102.135C190.344 102.978 189.987 103.269 189.272 103.311C188.659 103.342 188.046 103.332 187.433 103.311C186.361 103.29 185.901 103.758 185.912 104.892C185.942 111.343 185.922 117.793 185.922 124.244L185.952 124.212ZM184.379 124.119C184.379 117.044 184.4 109.969 184.359 102.895C184.359 101.906 184.696 101.521 185.626 101.542C186.361 101.563 187.096 101.542 187.832 101.532C188.7 101.532 189.078 101.074 189.068 100.2C189.047 96.6209 189.037 93.0419 189.058 89.463C189.058 88.3081 188.567 87.8087 187.433 87.8087C179.793 87.8191 172.153 87.8087 164.513 87.8191C163.113 87.8191 162.797 88.1937 162.797 89.6398C162.776 93.1356 162.797 96.6313 162.766 100.127C162.766 101.084 163.185 101.521 164.073 101.532C164.891 101.542 165.718 101.438 166.515 101.563C166.862 101.615 167.424 102.104 167.424 102.406C167.475 106.442 167.444 110.479 167.424 114.516C167.424 115.286 167.066 115.577 166.259 115.567C161.152 115.515 156.045 115.515 150.938 115.515C149.406 115.515 149.273 115.421 149.253 113.819C149.212 110.864 149.171 107.909 149.181 104.955C149.181 101.74 149.212 101.729 152.327 101.563C153.287 101.511 153.737 101.084 153.726 100.096C153.706 96.5585 153.726 93.0211 153.706 89.4838C153.696 88.1729 153.297 87.8087 151.97 87.8087C144.534 87.8087 137.098 87.8087 129.662 87.8087C127.976 87.8087 127.751 88.0584 127.741 89.7647C127.731 92.7194 127.741 95.6742 127.741 98.6289C127.741 101.49 127.741 101.521 130.611 101.511C131.766 101.511 132.144 101.927 132.144 103.134C132.103 116.617 132.123 130.101 132.123 143.574C132.123 145.544 131.18 146.588 129.294 146.706C129.13 146.706 128.906 146.664 128.814 146.758C128.436 147.122 127.792 147.517 127.792 147.913C127.721 151.617 127.741 155.32 127.772 159.024C127.772 159.909 128.262 160.398 129.181 160.387C130.039 160.387 130.897 160.387 131.755 160.387C138.456 160.387 145.157 160.387 151.857 160.408C152.899 160.408 153.696 160.127 153.706 158.941C153.747 155.32 153.737 151.7 153.716 148.079C153.716 147.174 153.185 146.727 152.317 146.685C151.908 146.675 151.5 146.685 151.091 146.685C149.406 146.706 149.273 146.602 149.263 144.864C149.242 140.578 149.283 136.291 149.212 132.015C149.191 130.944 149.528 130.621 150.519 130.632C155.749 130.663 160.978 130.663 166.208 130.632C167.087 130.632 167.465 130.902 167.454 131.849C167.424 136.343 167.424 140.838 167.434 145.333C167.434 146.352 167.158 146.935 166.004 146.727C165.452 146.633 164.86 146.685 164.288 146.706C163.277 146.747 162.725 147.216 162.735 148.339C162.766 151.752 162.735 155.164 162.756 158.577C162.756 159.961 163.154 160.387 164.513 160.387C172.112 160.398 179.711 160.387 187.311 160.398C188.506 160.398 189.027 159.867 189.027 158.67C189.027 155.216 189.017 151.762 189.027 148.308C189.027 147.216 188.557 146.685 187.485 146.695C187.117 146.695 186.749 146.695 186.381 146.695C184.42 146.695 184.349 146.612 184.349 144.563C184.349 137.738 184.349 130.913 184.349 124.088L184.379 124.119Z" fill="#475667"/>
<path d="M240.012 0.636775C244.997 0.636775 249.982 0.657583 254.966 0.615967C256.039 0.615967 256.365 0.917683 256.345 2.04132C256.274 6.20292 256.304 10.3645 256.304 14.5261C256.304 16.222 256.192 16.5029 254.619 16.2948C251.738 15.9203 249.747 17.1063 247.785 19.1871C242.852 24.4516 237.694 29.4975 232.617 34.6371C231.831 35.4382 231.851 35.896 232.852 36.926C235.682 39.8079 238.521 42.6794 241.361 45.5509C244.221 48.464 247.111 51.3459 249.92 54.3007C250.788 55.2058 251.698 55.6012 252.944 55.6012C257.04 55.6012 256.243 55.1954 256.274 58.8992C256.304 62.5615 256.274 66.2237 256.325 69.8859C256.335 70.8326 256.039 71.228 255.058 71.228C245.089 71.2072 235.12 71.228 225.151 71.2176C223.721 71.2176 223.527 70.9575 223.537 69.5634C223.547 65.4434 223.506 61.3234 223.537 57.2034C223.537 56.704 223.966 56.2254 224.109 55.7052C224.221 55.3099 224.395 54.6856 224.201 54.4775C222.628 52.7401 220.993 51.0338 219.318 49.39C218.808 48.8906 218.123 48.8906 217.582 49.5148C217.173 49.983 216.795 50.4928 216.305 50.8569C214.977 51.8453 215.13 53.2395 215.284 54.592C215.325 54.9353 215.784 55.2578 216.121 55.5075C216.285 55.6324 216.591 55.5804 216.836 55.5804C219.952 55.5804 219.502 55.4347 219.502 58.327C219.502 62.1973 219.502 66.0676 219.543 69.9379C219.543 70.8222 219.267 71.2176 218.338 71.2176C210.044 71.1968 201.75 71.1968 193.456 71.2176C192.465 71.2176 192.097 70.843 192.108 69.8026C192.148 65.5162 192.128 61.2297 192.087 56.9433C192.087 55.9861 192.434 55.5492 193.374 55.5804C196.326 55.6532 196.173 55.4243 196.173 52.6464C196.173 41.2853 196.173 29.9241 196.173 18.5629C196.173 16.5965 195.928 16.3364 193.987 16.326C192.169 16.3156 192.128 16.2532 192.118 14.3076C192.118 10.146 192.118 5.98444 192.077 1.82283C192.077 0.938491 192.414 0.615967 193.221 0.615967C201.474 0.615967 209.727 0.626371 217.98 0.626371C218.93 0.626371 219.318 0.938491 219.298 2.04132C219.216 6.20292 219.237 10.3645 219.267 14.5261C219.267 16.0243 219.094 16.2844 217.633 16.326C215.222 16.3989 215.182 16.4509 215.182 18.8958C215.182 20.6853 215.151 22.4748 215.202 24.2643C215.212 24.67 215.498 25.0654 215.662 25.4607C216.04 25.2839 216.499 25.1902 216.775 24.9093C218.961 22.7245 221.116 20.498 223.281 18.2924C224.017 17.5433 224.64 16.8046 223.69 15.7434C223.506 15.5353 223.496 15.1192 223.496 14.807C223.486 10.479 223.506 6.1509 223.465 1.82283C223.455 0.688795 224.129 0.626371 224.895 0.626371C227.755 0.615967 230.615 0.626371 233.475 0.626371C235.641 0.626371 237.806 0.626371 239.972 0.626371L240.012 0.636775ZM213.803 30.1009C213.711 29.4871 213.598 29.0605 213.598 28.634C213.588 24.8885 213.598 21.1431 213.598 17.3976C213.598 15.6914 214.419 14.8348 216.06 14.8278C217.5 14.8278 217.796 14.5677 217.807 13.0904C217.837 9.96917 217.807 6.84797 217.817 3.72677C217.817 2.56152 217.337 2.11414 216.183 2.12455C209.319 2.15576 202.455 2.13495 195.591 2.14536C194.13 2.14536 193.752 2.5095 193.742 3.97646C193.732 6.88959 193.732 9.80271 193.742 12.7158C193.742 14.4741 194.099 14.8174 195.826 14.8383C197.685 14.8591 197.848 15.0359 197.848 16.9086C197.848 29.5183 197.848 42.1176 197.848 54.7272C197.848 56.7352 197.664 56.9433 195.713 56.9849C194.069 57.0161 193.752 57.3074 193.742 58.9305C193.721 61.8852 193.721 64.8399 193.742 67.7947C193.742 69.272 194.089 69.5946 195.591 69.5946C202.455 69.5946 209.319 69.5946 216.183 69.5946C217.582 69.5946 217.817 69.3761 217.827 67.9195C217.847 65.2145 217.847 62.5094 217.837 59.8044C217.837 57.0265 217.817 56.9953 215.12 57.0161C214.068 57.0161 213.701 56.5791 213.578 55.5596C213.251 52.7401 213.762 50.3055 216.244 48.5889C216.775 48.2247 217.184 47.6733 217.613 47.1739C218.256 46.4248 218.828 46.5289 219.472 47.1843C222.209 49.983 224.967 52.7609 227.694 55.57C227.949 55.8301 228.052 56.2566 228.225 56.6104C227.857 56.7248 227.5 56.9225 227.132 56.9329C225.478 56.9641 225.089 57.3074 225.089 58.9721C225.089 61.802 225.089 64.6319 225.089 67.4617C225.089 69.2929 225.345 69.5842 227.122 69.5946C235.743 69.5946 244.364 69.5842 252.974 69.6154C254.118 69.6154 254.629 69.22 254.619 68.034C254.588 64.9128 254.619 61.7916 254.598 58.6704C254.588 57.1618 254.323 56.9017 252.862 56.9953C251.381 57.0889 250.135 56.8809 248.981 55.6844C242.852 49.338 236.642 43.0747 230.442 36.8011C229.594 35.948 229.859 35.3446 230.585 34.6163C236.376 28.7484 242.188 22.9014 247.898 16.9503C249.348 15.4417 250.788 14.4845 252.913 14.8383C254.047 15.0255 254.598 14.4533 254.598 13.2985C254.598 10.0524 254.598 6.80635 254.598 3.5603C254.598 2.57192 254.129 2.13495 253.148 2.15576C251.228 2.18697 249.307 2.16616 247.387 2.16616C240.605 2.16616 233.823 2.16616 227.04 2.16616C225.396 2.16616 225.079 2.5095 225.079 4.12212C225.079 6.99363 225.079 9.86513 225.079 12.7366C225.079 14.4117 225.447 14.7654 227.081 14.8695C227.459 14.8903 227.827 15.0775 228.195 15.192C228.011 15.5665 227.898 16.0347 227.623 16.3156C224.456 19.5513 221.269 22.7765 218.072 25.9809C216.744 27.3127 215.386 28.6028 213.813 30.1321L213.803 30.1009Z" fill="#475667"/>
<path d="M14.9252 0.635216C19.0109 0.635216 23.0966 0.656024 27.1824 0.614408C28.1731 0.614408 28.5613 0.90572 28.5511 1.96693C28.5 6.21177 28.5306 10.4566 28.5306 14.7014C28.5306 16.1996 28.3876 16.3349 26.9168 16.3349C26.5491 16.3349 26.1814 16.3453 25.8136 16.3349C24.7207 16.2828 24.2406 16.8551 24.2406 17.9267C24.2406 20.1739 24.2406 22.4212 24.2406 24.6685C24.2406 25.8233 24.8126 26.2915 25.926 26.2915C29.4806 26.2707 33.0351 26.2707 36.5897 26.2915C37.6009 26.2915 38.0197 25.7921 38.0299 24.8558C38.0503 22.4836 38.0503 20.1115 38.0299 17.7394C38.0299 16.699 37.4681 16.2828 36.4467 16.3245C34.0463 16.4077 33.8216 16.7094 33.8318 13.6714C33.8523 9.71792 33.8318 5.76439 33.791 1.81087C33.7808 0.916124 34.1485 0.614408 34.9452 0.614408C43.3617 0.614408 51.7783 0.614408 60.1846 0.614408C60.9916 0.614408 61.2469 0.978548 61.2469 1.75885C61.2265 6.12853 61.2163 10.4982 61.2469 14.8679C61.2469 15.9811 60.8384 16.5117 59.7046 16.3349C59.4696 16.3037 59.2143 16.3349 58.9691 16.3349C57.3859 16.3349 57.1408 16.5742 57.1408 18.2388C57.1306 22.8998 57.1408 27.5608 57.1408 32.2218C57.1408 39.3381 57.1408 46.4545 57.1408 53.5604C57.1408 55.5268 57.2123 55.5788 59.1428 55.5996C61.2367 55.6204 61.2367 55.6204 61.2265 57.7324C61.2265 61.7276 61.2061 65.7227 61.2469 69.7178C61.2571 70.8415 60.9201 71.2472 59.7659 71.2472C51.6353 71.2056 43.5047 71.2056 35.3844 71.2472C34.2098 71.2472 33.8012 70.8623 33.8114 69.6554C33.8523 65.4106 33.8216 61.1658 33.7808 56.9209C33.7808 55.9325 34.1893 55.5684 35.1086 55.5996C38.132 55.6828 38.0401 55.8077 38.0401 52.468C38.0401 50.0543 38.0503 47.6405 38.0401 45.2268C38.0299 43.6558 37.7439 43.3749 36.2731 43.3749C32.8819 43.3749 29.4908 43.3749 26.0996 43.3749C24.5981 43.3749 24.2611 43.6974 24.2509 45.1748C24.2304 48.0879 24.2304 51.001 24.2509 53.9142C24.2509 55.3395 24.5062 55.5684 25.9158 55.5892C28.7247 55.6308 28.5511 55.2771 28.5409 58.2942C28.5306 62.1229 28.5204 65.9516 28.5613 69.7803C28.5715 70.8519 28.2242 71.2368 27.1415 71.2368C19.0109 71.2056 10.8804 71.216 2.76005 71.216C1.2892 71.216 1.12577 71.06 1.12577 69.5826C1.12577 65.4626 1.12577 61.3426 1.12577 57.2226C1.12577 55.7869 1.30963 55.61 2.78048 55.5996C5.36469 55.5684 5.38512 55.5684 5.38512 52.8842C5.38512 41.6062 5.38512 30.3387 5.38512 19.0607C5.38512 18.7278 5.38512 18.3949 5.36469 18.0619C5.28297 16.5534 5.07869 16.3453 3.60784 16.3453C3.48526 16.3453 3.36269 16.3453 3.24012 16.3453C1.23813 16.3453 1.13598 16.2516 1.13598 14.2645C1.13598 10.5606 1.13598 6.85681 1.13598 3.15299C1.13598 2.82006 1.17684 2.48713 1.13598 2.1542C0.962341 0.999356 1.41177 0.604004 2.54555 0.604004C6.67211 0.666428 10.7987 0.635216 14.9252 0.635216ZM55.4248 35.8008C55.4248 29.6832 55.4248 23.5657 55.4248 17.4481C55.4248 14.8887 55.4248 14.8575 57.9477 14.8263C58.9896 14.8159 59.4799 14.3581 59.4799 13.3489C59.4799 10.0196 59.4901 6.69035 59.4799 3.36107C59.4799 2.49753 59.0202 2.09178 58.152 2.11259C56.722 2.1438 55.292 2.12299 53.862 2.12299C48.3055 2.12299 42.7489 2.12299 37.1923 2.12299C36.2935 2.12299 35.4457 2.27905 35.4355 3.38187C35.3946 6.71116 35.4048 10.0404 35.4457 13.3697C35.4559 14.3581 36.0177 14.8887 37.0391 14.8263C37.366 14.8055 37.6928 14.8263 38.0197 14.8263C39.1024 14.7847 39.5416 15.2737 39.5212 16.4077C39.4701 19.5289 39.5008 22.6501 39.5008 25.7713C39.5008 27.6336 39.3373 27.8209 37.4579 27.8209C33.0862 27.8209 28.7145 27.8209 24.3428 27.8209C22.8822 27.8209 22.7085 27.6648 22.6983 26.1979C22.6881 23.2015 22.6779 20.2052 22.6983 17.2088C22.7085 14.7743 22.5859 14.639 24.9761 14.8055C26.498 14.9095 26.7738 14.5974 26.784 13.0368C26.8044 9.91559 26.784 6.79439 26.7942 3.67319C26.7942 2.55996 26.3346 2.12299 25.2416 2.12299C18.3368 2.1542 11.432 2.12299 4.52712 2.1438C3.06648 2.1438 2.73962 2.48713 2.72941 3.99571C2.71919 6.8256 2.72941 9.65549 2.72941 12.4854C2.72941 14.5662 2.94391 14.7847 4.9459 14.8159C6.64147 14.8471 6.83554 15.0552 6.83554 16.7718C6.83554 29.4647 6.83554 42.1576 6.83554 54.8505C6.83554 56.7232 6.5904 56.9729 4.70076 56.9729C3.02562 56.9729 2.73962 57.2538 2.72941 59.0225C2.71919 61.9357 2.71919 64.8488 2.72941 67.7619C2.72941 69.2705 3.04605 69.5722 4.54755 69.5722C11.4115 69.5722 18.2755 69.5722 25.1395 69.5722C26.5286 69.5722 26.784 69.3433 26.7942 67.9076C26.8146 65.1193 26.8146 62.331 26.7942 59.5427C26.7942 56.9625 26.784 56.9209 24.21 57.0041C23.1477 57.0354 22.6881 56.6608 22.6881 55.5996C22.6881 51.4796 22.6881 47.3596 22.6881 43.2396C22.6881 42.4697 23.0149 42.0952 23.8014 42.1056C28.5409 42.116 33.2803 42.1264 38.0197 42.1056C39.1739 42.1056 39.5518 42.605 39.5314 43.7911C39.4599 47.4533 39.5008 51.1155 39.5008 54.7777C39.5008 56.7545 39.3271 56.9417 37.3251 56.9833C35.7113 57.0146 35.4048 57.2955 35.3946 58.9705C35.3742 61.9252 35.3742 64.88 35.3946 67.8347C35.3946 69.2601 35.7419 69.5826 37.1617 69.5826C44.0665 69.5826 50.9714 69.5618 57.8762 69.6034C59.0509 69.6034 59.5105 69.1456 59.5003 67.9908C59.4901 65.0777 59.5309 62.1645 59.5003 59.2514C59.4799 57.0354 59.3573 56.9417 57.2225 56.9729C55.5269 57.0041 55.4044 56.8793 55.4044 55.1626C55.4044 48.7121 55.4044 42.2617 55.4044 35.8112L55.4248 35.8008Z" fill="#475667"/>
<path d="M29.123 86.2091C34.0667 86.2091 39.0104 86.2403 43.9541 86.1883C45.0675 86.1779 45.9255 86.5004 46.6813 87.2807C49.9908 90.662 53.341 94.0225 56.6096 97.4558C57.059 97.924 57.2837 98.7979 57.2837 99.4846C57.3348 103.563 57.294 107.641 57.2837 111.72C57.2837 112.677 56.865 113.155 55.864 113.155C49.9805 113.135 44.0971 113.135 38.2137 113.155C37.1616 113.155 36.8552 112.594 36.845 111.678C36.845 110.18 36.845 108.682 36.845 107.184C36.845 105.134 35.0984 103.282 33.1168 103.282C30.2977 103.282 27.4785 103.272 24.6594 103.282C22.6982 103.292 21.115 104.926 21.115 106.923C21.115 108.63 21.0946 110.336 21.1253 112.042C21.1559 113.967 23.2192 115.965 25.1088 115.965C31.4825 115.965 37.8562 115.975 44.2299 115.944C45.2105 115.944 45.9357 116.245 46.6098 116.943C49.8273 120.261 53.055 123.549 56.3134 126.826C57.0386 127.555 57.3348 128.325 57.3246 129.365C57.294 135.774 57.294 142.183 57.3246 148.592C57.3246 149.663 56.9977 150.475 56.2317 151.234C53.055 154.407 49.9193 157.622 46.7835 160.847C46.0174 161.638 45.1696 161.981 44.0665 161.981C33.8931 161.971 23.7299 162.013 13.5565 161.971C12.8721 161.971 12.055 161.513 11.5443 161.014C8.26549 157.768 5.02757 154.48 1.86115 151.12C1.29937 150.527 0.890796 149.538 0.870368 148.716C0.768225 144.929 0.829511 141.142 0.829511 137.355C0.829511 135.743 1.11551 135.451 2.67829 135.451C8.15314 135.451 13.628 135.451 19.1028 135.451C20.9823 135.451 21.1457 135.639 21.1355 137.511C21.1355 138.468 21.1968 139.436 21.115 140.383C20.9823 141.839 21.4828 142.911 22.545 143.889C23.4439 144.721 24.3325 145.189 25.5889 145.148C28.122 145.054 30.6552 145.127 33.1883 145.117C34.9452 145.106 36.8552 143.129 36.8654 141.35C36.8654 139.977 36.8654 138.604 36.8654 137.23C36.8654 134.411 35.3639 132.892 32.5754 132.892C26.3652 132.892 20.1549 132.933 13.9446 132.861C13.1377 132.861 12.1469 132.455 11.5749 131.893C8.27571 128.668 5.03779 125.38 1.88158 122.009C1.29937 121.395 0.880582 120.345 0.870368 119.502C0.788654 112.916 0.839725 106.341 0.809082 99.7655C0.809082 98.6523 1.14615 97.7887 1.94287 96.998C5.08886 93.856 8.20421 90.662 11.3093 87.4679C12.1878 86.5732 13.0968 86.1258 14.4247 86.157C19.3275 86.2611 24.2304 86.1987 29.1332 86.1987L29.123 86.2091ZM29.0413 87.8113C24.3019 87.8113 19.5625 87.8425 14.8231 87.7905C13.5973 87.7801 12.6474 88.113 11.7792 89.0285C9.08263 91.8688 6.31457 94.6467 3.55672 97.4142C2.78043 98.1945 2.40251 99.0268 2.40251 100.161C2.42294 106.445 2.34122 112.729 2.40251 119.013C2.40251 119.772 2.92343 120.688 3.475 121.271C6.28393 124.236 9.20521 127.086 12.0141 130.041C12.8517 130.926 13.7506 131.29 14.9354 131.279C21.1048 131.248 27.2742 131.279 33.4437 131.238C34.5877 131.238 35.4048 131.643 36.273 132.403C37.9992 133.901 38.9083 135.618 38.5099 137.959C38.4589 138.281 38.5099 138.624 38.5099 138.957C38.4486 143.712 39.1024 142.266 35.7112 145.73C35.1699 146.282 34.2302 146.656 33.4641 146.688C30.5632 146.792 27.6624 146.667 24.7615 146.75C23.546 146.792 22.7187 146.323 21.8198 145.564C20.0017 144.035 19.062 142.235 19.4808 139.811C19.5216 139.571 19.491 139.311 19.491 139.061C19.4808 137.303 19.205 136.991 17.5196 136.991C13.1888 136.981 8.85792 136.981 4.52707 136.991C2.69872 136.991 2.38208 137.418 2.40251 139.332C2.43315 142.162 2.32079 144.992 2.43315 147.822C2.47401 148.685 2.85193 149.736 3.42393 150.36C6.23286 153.377 9.18478 156.249 12.0448 159.224C12.8415 160.057 13.7199 160.452 14.8639 160.452C24.2202 160.431 33.5764 160.421 42.9327 160.452C44.1176 160.452 45.0879 160.161 45.9153 159.318C48.7855 156.415 51.6353 153.502 54.5565 150.652C55.3635 149.861 55.7107 149.008 55.7005 147.905C55.6801 141.912 55.7312 135.919 55.6495 129.927C55.6392 129.074 55.2205 128.023 54.6382 127.399C51.8293 124.381 48.9285 121.447 45.9766 118.566C45.4454 118.045 44.5568 117.64 43.8213 117.64C37.5294 117.588 31.2374 117.588 24.9454 117.681C23.5869 117.702 22.7085 117.14 21.7177 116.318C19.9404 114.841 19.1437 113.093 19.4808 110.783C19.5625 110.253 19.491 109.701 19.491 109.16C19.491 104.957 19.4808 104.947 22.545 102.148C22.9025 101.825 23.4745 101.586 23.9444 101.576C27.3355 101.524 30.7267 101.513 34.1178 101.576C34.6898 101.586 35.3231 101.95 35.8236 102.304C38.0809 103.885 38.9798 106.091 38.5099 108.859C38.4589 109.14 38.4997 109.441 38.5099 109.733C38.561 111.158 38.8879 111.512 40.2668 111.512C44.8019 111.512 49.337 111.512 53.8722 111.512C55.2613 111.512 55.6699 111.158 55.6801 109.785C55.7107 106.497 55.721 103.209 55.6495 99.9215C55.6392 99.3181 55.3635 98.5794 54.9549 98.1529C51.9928 95.0525 48.9693 92.0145 45.9663 88.9557C45.1798 88.1546 44.3116 87.7697 43.137 87.7905C38.4384 87.8633 33.7399 87.8217 29.0413 87.8217V87.8113Z" fill="#475667"/>
<path d="M288.791 0.624023C296.636 0.624023 304.48 0.624023 312.325 0.624023C314.306 0.624023 314.306 0.644831 314.296 2.61119C314.296 7.60512 314.276 12.599 314.317 17.593C314.317 18.6542 314.01 19.1432 312.948 19.1432C308.74 19.1432 304.531 19.164 300.333 19.1744C299.312 19.1744 298.597 18.9143 298.679 17.6138C298.73 16.7711 298.178 16.3341 297.351 16.3341C294.205 16.3341 291.059 16.3341 287.913 16.3445C286.932 16.3445 286.381 16.9063 286.381 17.9051C286.36 20.7766 286.36 23.6481 286.37 26.5196C286.37 27.6224 287.106 27.9033 287.995 27.9658C288.955 28.0386 289.322 27.4872 289.312 26.5924C289.302 25.7497 289.659 25.4376 290.517 25.448C294.603 25.4688 298.689 25.4272 302.775 25.4168C303.265 25.4168 303.806 25.3752 304.215 25.5832C304.593 25.7809 305.083 26.2699 305.083 26.6445C305.144 32.8036 305.114 38.9628 305.134 45.1116C305.134 46.2664 304.45 46.5161 303.541 46.5161C301.007 46.5265 298.474 46.5161 295.941 46.5161C294.184 46.5161 292.428 46.4745 290.671 46.5265C289.711 46.5577 289.292 46.1728 289.322 45.226C289.343 44.196 288.914 43.6654 287.852 43.7382C286.789 43.8007 286.34 44.3417 286.35 45.4237C286.381 48.212 286.35 51.0002 286.381 53.7885C286.391 55.2451 286.697 55.5572 288.107 55.5676C291.13 55.5884 294.154 55.5572 297.177 55.5884C298.26 55.5988 298.822 55.1619 298.709 54.0382C298.597 52.977 299.128 52.6129 300.068 52.6233C304.399 52.6233 308.729 52.6233 313.06 52.6233C313.969 52.6233 314.337 52.9874 314.327 53.9862C314.286 59.1882 314.276 64.3902 314.327 69.5922C314.337 70.7575 313.888 71.1944 312.846 71.1944C312.356 71.1944 311.865 71.2153 311.375 71.2153C296.094 71.2153 280.824 71.2153 265.544 71.2153C263.429 71.2153 263.368 71.1632 263.368 68.9472C263.368 65.0353 263.399 61.1234 263.348 57.2114C263.327 55.9942 263.848 55.5988 264.951 55.578C267.729 55.5052 267.729 55.4844 267.719 52.6129C267.719 41.3349 267.719 30.057 267.719 18.7894C267.719 16.5838 267.484 16.3445 265.349 16.3341C263.593 16.3341 263.358 16.0948 263.358 14.3261C263.358 10.331 263.358 6.33583 263.358 2.34069C263.358 0.759276 263.47 0.624023 265.012 0.624023C272.939 0.624023 280.865 0.624023 288.791 0.624023V0.624023ZM288.73 69.5506C296.043 69.5506 303.357 69.5506 310.66 69.5506C312.427 69.5506 312.652 69.2905 312.652 67.5426C312.652 63.7556 312.652 59.9685 312.652 56.1814C312.652 54.4128 312.427 54.1319 310.701 54.1111C307.759 54.0902 304.817 54.1215 301.876 54.0902C300.813 54.0798 300.241 54.4544 300.262 55.5884C300.282 56.6496 299.772 56.993 298.73 56.9826C294.726 56.9305 290.722 56.9305 286.718 56.9826C285.543 56.993 285.083 56.504 285.083 55.3699C285.094 51.3748 285.104 47.3797 285.083 43.3845C285.083 42.4169 285.512 42.0424 286.432 42.0736C287.453 42.1152 288.475 42.1464 289.496 42.0736C290.558 42.0008 291.13 42.3025 291.049 43.5094C290.987 44.529 291.529 45.0075 292.56 44.9971C295.543 44.9659 298.525 44.9971 301.508 44.9763C303.091 44.9555 303.469 44.581 303.479 42.9684C303.5 38.1825 303.5 33.3967 303.479 28.6108C303.479 27.1126 303.122 26.7797 301.661 26.7693C298.72 26.7485 295.778 26.7693 292.836 26.7693C291.324 26.7693 291.151 26.8942 291.049 28.4339C290.998 29.2767 290.66 29.62 289.823 29.5784C288.679 29.5368 287.535 29.5576 286.391 29.5784C285.543 29.5992 285.083 29.2767 285.083 28.3507C285.083 24.2723 285.083 20.194 285.083 16.1156C285.083 15.0752 285.543 14.7111 286.616 14.7319C290.538 14.8047 294.46 14.8463 298.372 14.7319C299.68 14.6902 300.252 14.9399 300.303 16.3445C300.323 16.7502 301.008 17.4577 301.406 17.4681C304.715 17.5513 308.025 17.5097 311.324 17.4889C312.141 17.4889 312.621 17.0416 312.621 16.1676C312.621 11.9228 312.621 7.67794 312.621 3.43311C312.621 2.59038 312.182 2.1222 311.334 2.10139C310.926 2.10139 310.517 2.08059 310.108 2.08059C296.258 2.08059 282.418 2.08059 268.567 2.08059C267.872 2.08059 267.178 2.08059 266.483 2.08059C265.401 2.10139 264.829 2.62159 264.829 3.77644C264.849 6.73118 264.818 9.68592 264.849 12.6407C264.869 14.3677 265.278 14.7423 266.984 14.7631C268.741 14.7839 268.945 14.992 268.945 16.7919C268.945 29.4848 268.945 42.1672 268.945 54.8601C268.945 56.608 268.649 56.9097 266.974 56.9201C265.166 56.9305 264.849 57.2427 264.839 59.1154C264.818 61.8204 264.839 64.5255 264.839 67.2305C264.839 69.2073 265.145 69.5194 267.137 69.5194C274.328 69.5194 281.519 69.5194 288.699 69.5194L288.73 69.5506Z" fill="#475667"/>
<path d="M64.8387 124.212C64.8387 116.097 64.8081 107.982 64.8796 99.867C64.8796 99.0139 65.2882 97.9526 65.8602 97.3388C69.0777 93.9159 72.3769 90.5554 75.7373 87.2781C76.34 86.6851 77.3716 86.2585 78.199 86.2481C88.0864 86.1753 97.9738 86.2273 107.861 86.1753C109.158 86.1753 110.098 86.5602 110.997 87.4862C114.163 90.7843 117.412 94.0095 120.568 97.3284C121.048 97.8382 121.436 98.6809 121.446 99.378C121.518 104.164 121.477 108.95 121.497 113.736C121.497 114.786 121.13 115.202 120.047 115.192C114.327 115.15 108.607 115.171 102.887 115.171C101.518 115.171 101.273 114.922 101.263 113.475C101.253 111.436 101.263 109.397 101.263 107.358C101.263 105.371 99.2404 103.279 97.3099 103.279C94.5316 103.269 91.7533 103.259 88.975 103.279C87.0752 103.29 85.1345 105.256 85.1345 107.191C85.1345 118.428 85.1243 129.664 85.1345 140.9C85.1345 142.992 87.1569 145.093 89.1895 145.114C91.7635 145.145 94.3375 145.145 96.9115 145.114C99.414 145.072 101.253 143.148 101.253 140.62C101.253 138.747 101.273 136.874 101.253 135.001C101.232 134.044 101.641 133.67 102.58 133.67C108.505 133.69 114.429 133.69 120.353 133.67C121.293 133.67 121.538 134.086 121.528 134.96C121.497 139.662 121.528 144.365 121.487 149.068C121.487 149.588 121.221 150.222 120.874 150.597C117.442 154.155 113.98 157.692 110.466 161.178C110.027 161.615 109.25 161.937 108.637 161.937C98.3415 161.989 88.0455 161.989 77.7496 161.937C77.0652 161.937 76.2276 161.532 75.7169 161.032C72.4892 157.849 69.3432 154.571 66.1462 151.367C65.2167 150.441 64.8081 149.442 64.8183 148.069C64.8796 140.12 64.8489 132.171 64.8489 124.223L64.8387 124.212ZM66.4832 123.921C66.4832 131.662 66.5139 139.402 66.4526 147.143C66.4424 148.516 66.8612 149.505 67.8009 150.43C70.7221 153.333 73.5413 156.34 76.5136 159.201C77.1878 159.846 78.2807 160.356 79.1898 160.366C88.6278 160.45 98.0657 160.408 107.504 160.429C108.566 160.429 109.393 160.096 110.129 159.347C113.101 156.309 116.084 153.292 119.036 150.243C119.383 149.889 119.72 149.328 119.73 148.859C119.791 144.739 119.771 140.619 119.761 136.5C119.761 135.719 119.362 135.251 118.545 135.251C113.806 135.251 109.066 135.251 104.327 135.251C103.306 135.251 102.856 135.834 102.846 136.832C102.846 137.623 102.734 138.435 102.866 139.205C103.357 142.024 102.335 144.167 100.098 145.728C99.4038 146.217 98.5254 146.643 97.7082 146.675C94.8891 146.789 92.07 146.706 89.2508 146.716C86.5338 146.716 83.8781 144.053 83.8781 141.306C83.8781 130.32 83.9598 119.333 83.8168 108.357C83.7862 105.839 84.3275 103.883 86.3398 102.468C86.9628 102.031 87.7493 101.615 88.4848 101.584C90.9362 101.48 93.408 101.75 95.8288 101.49C98.4437 101.219 100.282 102.177 101.855 104.164C102.478 104.955 102.897 105.683 102.866 106.723C102.815 108.429 102.815 110.136 102.866 111.842C102.907 113.299 103.326 113.611 104.766 113.6C109.097 113.569 113.428 113.559 117.759 113.59C119.597 113.6 119.781 113.496 119.791 111.582C119.791 107.712 119.832 103.841 119.751 99.971C119.74 99.2739 119.383 98.4208 118.903 97.9214C115.89 94.7482 112.836 91.6374 109.71 88.5682C109.22 88.0896 108.362 87.7567 107.677 87.7463C97.9534 87.6943 88.2294 87.7151 78.5054 87.6943C77.5657 87.6943 76.8916 88.0168 76.2583 88.6931C73.4289 91.6894 70.5894 94.6858 67.6987 97.6197C66.8509 98.4832 66.4832 99.3676 66.4832 100.585C66.5241 108.367 66.5037 116.149 66.5037 123.931L66.4832 123.921Z" fill="#475667"/>
<path d="M135.084 35.9974C135.084 28.4233 135.084 20.8492 135.074 13.2751C135.074 12.2867 135.36 11.5376 136.055 10.8405C139.14 7.75052 142.163 4.5877 145.278 1.51851C145.779 1.02953 146.627 0.654982 147.311 0.654982C156.749 0.602962 166.187 0.602962 175.625 0.654982C176.309 0.654982 177.147 1.03993 177.647 1.52892C180.763 4.5877 183.796 7.74012 186.891 10.8301C187.586 11.5272 187.902 12.2659 187.892 13.2542C187.862 17.5407 187.862 21.8271 187.892 26.1136C187.892 27.102 187.606 27.5494 186.564 27.539C181.089 27.5077 175.615 27.5077 170.14 27.539C169.129 27.539 168.74 27.154 168.761 26.1448C168.791 24.064 168.781 21.9832 168.761 19.9024C168.751 18.2066 166.994 16.3442 165.349 16.3338C162.775 16.313 160.201 16.313 157.627 16.3338C155.993 16.3442 154.185 18.217 154.185 19.8816C154.185 30.6185 154.185 41.3555 154.185 52.0924C154.185 53.7363 156.054 55.5778 157.689 55.5882C160.14 55.5882 162.591 55.5882 165.043 55.5882C166.779 55.5882 168.751 53.601 168.771 51.8531C168.792 50.022 168.771 48.1909 168.771 46.3598C168.771 45.361 169.088 44.9241 170.232 44.9449C175.666 45.0281 181.1 45.0177 186.534 44.9553C187.545 44.9553 187.872 45.3298 187.872 46.235C187.872 50.563 187.892 54.8911 187.831 59.2192C187.831 59.7602 187.494 60.426 187.116 60.8318C184.001 64.0674 180.865 67.2927 177.668 70.4451C177.198 70.9029 176.37 71.2046 175.707 71.2046C166.187 71.2566 156.667 71.2566 147.147 71.2046C146.524 71.2046 145.758 70.8925 145.309 70.4555C142.173 67.3551 139.129 64.1611 135.994 61.0607C135.268 60.3428 135.084 59.5729 135.084 58.6157C135.105 51.0832 135.084 43.5507 135.084 36.0182V35.9974ZM136.8 35.8101C136.8 43.2594 136.78 50.7087 136.831 58.158C136.831 58.855 137.168 59.729 137.638 60.2284C140.375 63.1415 143.184 65.9922 146.034 68.8013C146.453 69.2174 147.178 69.5191 147.76 69.5296C156.912 69.5712 166.064 69.5712 175.216 69.5296C175.768 69.5296 176.462 69.2695 176.851 68.8741C179.782 65.9714 182.652 63.0166 185.522 60.0515C185.839 59.729 186.125 59.1984 186.135 58.7614C186.176 55.016 186.156 51.2705 186.146 47.5251C186.146 46.6511 185.737 46.2454 184.869 46.2454C180.497 46.2558 176.125 46.2662 171.754 46.2454C170.712 46.2454 170.262 46.7552 170.262 47.7748C170.262 49.0649 170.232 50.355 170.262 51.6451C170.334 54.1316 167.78 56.9407 165.349 56.9615C162.612 56.9823 159.874 56.9719 157.137 56.9615C155.125 56.9615 152.469 54.2357 152.469 52.1965C152.469 42.1254 152.571 32.0543 152.408 21.9832C152.367 19.3614 153.01 17.4575 154.982 15.8344C155.799 15.1582 156.545 14.7524 157.597 14.7732C159.599 14.8252 161.621 14.9709 163.592 14.742C166.105 14.4507 167.985 15.3246 169.374 17.343C169.823 18.0089 170.16 18.8724 170.221 19.6631C170.344 21.1925 170.222 22.7427 170.242 24.2825C170.273 25.8847 170.661 26.2384 172.244 26.2489C176.207 26.2489 180.17 26.2489 184.133 26.2489C185.921 26.2489 186.135 26.0512 186.146 24.2825C186.166 20.6619 186.197 17.0413 186.115 13.4207C186.094 12.7236 185.717 11.8913 185.236 11.3815C182.632 8.62446 179.925 5.96103 177.31 3.21437C176.565 2.43407 175.768 2.10114 174.716 2.10114C165.768 2.12195 156.82 2.09074 147.873 2.16356C147.076 2.16356 146.095 2.60053 145.523 3.17275C142.898 5.78416 140.406 8.54122 137.812 11.1942C137.097 11.9329 136.77 12.6716 136.77 13.712C136.8 21.0781 136.79 28.4441 136.79 35.8101H136.8Z" fill="#475667"/>
<path d="M341.693 0.624812C348.23 0.624812 354.768 0.64562 361.305 0.604004C362.5 0.604004 363.368 0.936932 364.205 1.82127C367.106 4.86965 370.099 7.82439 372.99 10.8728C373.47 11.3826 373.858 12.2253 373.868 12.9224C373.94 18.2492 373.929 23.5761 373.868 28.9029C373.868 29.5272 373.511 30.2554 373.102 30.7444C372.265 31.7536 371.304 32.6796 370.334 33.5743C369.721 34.1465 369.65 34.6563 370.222 35.2598C371.131 36.2169 372.132 37.1013 372.908 38.1521C373.409 38.8179 373.848 39.7335 373.858 40.545C373.95 44.8315 373.889 49.1179 373.899 53.4044C373.899 55.4019 374.052 55.558 375.962 55.5892C377.338 55.617 378.025 56.314 378.025 57.6804C378.025 61.6756 377.995 65.6707 378.036 69.6658C378.046 70.7791 377.678 71.2368 376.544 71.2264C369.966 71.1952 363.388 71.2264 356.81 71.2056C354.982 71.2056 354.921 71.0392 354.931 69.2289C354.962 61.5715 354.972 53.9142 354.931 46.2568C354.921 43.8847 353.266 42.3345 350.927 42.3345C348.884 42.3345 346.841 42.3761 344.798 42.3137C343.654 42.2825 343.123 42.7403 343.133 43.9055C343.144 47.318 343.144 50.7305 343.133 54.1431C343.133 55.2043 343.573 55.6308 344.625 55.5996C347.434 55.5372 347.219 55.3915 347.209 58.3359C347.209 62.1229 347.178 65.91 347.219 69.6971C347.229 70.8103 346.892 71.2368 345.738 71.2264C337.608 71.1848 329.477 71.1848 321.346 71.2264C320.274 71.2264 319.906 70.8727 319.916 69.7907C319.957 65.5459 319.947 61.301 319.916 57.0562C319.916 56.0054 320.202 55.558 321.316 55.5684C323.675 55.5892 324.023 56.2343 324.023 52.7281C324.023 41.5334 324.023 30.3387 324.023 19.1544C324.023 18.9879 324.023 18.8214 324.023 18.655C323.982 16.4597 323.849 16.3245 321.735 16.3349C320.019 16.3453 319.947 16.2724 319.947 14.5142C319.947 10.3526 319.978 6.19096 319.927 2.02935C319.916 0.916124 320.284 0.604004 321.346 0.604004C328.129 0.64562 334.911 0.624812 341.693 0.624812V0.624812ZM341.989 2.11259C335.738 2.11259 329.487 2.11259 323.236 2.11259C321.765 2.11259 321.428 2.44551 321.418 3.94369C321.408 6.85682 321.408 9.76994 321.418 12.6831C321.418 14.4934 321.704 14.7639 323.481 14.7951C325.371 14.8159 325.524 14.9824 325.524 16.8447C325.524 29.4127 325.524 41.9704 325.524 54.5384C325.524 56.7753 325.422 56.9001 323.175 56.9417C321.775 56.973 321.438 57.2747 321.428 58.7208C321.408 61.7588 321.408 64.7968 321.428 67.8347C321.428 69.1977 321.765 69.5514 323.093 69.5514C330.08 69.5514 337.066 69.5514 344.053 69.5514C345.391 69.5514 345.728 69.2081 345.738 67.8555C345.748 64.8592 345.748 61.8628 345.738 58.8665C345.738 57.2747 345.401 56.9625 343.869 56.9521C343.583 56.9521 343.297 56.9521 343.011 56.9521C341.591 56.9521 341.417 56.7649 341.417 55.2979C341.417 51.0114 341.448 46.725 341.407 42.4385C341.397 41.4189 341.683 41.0236 342.725 41.034C345.83 41.0756 348.935 41.0236 352.04 41.034C354.4 41.034 356.545 43.2188 356.545 45.6014C356.545 52.8842 356.545 60.167 356.545 67.4498C356.545 69.3121 356.749 69.5514 358.577 69.5514C363.93 69.5618 369.282 69.5618 374.634 69.5514C376.095 69.5514 376.401 69.2185 376.401 67.6787C376.401 64.9736 376.401 62.2686 376.401 59.5635C376.401 57.0978 376.391 57.0874 373.991 56.9417C372.642 56.8585 372.285 56.5256 372.285 55.2251C372.285 50.6057 372.356 45.9863 372.295 41.3669C372.295 40.6178 371.917 39.7439 371.447 39.1509C370.375 37.7984 369.149 36.5707 367.954 35.3118C367.331 34.6459 367.27 34.1049 367.975 33.4287C369.17 32.2946 370.334 31.1294 371.417 29.8809C371.836 29.3919 372.224 28.674 372.234 28.0498C372.295 23.1807 372.295 18.3116 372.234 13.4426C372.234 12.8807 371.979 12.1837 371.59 11.7883C368.884 8.95843 366.075 6.22217 363.388 3.37147C362.479 2.4143 361.519 2.07097 360.253 2.08137C354.165 2.12299 348.077 2.10218 341.989 2.10218V2.11259Z" fill="#475667"/>
<path d="M99.7234 0.624812C105.239 0.624812 110.755 0.624812 116.27 0.624812C118.17 0.624812 118.181 0.666428 118.181 2.54955C118.181 6.50308 118.181 10.4566 118.181 14.4101C118.181 16.054 118.068 16.1996 116.505 16.3245C115.116 16.4389 114.81 16.8343 115.239 18.1556C116.904 23.316 118.62 28.4659 120.285 33.6263C121.786 38.2769 123.247 42.9379 124.738 47.5885C125.433 49.7526 126.148 51.9166 126.873 54.0702C127.21 55.0898 127.884 55.6516 128.997 55.5684C129.283 55.5476 129.569 55.5684 129.855 55.5684C131.245 55.6516 131.459 55.8805 131.459 57.2955C131.459 61.3322 131.459 65.369 131.459 69.4057C131.459 71.008 131.337 71.1848 129.712 71.1848C122.562 71.1952 115.412 71.1744 108.273 71.1952C104.463 71.2056 105.045 71.1536 105.025 67.8972C105.004 64.3182 105.045 60.7392 105.004 57.1602C105.004 56.2759 105.259 55.7037 106.138 55.5372C107.047 55.3603 107.067 54.7881 106.843 54.039C106.271 52.1663 106.117 52.031 104.177 52.031C100.949 52.031 97.7214 52.031 94.4937 52.031C92.9922 52.031 91.9299 53.061 92.0116 54.5904C92.032 54.9442 92.5734 55.4956 92.9309 55.5476C93.748 55.662 93.9523 56.0782 93.9421 56.7961C93.9421 61.2074 93.9319 65.6187 93.9421 70.03C93.9421 70.8727 93.5846 71.216 92.7572 71.2056C84.7901 71.1848 76.823 71.1848 68.8661 71.2056C67.8446 71.2056 67.5076 70.7479 67.5076 69.7595C67.528 65.5146 67.5382 61.2698 67.5076 57.025C67.5076 55.9325 67.9468 55.5684 68.9784 55.558C71.6852 55.5268 71.9201 55.2147 72.676 52.5408C73.4727 49.7526 74.4635 47.0267 75.3419 44.2696C76.2305 41.471 77.0783 38.6515 77.967 35.8424C78.7126 33.4807 79.4889 31.119 80.2652 28.7677C81.1232 26.1771 81.9914 23.5865 82.8596 20.9959C83.1354 20.174 83.4316 19.352 83.738 18.5405C84.2896 17.0944 83.9321 16.4285 82.451 16.2933C81.593 16.21 81.2049 15.8043 81.2049 14.9407C81.2049 10.5294 81.2151 6.11813 81.1947 1.70683C81.1947 0.739256 81.7565 0.624812 82.4715 0.624812C85.0863 0.624812 87.7012 0.614408 90.316 0.604004C93.462 0.604004 96.608 0.604004 99.754 0.604004L99.7234 0.624812ZM99.7642 2.12299C97.6805 2.12299 95.5968 2.12299 93.5131 2.12299C90.4897 2.12299 87.4662 2.12299 84.4428 2.12299C83.5644 2.12299 82.8494 2.36228 82.8494 3.40268C82.829 6.73197 82.8392 10.0613 82.8494 13.3905C82.8494 14.2853 83.3295 14.7222 84.2283 14.8055C85.9137 14.9511 86.0975 15.2633 85.5868 16.9071C84.9944 18.811 84.3917 20.7046 83.7993 22.5981C82.972 25.2095 82.1548 27.8105 81.3275 30.4219C80.4388 33.2206 79.54 36.0193 78.6615 38.8283C77.8035 41.5542 76.9558 44.2904 76.0978 47.0059C75.2602 49.6485 74.3511 52.2703 73.5646 54.9338C73.0437 56.7024 72.8598 56.9417 71.0621 56.9625C69.4381 56.9833 69.1521 57.2643 69.1418 58.9497C69.1316 61.9044 69.1316 64.8592 69.1418 67.8139C69.1418 69.2289 69.4891 69.5618 70.9089 69.5618C73.7689 69.5618 76.6289 69.5618 79.4889 69.5618C83.2477 69.5618 87.0066 69.5618 90.7654 69.5618C91.6847 69.5618 92.4406 69.3433 92.4508 68.2405C92.4712 64.9528 92.4712 61.6652 92.4406 58.3775C92.4406 57.6076 92.1137 56.9313 91.2353 56.9313C90.0607 56.9313 89.9585 56.2239 90.1526 55.3499C90.459 53.9766 90.7757 52.5929 91.2047 51.2611C91.3068 50.9594 91.8584 50.6057 92.2057 50.6057C96.9451 50.5641 101.684 50.5641 106.424 50.5745C107.21 50.5745 107.731 50.9282 107.895 51.7709C108.14 52.9882 108.354 54.2263 108.712 55.4123C108.988 56.3383 108.702 56.8273 107.833 56.8897C106.557 56.9833 106.342 57.7741 106.352 58.8561C106.373 61.8524 106.352 64.8488 106.352 67.8451C106.352 69.1977 106.659 69.5306 108.028 69.5514C109.784 69.5826 111.541 69.5618 113.298 69.5618C118.324 69.5618 123.349 69.5618 128.374 69.5618C129.192 69.5618 129.927 69.4265 129.937 68.4278C129.968 64.9736 129.958 61.5195 129.937 58.0654C129.937 57.2851 129.498 56.8377 128.66 56.9105C128.252 56.9417 127.833 56.8897 127.435 56.9521C126.454 57.1082 125.872 56.64 125.586 55.7349C125.208 54.5488 124.861 53.3628 124.483 52.1871C123.635 49.5549 122.746 46.9227 121.909 44.28C121 41.3981 120.131 38.5058 119.222 35.6135C118.038 31.816 116.832 28.0186 115.637 24.2211C114.84 21.6929 114.125 19.1335 113.267 16.6262C112.655 14.8263 112.614 14.7847 114.371 14.7951C116.25 14.7951 116.536 14.5038 116.536 12.5166C116.536 9.72832 116.536 6.94005 116.536 4.15177C116.536 2.36228 116.322 2.10218 114.595 2.10218C109.652 2.10218 104.708 2.10218 99.7642 2.10218V2.12299Z" fill="#475667"/>
<path d="M350.536 161.948C341.874 161.948 333.222 161.948 324.561 161.948C323.131 161.948 322.906 161.751 322.896 160.315C322.886 155.696 322.896 151.076 322.875 146.457C322.875 145.354 323.315 144.928 324.367 145.084C324.612 145.125 324.857 145.104 325.102 145.115C326.89 145.136 327.094 144.948 327.094 143.148C327.094 130.414 327.094 117.69 327.094 104.955C327.094 103.416 326.92 103.249 325.378 103.28C322.487 103.332 322.896 103.322 322.886 100.721C322.865 96.476 322.875 92.2312 322.886 87.9864C322.886 86.3217 323.039 86.2073 324.622 86.2073C333.079 86.2073 341.527 86.2073 349.984 86.2073C351.996 86.2073 352.068 86.2801 352.068 88.2881C352.068 92.8242 352.037 97.3604 352.098 101.897C352.109 102.979 351.7 103.259 350.74 103.291C347.625 103.384 347.625 103.405 347.625 106.61C347.625 118.595 347.625 130.57 347.625 142.555C347.625 144.907 347.849 145.136 350.137 145.136C353.12 145.136 356.102 145.136 359.085 145.136C360.719 145.136 361.077 144.771 361.087 143.076C361.087 142.826 361.067 142.576 361.056 142.327C361.005 141.016 361.261 140.683 362.588 140.683C367.287 140.662 371.986 140.683 376.684 140.662C377.859 140.662 377.869 141.411 377.869 142.254C377.869 147.83 377.869 153.407 377.869 158.973C377.869 161.948 377.869 161.948 374.938 161.948C366.807 161.948 358.687 161.948 350.556 161.948H350.536ZM350.362 160.419C358.37 160.419 366.378 160.419 374.376 160.419C375.826 160.419 376.122 160.159 376.122 158.692C376.143 153.781 376.143 148.871 376.122 143.96C376.122 142.42 375.847 142.191 374.294 142.202C371.597 142.202 368.901 142.202 366.204 142.202C362.691 142.202 362.67 142.202 362.701 145.833C362.701 146.655 362.384 146.977 361.628 146.977C356.725 146.977 351.823 146.956 346.92 146.956C345.939 146.956 345.704 146.488 345.704 145.552C345.725 131.319 345.725 117.097 345.704 102.864C345.704 101.845 346.113 101.532 347.002 101.543C347.737 101.553 348.472 101.543 349.208 101.532C350.045 101.522 350.474 101.127 350.464 100.221C350.434 96.7257 350.433 93.23 350.413 89.7342C350.403 88.1008 350.147 87.8199 348.564 87.8095C341.128 87.7991 333.692 87.7991 326.256 87.8095C324.837 87.8095 324.53 88.1216 324.52 89.5782C324.499 92.6161 324.52 95.6541 324.51 98.6921C324.51 101.553 324.51 101.595 327.39 101.522C328.432 101.491 328.83 101.792 328.83 102.927C328.8 116.701 328.8 130.466 328.8 144.241C328.8 145.878 327.993 146.703 326.379 146.717C326.256 146.717 326.134 146.717 326.011 146.717C324.959 146.727 324.459 147.227 324.479 148.34C324.52 151.711 324.499 155.082 324.52 158.453C324.52 160.128 324.837 160.429 326.45 160.429C334.418 160.429 342.385 160.429 350.352 160.429L350.362 160.419Z" fill="#475667"/>
<path d="M316.569 124.109C316.569 132.349 316.59 140.589 316.538 148.818C316.538 149.484 316.201 150.296 315.752 150.774C312.422 154.26 309.041 157.703 305.609 161.095C305.139 161.563 304.332 161.917 303.679 161.917C293.424 161.969 283.179 161.98 272.924 161.917C272.168 161.917 271.248 161.459 270.687 160.908C267.479 157.766 264.374 154.509 261.208 151.326C260.319 150.431 259.9 149.484 259.911 148.142C259.962 132.078 259.951 116.025 259.911 99.9612C259.911 98.8376 260.227 97.974 261.004 97.1937C264.262 93.9269 267.49 90.6184 270.707 87.3099C271.442 86.5504 272.229 86.1863 273.301 86.1863C283.23 86.2175 293.148 86.2175 303.076 86.1863C304.22 86.1863 305.098 86.488 305.905 87.3307C309.102 90.66 312.34 93.9477 315.599 97.2145C316.304 97.922 316.569 98.6607 316.569 99.6387C316.549 107.795 316.559 115.952 316.559 124.098L316.569 124.109ZM314.853 124.265C314.853 116.358 314.874 108.451 314.822 100.544C314.822 99.8155 314.649 98.8688 314.199 98.3902C311.104 95.1233 307.958 91.9293 304.731 88.7977C304.149 88.2359 303.158 87.8613 302.351 87.8509C292.954 87.7885 283.557 87.7781 274.159 87.8509C273.322 87.8509 272.3 88.3191 271.688 88.9121C268.787 91.7212 266.039 94.6864 263.159 97.5058C262.148 98.4942 261.81 99.5658 261.81 100.939C261.841 116.379 261.841 131.818 261.81 147.258C261.81 148.527 262.178 149.484 263.046 150.358C265.978 153.313 268.838 156.351 271.82 159.254C272.464 159.878 273.516 160.356 274.394 160.367C283.669 160.44 292.944 160.388 302.218 160.44C303.607 160.44 304.618 159.992 305.568 159.004C308.255 156.205 310.961 153.427 313.719 150.712C314.557 149.89 314.884 149.027 314.884 147.851C314.853 139.985 314.863 132.12 314.863 124.255L314.853 124.265Z" fill="#475667"/>
<path d="M195.195 124.089C195.195 116.016 195.215 107.942 195.174 99.8686C195.174 98.6097 195.532 97.6837 196.431 96.7994C199.566 93.699 202.641 90.5362 205.705 87.3734C206.492 86.5619 207.34 86.1873 208.514 86.1873C218.116 86.2393 227.717 86.281 237.308 86.1561C239.167 86.1353 240.434 86.6659 241.68 87.9976C244.591 91.098 247.645 94.0423 250.546 97.1427C251.108 97.7358 251.557 98.7241 251.557 99.5357C251.618 115.974 251.618 132.402 251.557 148.84C251.557 149.621 251.138 150.578 250.597 151.14C247.43 154.49 244.193 157.788 240.904 161.023C240.352 161.564 239.392 161.918 238.616 161.929C228.646 161.991 218.677 161.939 208.718 161.991C207.34 161.991 206.359 161.564 205.399 160.555C202.396 157.382 199.332 154.282 196.226 151.212C195.44 150.432 195.185 149.61 195.185 148.559C195.205 140.403 195.185 132.246 195.195 124.089V124.089ZM196.829 124.089C196.829 131.955 196.839 139.81 196.819 147.675C196.819 148.747 197.095 149.579 197.861 150.338C200.782 153.252 203.662 156.196 206.533 159.161C207.38 160.035 208.31 160.451 209.566 160.451C218.8 160.41 228.023 160.41 237.257 160.451C238.473 160.451 239.371 160.066 240.189 159.223C242.834 156.508 245.439 153.741 248.176 151.129C249.596 149.777 250.158 148.341 250.147 146.323C250.066 131.143 250.127 115.953 250.066 100.774C250.066 99.9102 249.678 98.8386 249.106 98.2144C246.154 95.0619 243.11 91.9823 240.015 88.9652C239.423 88.393 238.483 87.8728 237.696 87.8624C228.177 87.7895 218.667 87.7999 209.147 87.8624C208.463 87.8624 207.605 88.2161 207.115 88.6947C204.071 91.6494 201.15 94.729 198.106 97.6942C197.166 98.6097 196.809 99.5877 196.809 100.888C196.839 108.629 196.829 116.359 196.829 124.1V124.089Z" fill="#475667"/>
<path d="M134.675 123.954C134.675 116.255 134.675 108.556 134.675 100.857C134.675 99.2968 134.338 98.9326 132.837 98.9014C132.469 98.9014 132.101 98.9014 131.733 98.9014C130.671 98.9222 130.181 98.4436 130.212 97.3096C130.263 95.5617 130.212 93.8138 130.232 92.066C130.242 90.5678 130.467 90.3389 132.091 90.3389C136.667 90.3285 141.243 90.3389 145.819 90.3389C147.167 90.3389 148.516 90.3701 149.864 90.3181C150.783 90.2869 151.263 90.6302 151.263 91.5978C151.263 93.637 151.263 95.6762 151.263 97.7153C151.263 98.6101 150.803 98.9326 149.946 98.943C147.014 98.9638 146.994 98.995 147.004 102.002C147.004 106.788 147.014 111.573 147.065 116.359C147.075 117.91 147.29 118.055 148.802 118.055C155.216 118.055 161.631 118.055 168.045 118.055C169.608 118.055 169.812 117.878 169.822 116.266C169.833 111.022 169.833 105.778 169.822 100.535C169.822 99.0575 169.516 98.7974 168.066 98.8806C167.78 98.9014 167.494 98.9118 167.208 98.9222C165.594 98.943 165.349 98.7141 165.338 97.0703C165.338 95.3224 165.349 93.5745 165.338 91.8267C165.328 90.7759 165.808 90.3285 166.83 90.3389C172.877 90.3597 178.923 90.3597 184.97 90.3389C186.135 90.3389 186.696 90.7551 186.645 92.0348C186.574 93.7826 186.584 95.5305 186.645 97.2784C186.686 98.4748 186.155 98.9534 185.042 98.9222C184.96 98.9222 184.878 98.9222 184.797 98.9222C181.375 98.787 181.926 99.432 181.926 101.877C181.926 116.734 181.926 131.591 181.926 146.448C181.926 146.864 181.947 147.28 181.926 147.696C181.896 148.809 182.447 149.278 183.51 149.257C184.163 149.246 184.817 149.257 185.471 149.267C186.257 149.278 186.666 149.621 186.645 150.495C186.615 152.492 186.625 154.49 186.645 156.488C186.645 157.31 186.267 157.726 185.491 157.809C185.123 157.851 184.756 157.861 184.388 157.861C178.668 157.861 172.948 157.861 167.228 157.861C165.665 157.861 165.338 157.528 165.328 155.988C165.328 154.24 165.369 152.492 165.308 150.745C165.267 149.631 165.788 149.246 166.779 149.257C166.983 149.257 167.187 149.257 167.391 149.257C169.005 149.271 169.812 148.438 169.812 146.76C169.812 141.142 169.812 135.524 169.812 129.905C169.812 128.178 169.618 128.001 167.892 128.001C161.559 128.001 155.226 128.001 148.893 128.001C147.28 128.001 147.055 128.157 147.045 129.728C147.014 135.638 147.014 141.547 147.045 147.457C147.045 149.153 147.259 149.278 148.934 149.267C149.302 149.267 149.67 149.267 150.037 149.246C150.906 149.215 151.314 149.621 151.304 150.516C151.284 152.472 151.294 154.428 151.304 156.384C151.304 157.403 150.895 157.882 149.823 157.882C143.98 157.851 138.138 157.871 132.295 157.861C130.467 157.861 130.252 157.611 130.263 155.78C130.263 154.074 130.303 152.368 130.242 150.661C130.212 149.694 130.589 149.319 131.509 149.257C134.716 149.028 134.716 149.007 134.716 145.699C134.716 138.457 134.716 131.216 134.716 123.975L134.675 123.954Z" fill="#475667"/>
<path d="M200.087 35.9772C200.087 28.8608 200.087 21.7445 200.087 14.6281C200.087 12.8699 199.771 12.5473 197.993 12.5473C196.104 12.5473 195.971 12.4121 195.961 10.5082C195.961 9.05159 195.991 7.59503 195.94 6.13847C195.899 5.12928 196.328 4.65069 197.289 4.65069C203.009 4.65069 208.729 4.65069 214.449 4.64029C215.215 4.64029 215.582 4.99402 215.582 5.77432C215.582 7.64705 215.562 9.51977 215.552 11.3925C215.552 12.2144 215.174 12.6202 214.336 12.5577C210.894 12.308 211.364 12.9323 211.354 15.7518C211.333 21.7029 211.354 27.654 211.354 33.6051C211.354 33.8964 211.303 34.2085 211.394 34.4686C211.497 34.7599 211.68 35.1345 211.915 35.2073C212.14 35.2801 212.528 35.072 212.733 34.8744C217.778 29.7244 222.804 24.5536 227.839 19.3932C229.566 17.6245 231.343 15.9078 233.059 14.1287C233.314 13.8686 233.559 13.3693 233.467 13.0779C233.386 12.8178 232.855 12.5786 232.507 12.5681C231.2 12.5057 229.892 12.5161 228.585 12.5473C227.645 12.5681 227.257 12.1312 227.267 11.1948C227.288 9.44694 227.298 7.69907 227.247 5.95119C227.227 5.02524 227.645 4.6611 228.483 4.6611C229.586 4.6611 230.689 4.6611 231.792 4.6611C238.125 4.6611 244.458 4.6819 250.791 4.62988C251.986 4.62988 252.394 5.03564 252.343 6.2321C252.272 7.85513 252.303 9.47815 252.323 11.1012C252.333 12.1208 251.986 12.7346 250.883 12.5473C249.003 12.2352 247.676 13.0467 246.368 14.3993C239.811 21.1931 233.161 27.8933 226.542 34.6351C225.378 35.8211 225.408 36.1228 226.614 37.3401C233.386 44.2172 240.158 51.0838 246.889 57.9921C247.982 59.1157 249.095 59.7087 250.668 59.5527C252.088 59.4174 252.313 59.7191 252.323 61.1445C252.323 62.7259 252.323 64.3073 252.323 65.8887C252.323 66.8667 251.955 67.3037 250.924 67.3037C243.61 67.2725 236.297 67.2933 228.983 67.2829C227.41 67.2829 227.247 67.0852 227.247 65.4726C227.247 63.9744 227.267 62.4762 227.227 60.978C227.206 59.9688 227.635 59.5215 228.605 59.5319C229.872 59.5527 231.139 59.5735 232.405 59.5319C232.855 59.5215 233.294 59.3342 233.743 59.2197C233.539 58.6995 233.457 58.0753 233.11 57.6904C231.976 56.4419 230.73 55.2974 229.545 54.0906C226.287 50.7717 223.028 47.4424 219.78 44.1131C218.718 43.0207 218.197 43.0207 217.186 44.1235C215.572 45.8922 213.968 47.6609 212.314 49.3776C211.619 50.1058 211.251 50.8757 211.282 51.9265C211.343 53.8825 211.282 55.8384 211.323 57.7944C211.354 59.251 211.66 59.5319 213.08 59.5319C213.366 59.5319 213.652 59.5527 213.938 59.5111C215.123 59.355 215.572 59.9168 215.531 61.0821C215.49 62.6635 215.501 64.2449 215.531 65.8263C215.552 66.8667 215.133 67.2933 214.06 67.2933C208.586 67.2516 203.111 67.2725 197.636 67.2725C196.185 67.2725 195.899 66.9915 195.899 65.535C195.899 64.0784 195.899 62.6219 195.899 61.1653C195.899 59.8648 196.226 59.5319 197.472 59.5111C199.781 59.4798 200.026 59.2093 200.026 56.806C200.026 49.8561 200.026 42.9063 200.026 35.9564L200.087 35.9772Z" fill="#475667"/>
<path d="M53.1928 36.0299C53.1928 43.1046 53.1928 50.1794 53.1928 57.2437C53.1928 59.2725 53.4584 59.543 55.4604 59.5326C57.1662 59.5326 57.2785 59.6574 57.2479 61.3533C57.2275 62.8098 57.207 64.2664 57.2683 65.723C57.3092 66.8258 56.9517 67.3148 55.7975 67.3044C50.2818 67.2628 44.7661 67.2836 39.2504 67.2836C37.9021 67.2836 37.6059 66.9715 37.5957 65.5877C37.5957 64.0895 37.6161 62.5914 37.5854 61.0932C37.565 59.9904 38.0553 59.5222 39.138 59.5118C41.5792 59.5014 41.7426 59.2933 41.7426 56.7755C41.7426 51.74 41.7426 46.7044 41.7426 41.6689C41.7426 39.9418 41.4362 39.5777 39.7917 39.5777C33.99 39.5777 28.1883 39.5777 22.3866 39.5777C20.7421 39.5777 20.4357 39.9106 20.4357 41.544C20.4357 46.7044 20.4357 51.8648 20.4357 57.0252C20.4357 59.2725 20.7115 59.543 22.8973 59.5326C24.3273 59.5326 24.5418 59.7303 24.552 61.1556C24.552 62.737 24.552 64.3184 24.552 65.8998C24.552 66.8778 24.1639 67.3044 23.1425 67.3044C17.6268 67.2732 12.1111 67.2732 6.59536 67.3044C5.57394 67.3044 5.1858 66.8778 5.1858 65.8998C5.19601 64.2352 5.1858 62.5706 5.1858 60.9059C5.1858 59.9279 5.59437 59.4285 6.60558 59.5222C7.01415 59.5638 7.42272 59.5222 7.83129 59.5222C8.71993 59.5222 9.18979 59.0332 9.28172 58.1593C9.32257 57.7847 9.31236 57.4102 9.31236 57.0356C9.31236 42.9278 9.31236 28.8303 9.31236 14.7225C9.31236 12.777 9.09786 12.5585 7.22865 12.5377C5.23687 12.5273 5.19601 12.4752 5.19601 10.4256C5.19601 8.96908 5.22665 7.51252 5.17558 6.05596C5.14494 5.05718 5.51265 4.62021 6.53408 4.62021C12.1315 4.64101 17.7289 4.63061 23.3263 4.62021C24.123 4.62021 24.5623 4.91152 24.552 5.77505C24.5316 7.60616 24.5214 9.43726 24.5316 11.2684C24.5316 12.2255 24.1128 12.6521 23.1731 12.5377C23.0505 12.5273 22.928 12.5377 22.8054 12.5377C20.5583 12.5377 20.4255 12.6729 20.4255 14.9098C20.4255 19.2378 20.4255 23.5659 20.4255 27.894C20.4255 29.7147 20.7115 30.0268 22.4683 30.0268C28.1883 30.0372 33.9083 30.0372 39.6283 30.0268C41.3443 30.0268 41.7324 29.6106 41.7324 27.9044C41.7324 23.4515 41.7324 18.9986 41.7324 14.5456C41.7324 12.881 41.426 12.5481 39.8326 12.5273C37.6161 12.4856 37.5854 12.4544 37.5854 10.2072C37.5854 9.0003 37.5854 7.79343 37.5854 6.58657C37.5854 4.81788 37.7489 4.63061 39.4444 4.63061C44.3881 4.63061 49.3318 4.63061 54.2755 4.63061C54.9293 4.63061 55.6238 4.48495 56.2265 4.66182C56.6453 4.78667 57.2173 5.32768 57.2275 5.71263C57.3092 7.53333 57.2173 9.37484 57.2173 11.1955C57.2173 12.2151 56.778 12.6521 55.7873 12.5273C55.5013 12.496 55.2153 12.5169 54.9293 12.5273C53.4482 12.5689 53.1826 12.8602 53.1826 14.4104C53.1826 21.61 53.1826 28.8095 53.1826 35.9987L53.1928 36.0299Z" fill="#475667"/>
<path d="M29.1398 157.849C24.7273 157.849 20.3147 157.891 15.9022 157.808C15.1259 157.797 14.1964 157.402 13.6346 156.871C10.9993 154.322 8.42532 151.711 5.93304 149.016C5.4019 148.444 5.06483 147.518 5.00354 146.717C4.87075 144.896 4.98311 143.055 4.95247 141.224C4.93204 140.121 5.4019 139.622 6.49482 139.632C9.47739 139.653 12.46 139.632 15.4425 139.653C16.8623 139.653 17.1789 139.944 17.0257 141.338C16.7806 143.492 17.5569 145.011 19.0277 146.623C20.9071 148.694 22.8683 149.474 25.5751 149.287C28.67 149.068 31.7853 149.297 34.8803 149.193C35.6463 149.172 36.5248 148.767 37.1376 148.257C38.302 147.289 39.3745 146.176 40.3755 145.032C40.7637 144.584 41.0599 143.877 41.0701 143.273C41.1416 140.402 41.1416 137.53 41.0701 134.659C41.0599 134.066 40.7432 133.369 40.3449 132.911C39.2315 131.642 38.0773 130.383 36.8005 129.29C36.1979 128.781 35.2888 128.416 34.5125 128.406C28.3431 128.344 22.1737 128.364 16.0043 128.396C14.9931 128.396 14.2372 128.115 13.512 127.355C11.0095 124.744 8.39467 122.226 5.91261 119.583C5.4019 119.042 5.02397 118.137 5.01375 117.399C4.93204 112.113 4.92183 106.828 5.01375 101.553C5.02397 100.742 5.4734 99.7638 6.02497 99.1603C8.3436 96.6426 10.8052 94.2704 13.1749 91.7943C14.1657 90.7539 15.228 90.2649 16.7295 90.2753C25.1052 90.3481 33.4809 90.3377 41.8464 90.2753C43.021 90.2753 43.8892 90.6394 44.6655 91.4406C47.3008 94.2184 49.9565 96.9755 52.5509 99.7846C52.9289 100.19 53.1638 100.887 53.1842 101.47C53.2557 103.468 53.2046 105.465 53.2149 107.463C53.2251 108.524 52.7552 108.93 51.7134 108.909C48.6082 108.867 45.5031 108.867 42.398 108.909C41.397 108.919 40.9577 108.42 41.111 107.556C41.6319 104.695 40.2223 102.885 38.3327 101.012C36.7393 99.4412 35.2173 98.6609 32.96 98.817C29.7016 99.0355 26.4228 98.817 23.1645 98.921C22.3984 98.9418 21.6324 99.4829 20.8969 99.8366C20.6211 99.9718 20.4577 100.336 20.1921 100.513C17.3934 102.469 16.5354 105.215 17.0155 108.524C17.087 109.013 17.0155 109.523 17.0155 110.022C17.0155 115.765 17.0666 115.932 21.4894 119.563C21.9694 119.958 22.7559 120.093 23.4096 120.104C29.7016 120.145 35.9936 120.093 42.2754 120.166C43.0415 120.166 43.971 120.551 44.5225 121.082C47.1578 123.631 49.6705 126.304 52.2649 128.905C52.9697 129.602 53.2149 130.362 53.2046 131.34C53.174 136.459 53.2251 141.577 53.1536 146.696C53.1434 147.435 52.7961 148.351 52.2956 148.881C49.8237 151.534 47.2395 154.083 44.7166 156.684C43.9607 157.464 43.1232 157.839 41.9996 157.829C37.7096 157.777 33.4196 157.808 29.1296 157.808L29.1398 157.849Z" fill="#475667"/>
<path d="M271.197 35.956C271.197 28.8396 271.197 21.7233 271.197 14.6069C271.197 12.7654 270.962 12.5469 269.133 12.5469C267.223 12.5469 267.101 12.4221 267.091 10.5286C267.091 9.03039 267.121 7.53221 267.07 6.03403C267.04 5.05605 267.458 4.6607 268.367 4.6607C268.613 4.6607 268.858 4.6607 269.103 4.6607C282.422 4.6607 295.731 4.6607 309.051 4.63989C310.042 4.63989 310.471 4.9312 310.45 5.98201C310.409 8.60382 310.409 11.2256 310.45 13.8474C310.46 14.9711 310.062 15.408 308.918 15.3456C307.243 15.2624 305.568 15.2936 303.893 15.3456C302.994 15.3768 302.555 14.9919 302.595 14.1284C302.667 12.8174 302.003 12.5365 300.849 12.5365C295.415 12.5782 289.981 12.5573 284.547 12.5573C282.902 12.5573 282.626 12.8383 282.626 14.5133C282.626 19.7153 282.626 24.9173 282.626 30.1193C282.626 31.6383 282.841 31.8672 284.312 31.8776C286.763 31.8776 289.215 31.8568 291.666 31.8776C292.769 31.888 293.382 31.5239 293.29 30.2858C293.208 29.2766 293.678 28.902 294.7 28.9749C296.283 29.0789 297.887 29.0581 299.48 29.0165C300.563 28.9957 301.043 29.4118 301.033 30.5459C301.002 34.1249 301.002 37.7038 301.033 41.2828C301.033 42.3752 300.542 42.7706 299.541 42.7602C297.907 42.7394 296.273 42.729 294.638 42.7706C293.689 42.8018 293.239 42.4065 293.3 41.4597C293.382 40.2528 292.79 39.8263 291.687 39.8367C289.153 39.8575 286.62 39.8367 284.087 39.8367C283.076 39.8367 282.616 40.284 282.626 41.3556C282.657 46.8074 282.626 52.2591 282.647 57.7108C282.647 59.2297 283.015 59.5627 284.445 59.5731C289.919 59.5731 295.394 59.5523 300.869 59.5939C302.064 59.5939 302.657 59.1881 302.585 57.9396C302.524 56.9617 302.973 56.66 303.933 56.7016C305.69 56.7848 307.447 56.7848 309.194 56.7016C310.123 56.66 310.46 56.9825 310.45 57.8876C310.43 60.5927 310.44 63.2977 310.45 66.0028C310.45 66.9079 310.133 67.3449 309.143 67.3345C295.742 67.3033 282.351 67.3137 268.95 67.3137C267.295 67.3137 267.091 67.0952 267.101 65.4617C267.101 64.0052 267.131 62.5486 267.091 61.0921C267.06 60.0413 267.489 59.5315 268.531 59.5627C268.776 59.5627 269.021 59.5627 269.266 59.5627C270.839 59.5627 271.197 59.2193 271.207 57.5755C271.227 54.8705 271.207 52.1654 271.207 49.4604C271.207 44.9658 271.207 40.4713 271.207 35.9768L271.197 35.956Z" fill="#475667"/>
<path d="M80.9785 124.029C80.9785 130.105 80.9887 136.181 80.9683 142.257C80.9683 143.661 81.3054 144.774 82.3677 145.804C86.6474 149.976 84.717 149.165 90.5084 149.248C93.2459 149.279 95.9833 149.248 98.7207 149.258C98.8841 149.258 99.0476 149.258 99.211 149.258C101.233 149.165 105.421 144.483 105.35 142.433C105.309 141.31 105.319 140.186 105.288 139.062C105.268 138.178 105.646 137.772 106.535 137.772C109.803 137.793 113.072 137.783 116.34 137.772C117.157 137.772 117.525 138.157 117.525 138.99C117.515 141.695 117.566 144.4 117.484 147.105C117.464 147.698 117.147 148.416 116.739 148.853C114.195 151.547 111.611 154.221 108.955 156.791C108.373 157.363 107.393 157.8 106.596 157.811C97.7708 157.883 88.9457 157.883 80.1205 157.821C79.3953 157.821 78.5067 157.405 77.9653 156.885C75.279 154.273 72.6846 151.558 70.0493 148.894C69.2526 148.093 68.9053 147.209 68.9053 146.023C68.9461 131.291 68.9053 116.559 68.9666 101.837C68.9666 101.025 69.3853 100.027 69.9369 99.4336C72.4598 96.7181 75.0645 94.0547 77.7406 91.4953C78.3841 90.8815 79.4362 90.4029 80.3146 90.3925C88.772 90.3093 97.2294 90.3613 105.687 90.3301C107.004 90.3301 108.026 90.7046 108.945 91.6826C111.448 94.3148 114.032 96.8534 116.514 99.5064C116.994 100.016 117.331 100.869 117.362 101.577C117.464 104.24 117.392 106.904 117.413 109.567C117.413 110.587 117.106 111.065 115.983 111.034C112.959 110.961 109.936 110.972 106.913 111.034C105.738 111.055 105.258 110.597 105.288 109.432C105.329 107.975 105.391 106.519 105.309 105.062C105.278 104.459 105.043 103.762 104.655 103.314C103.562 102.024 102.408 100.776 101.141 99.6625C100.61 99.1943 99.7523 98.9134 99.0476 98.903C95.0844 98.8302 91.1213 98.8406 87.1684 98.903C86.5249 98.903 85.8814 99.2983 85.2481 99.5376C85.1051 99.5896 85.0132 99.7561 84.8906 99.8706C82.2826 102.444 80.9785 105.593 80.9785 109.317C80.9785 114.228 80.9785 119.139 80.9785 124.049V124.029Z" fill="#475667"/>
<path d="M139.048 35.8134C139.048 28.9052 139.068 21.9969 139.027 15.099C139.027 14.0274 139.313 13.2263 140.089 12.4668C142.418 10.1883 144.635 7.80582 146.984 5.54815C147.485 5.06957 148.322 4.70542 149.006 4.69502C157.341 4.643 165.676 4.643 174.001 4.69502C174.654 4.69502 175.451 5.04876 175.921 5.50653C178.372 7.88905 180.773 10.334 183.112 12.831C183.541 13.2783 183.837 14.0482 183.857 14.6725C183.949 17.1694 183.888 19.6664 183.909 22.1634C183.919 23.2142 183.52 23.6407 182.438 23.6199C179.7 23.5575 176.963 23.5575 174.225 23.6199C173.081 23.6407 172.663 23.1517 172.693 22.0697C172.714 21.0293 172.622 19.9785 172.744 18.9485C172.877 17.8873 172.54 17.0966 171.825 16.3891C170.773 15.3383 169.792 14.2251 168.689 13.2367C168.271 12.8622 167.607 12.5917 167.055 12.5917C163.214 12.5396 159.374 12.5396 155.533 12.5813C153.919 12.6021 150.15 16.67 150.161 18.2931C150.181 23.7864 150.222 29.2797 150.222 34.7626C150.222 41.005 150.212 47.2474 150.181 53.4794C150.181 54.4886 150.447 55.2897 151.182 56.0388C154.573 59.5242 154.553 59.545 159.313 59.545C161.682 59.545 164.052 59.6386 166.422 59.5033C167.28 59.4513 168.209 59.0144 168.914 58.4838C169.956 57.6931 170.936 56.7671 171.713 55.7163C172.254 54.9776 172.581 53.9788 172.724 53.0529C172.877 51.9604 172.744 50.816 172.704 49.6924C172.673 48.8288 173.071 48.5063 173.888 48.5063C176.912 48.5271 179.935 48.5063 182.959 48.5167C183.653 48.5167 184.266 48.6312 184.256 49.5987C184.215 52.0125 184.276 54.4262 184.143 56.8295C184.103 57.5786 183.725 58.4525 183.214 59.004C180.885 61.5113 178.485 63.9563 176.023 66.3284C175.492 66.8382 174.614 67.2439 173.888 67.2439C165.676 67.3064 157.464 67.3064 149.262 67.2439C148.567 67.2439 147.73 66.8486 147.219 66.3596C144.788 64.0083 142.48 61.5321 140.069 59.1704C139.293 58.4005 139.037 57.589 139.037 56.5174C139.068 49.6091 139.058 42.7009 139.058 35.803L139.048 35.8134Z" fill="#475667"/>
<path d="M328.027 35.9041C328.027 28.7877 328.027 21.6714 328.027 14.5654C328.027 12.8176 327.772 12.5679 326.025 12.5471C323.921 12.5263 323.911 12.5055 323.911 10.4038C323.911 9.03051 323.911 7.65718 323.911 6.28385C323.911 4.79608 324.054 4.65042 325.535 4.65042C336.199 4.65042 346.852 4.75446 357.516 4.588C360.243 4.54638 362.255 5.21224 363.992 7.35547C365.493 9.20738 367.281 10.82 368.956 12.5367C369.875 13.4834 370.151 14.5967 370.12 15.9388C370.028 19.5594 370.12 23.18 370.038 26.7902C370.018 27.508 369.763 28.3716 369.303 28.9022C367.955 30.4628 366.474 31.8881 365.023 33.3447C364.135 34.229 364.114 34.8429 365.003 35.748C366.361 37.1318 367.71 38.5259 369.099 39.868C369.875 40.6171 370.141 41.4806 370.13 42.5418C370.079 47.5358 370.049 52.5193 370.049 57.5132C370.049 59.053 370.559 59.5004 372.061 59.5316C374.083 59.5732 374.175 59.6773 374.165 61.7581C374.165 63.0482 374.134 64.3383 374.175 65.6284C374.206 66.7832 373.746 67.293 372.582 67.293C368.333 67.2826 364.083 67.3346 359.845 67.293C359.508 67.293 359.027 66.8456 358.874 66.5023C358.701 66.0757 358.793 65.5243 358.793 65.0249C358.793 58.2415 358.772 51.4581 358.803 44.6851C358.803 43.6551 358.496 42.8748 357.781 42.1361C354.554 38.7964 354.574 38.786 349.988 38.786C346.964 38.786 343.941 38.786 340.918 38.7964C339.334 38.8068 339.14 39.0357 339.14 40.5963C339.14 46.048 339.14 51.4997 339.14 56.941C339.14 59.2923 339.375 59.5836 341.643 59.5004C342.817 59.4588 343.287 59.8957 343.257 61.0714C343.216 62.6528 343.236 64.2342 343.257 65.8156C343.267 66.8456 342.879 67.3034 341.796 67.293C336.321 67.2514 330.846 67.2514 325.382 67.293C324.319 67.293 323.88 66.8976 323.901 65.8364C323.921 64.2134 323.921 62.5904 323.901 60.9674C323.89 59.9374 324.268 59.4692 325.361 59.49C327.894 59.542 328.037 59.3547 328.027 56.7329C328.027 49.783 328.027 42.8332 328.027 35.8937V35.9041ZM339.14 21.765C339.14 24.1371 339.14 26.5093 339.14 28.8814C339.14 30.5876 339.324 30.8061 341.05 30.8165C343.747 30.8269 346.443 30.8165 349.14 30.8165C352.654 30.8165 355.619 29.516 358.037 26.915C358.037 26.915 358.108 26.863 358.118 26.8214C358.343 26.3116 358.731 25.8018 358.752 25.2816C358.813 22.7846 358.793 20.2877 358.752 17.7907C358.752 17.3537 358.66 16.8023 358.394 16.511C357.291 15.2937 356.137 14.1077 354.911 13.0048C354.564 12.6823 353.931 12.5575 353.43 12.5575C349.222 12.5263 345.013 12.5367 340.805 12.5575C339.457 12.5575 339.14 12.9112 339.14 14.2741C339.13 16.7711 339.14 19.2681 339.14 21.765V21.765Z" fill="#475667"/>
<path d="M99.6722 4.65205C104.085 4.65205 108.497 4.68326 112.91 4.63124C113.993 4.62084 114.371 4.99539 114.34 6.0774C114.279 7.78366 114.299 9.48992 114.319 11.1962C114.33 12.1742 114.003 12.6735 112.951 12.5695C112.185 12.4967 111.398 12.5279 110.632 12.6111C109.948 12.684 109.59 13.1105 109.835 13.8284C110.887 17.0016 111.98 20.1644 113.022 23.3481C113.85 25.897 114.595 28.4876 115.423 31.0366C116.25 33.5856 117.159 36.1138 118.007 38.6628C118.834 41.1701 119.631 43.6879 120.438 46.2057C121.347 49.0356 122.246 51.8655 123.175 54.6954C123.574 55.9126 124.043 57.0987 124.432 58.316C124.728 59.2731 125.31 59.6685 126.27 59.5228C127.23 59.3876 127.618 59.8662 127.618 60.8025C127.618 62.5504 127.618 64.2983 127.618 66.0461C127.618 66.9201 127.251 67.305 126.352 67.2946C121.04 67.2634 115.729 67.2946 110.418 67.2738C109.018 67.2738 108.763 66.9929 108.753 65.5884C108.753 64.0902 108.773 62.592 108.742 61.0938C108.712 59.9806 109.202 59.4708 110.285 59.5228C110.571 59.5332 110.857 59.5332 111.143 59.5124C112.154 59.4084 112.491 58.857 112.174 57.8894C111.245 55.0699 110.305 52.2504 109.437 49.3997C109.151 48.4529 108.518 48.172 107.701 48.1512C106.189 48.1096 104.677 48.12 103.166 48.12C99.3249 48.12 95.4844 48.1512 91.6438 48.0992C90.5611 48.0888 89.8972 48.3489 89.5397 49.4934C88.7123 52.136 87.7318 54.737 86.8738 57.3692C86.363 58.9402 86.8125 59.5644 88.4468 59.502C89.5703 59.4604 90.0095 59.939 89.9891 61.0418C89.9585 62.6232 89.9687 64.2046 89.9891 65.786C89.9993 66.8056 89.6214 67.2946 88.5387 67.2946C83.3498 67.2634 78.161 67.2634 72.9721 67.2946C71.8179 67.2946 71.3379 66.816 71.3583 65.6508C71.3991 64.111 71.3787 62.5712 71.3583 61.0314C71.3583 60.0742 71.7362 59.5436 72.727 59.5228C73.9834 59.502 74.5247 58.7945 74.8822 57.5773C75.6687 54.8826 76.6493 52.2504 77.5481 49.587C77.9465 48.4113 78.3346 47.2357 78.7023 46.0496C79.8259 42.4186 80.9086 38.7564 82.0731 35.1358C83.2375 31.5152 84.5041 27.9258 85.7093 24.3156C86.8227 20.976 87.9258 17.6363 89.0085 14.2966C89.4069 13.0793 89.029 12.5695 87.7828 12.5279C85.9579 12.4724 85.0454 11.491 85.0454 9.58356C85.0454 8.41831 85.0863 7.25306 85.025 6.08781C84.9739 5.0266 85.3212 4.60003 86.4243 4.62084C90.8369 4.67286 95.2495 4.64165 99.662 4.64165L99.6722 4.65205ZM99.2739 42.5331C101.194 42.5331 103.104 42.5539 105.025 42.5331C106.465 42.5227 106.822 42.0961 106.475 40.7124C106.23 39.7552 105.821 38.85 105.515 37.9033C104.698 35.3127 103.901 32.7013 103.084 30.1107C102.165 27.1663 101.235 24.222 100.285 21.2881C100.183 20.9759 99.8969 20.7263 99.6927 20.4557C99.4577 20.6638 99.1207 20.8199 99.0185 21.08C98.5487 22.2244 98.1197 23.3897 97.7315 24.5549C96.4241 28.5189 95.1371 32.4828 93.8297 36.4467C93.3802 37.82 92.9717 39.2142 92.4099 40.5459C91.7868 42.0129 92.0422 42.5123 93.6458 42.5227C95.5252 42.5331 97.3945 42.5227 99.2739 42.5227V42.5331Z" fill="#475667"/>
<path d="M331.21 123.956C331.21 116.34 331.21 108.724 331.21 101.109C331.21 98.9134 331.128 98.8301 329.024 98.903C327.134 98.9654 327.012 98.8509 327.012 96.9054C327.012 95.1991 327.032 93.4929 327.012 91.7866C327.002 90.767 327.328 90.2988 328.442 90.3093C334.244 90.3613 340.045 90.3301 345.847 90.3405C347.88 90.3405 347.982 90.4549 347.971 92.5357C347.971 94.1587 347.941 95.7818 347.971 97.4048C347.992 98.3932 347.594 98.8197 346.623 98.903C343.508 99.1735 343.508 99.2047 343.508 102.451C343.508 117.224 343.508 131.988 343.508 146.761C343.508 149.05 343.712 149.258 345.949 149.258C351.71 149.258 357.471 149.258 363.232 149.258C364.907 149.258 365.121 149.04 365.142 147.302C365.142 146.886 365.142 146.47 365.142 146.054C365.142 145.294 365.54 144.868 366.265 144.847C368.512 144.805 370.749 144.764 372.996 144.826C373.272 144.826 373.742 145.503 373.752 145.877C373.814 149.498 373.803 153.118 373.783 156.739C373.783 157.561 373.333 157.873 372.516 157.873C357.808 157.852 343.109 157.852 328.401 157.873C327.318 157.873 326.961 157.353 326.971 156.333C326.991 154.377 326.991 152.421 326.951 150.465C326.93 149.602 327.298 149.238 328.105 149.238C328.146 149.238 328.186 149.238 328.227 149.238C331.435 149.446 331.21 149.206 331.21 146.054C331.21 138.688 331.21 131.322 331.21 123.956V123.956Z" fill="#475667"/>
<path d="M264.366 124.008C264.366 116.6 264.387 109.193 264.346 101.785C264.346 100.578 264.673 99.6521 265.541 98.799C268.013 96.3749 270.423 93.8883 272.834 91.3913C273.569 90.6214 274.397 90.2989 275.449 90.3093C284.07 90.3405 292.691 90.3405 301.301 90.3093C302.414 90.3093 303.272 90.6318 304.028 91.4017C306.684 94.1068 309.381 96.7806 311.955 99.5585C312.404 100.047 312.567 100.984 312.567 101.723C312.608 112.002 312.588 122.281 312.588 132.55C312.588 137.169 312.567 141.788 312.608 146.408C312.608 147.355 312.363 148.062 311.689 148.728C309.033 151.381 306.459 154.117 303.763 156.718C303.15 157.311 302.139 157.79 301.311 157.8C292.568 157.883 283.825 157.873 275.091 157.821C274.407 157.821 273.569 157.384 273.059 156.885C270.403 154.294 267.798 151.662 265.275 148.936C264.755 148.374 264.407 147.396 264.397 146.605C264.336 139.073 264.356 131.54 264.356 124.018L264.366 124.008ZM276.501 123.987C276.501 130.23 276.48 136.472 276.521 142.714C276.521 143.505 276.644 144.462 277.083 145.034C278.074 146.293 279.249 147.417 280.454 148.468C280.965 148.905 281.741 149.206 282.405 149.227C285.265 149.31 288.145 149.009 290.975 149.321C294.447 149.695 297.021 148.603 299.156 145.836C299.932 144.826 300.423 143.942 300.423 142.631C300.382 131.603 300.218 120.575 300.494 109.557C300.596 105.478 299.851 102.232 296.48 99.9122C295.775 99.4336 294.917 98.9447 294.11 98.9134C291.261 98.8094 288.37 99.1631 285.541 98.851C282.139 98.4765 279.647 99.5793 277.594 102.253C276.899 103.158 276.47 103.991 276.48 105.156C276.521 111.44 276.501 117.724 276.491 124.008L276.501 123.987Z" fill="#475667"/>
<path d="M199.318 124.131C199.318 116.64 199.318 109.16 199.308 101.669C199.308 100.66 199.553 99.8692 200.309 99.1305C202.832 96.6439 205.294 94.095 207.755 91.546C208.572 90.7033 209.451 90.3079 210.677 90.3183C219.297 90.3703 227.908 90.3183 236.529 90.3807C237.254 90.3807 238.143 90.7657 238.674 91.2755C241.452 93.9701 244.159 96.748 246.825 99.5571C247.254 100.015 247.54 100.816 247.54 101.461C247.55 110.034 247.479 118.596 247.479 127.169C247.479 133.786 247.56 140.393 247.53 147.01C247.53 147.676 247.121 148.477 246.651 148.966C244.108 151.66 241.524 154.324 238.858 156.894C238.296 157.435 237.346 157.809 236.58 157.82C227.877 157.882 219.185 157.84 210.483 157.872C209.318 157.872 208.47 157.455 207.684 156.633C205.232 154.074 202.709 151.598 200.289 148.997C199.788 148.456 199.38 147.572 199.369 146.843C199.308 139.269 199.329 131.705 199.329 124.131H199.318ZM211.361 124.163C211.361 130.53 211.351 136.897 211.381 143.254C211.381 143.868 211.555 144.617 211.933 145.064C212.975 146.292 214.109 147.436 215.314 148.498C215.784 148.914 216.529 149.205 217.152 149.226C220.176 149.299 223.22 149.018 226.212 149.319C229.553 149.652 231.994 148.591 234.088 145.99C234.976 144.877 235.456 143.868 235.446 142.442C235.405 130.499 235.395 118.565 235.446 106.621C235.456 104.665 235.191 103.042 233.536 101.825C232.78 101.274 232.259 100.389 231.503 99.8588C230.84 99.401 230.002 98.9745 229.226 98.964C225.426 98.8704 221.626 98.9432 217.827 98.9016C216.642 98.8912 215.712 99.2033 214.926 100.15C214.109 101.128 213.189 102.033 212.25 102.897C211.545 103.542 211.32 104.27 211.33 105.206C211.361 111.532 211.341 117.858 211.351 124.173L211.361 124.163Z" fill="#475667"/>
<path d="M341.416 21.7149C341.416 19.8838 341.426 18.0527 341.416 16.232C341.406 15.1708 341.681 14.7026 342.907 14.7546C345.798 14.8899 348.699 14.8379 351.599 14.7858C352.662 14.765 353.499 15.0876 354.214 15.8783C354.684 16.3985 355.287 16.8146 355.654 17.4076C356.063 18.0735 356.339 18.8538 356.533 19.6133C356.666 20.1231 356.553 20.6849 356.553 21.2259C356.553 25.2003 356.564 25.2211 353.561 27.8429C353.172 28.1758 352.539 28.3631 352.018 28.3735C348.842 28.4359 345.655 28.4151 342.468 28.4567C341.651 28.4567 341.395 28.1238 341.406 27.3331C341.436 25.4604 341.416 23.598 341.416 21.7253V21.7149ZM348.096 26.6464C349.281 26.6464 350.466 26.6568 351.64 26.6464C353.275 26.6152 354.868 25.0858 354.939 23.4316C354.991 22.2767 354.991 21.1011 354.919 19.9462C354.796 17.9174 353.132 16.3568 351.119 16.3464C348.995 16.3464 346.88 16.3881 344.756 16.3256C343.581 16.284 343.122 16.7834 343.132 17.9278C343.152 20.3832 343.152 22.8281 343.132 25.2835C343.122 26.3135 343.571 26.6984 344.541 26.6672C345.726 26.6256 346.911 26.6672 348.086 26.6672L348.096 26.6464Z" fill="#475667"/>
<path d="M99.7717 27.2269C100.099 28.3609 100.425 29.495 100.762 30.629C101.529 33.1988 102.335 35.7686 103.071 38.3488C103.51 39.9094 103.183 40.2839 101.58 40.2839C99.9045 40.2839 98.2396 40.2943 96.5644 40.2839C95.4919 40.2735 95.3081 39.8886 95.6554 38.8794C96.2376 37.1627 96.7176 35.4148 97.259 33.6878C97.9434 31.5029 98.6481 29.3285 99.3427 27.1541C99.4857 27.1749 99.6287 27.2061 99.7819 27.2269H99.7717ZM99.4959 38.7545C101.273 38.7961 101.661 38.2447 101.12 36.4969C100.844 35.5917 100.579 34.6866 100.272 33.7918C100.16 33.4693 99.9147 33.1988 99.7411 32.8971C99.4551 33.1468 99.0363 33.334 98.9035 33.6462C98.5154 34.5513 98.2089 35.4981 97.9331 36.4448C97.3407 38.4008 97.5654 38.7025 99.5061 38.7545H99.4959Z" fill="#475667"/>
<path d="M297.922 124.078C297.922 129.904 297.892 135.72 297.943 141.546C297.953 142.774 297.514 143.627 296.768 144.532C295.215 146.436 293.408 147.248 290.915 147.008C288.443 146.769 285.941 146.998 283.449 146.935C282.897 146.925 282.356 146.53 281.814 146.311C281.784 146.301 281.763 146.249 281.722 146.228C279.363 144.428 278.566 142.17 278.628 139.049C278.842 128.239 278.668 117.43 278.709 106.609C278.709 105.829 279.108 104.882 279.629 104.31C282.243 101.418 282.284 101.449 286.115 101.449C288.403 101.449 290.691 101.48 292.979 101.428C294.031 101.407 294.776 101.803 295.583 102.5C297.35 104.04 298.086 105.788 297.994 108.243C297.789 113.518 297.933 118.803 297.933 124.088L297.922 124.078ZM296.349 124.265C296.349 118.605 296.349 112.956 296.349 107.296C296.349 105.465 294.317 103.291 292.59 103.28C289.73 103.259 286.87 103.259 284.01 103.28C282.182 103.291 280.231 105.267 280.231 107.119C280.221 118.397 280.211 129.665 280.231 140.943C280.231 143.076 282.315 145.125 284.429 145.136C287.085 145.146 289.741 145.136 292.396 145.136C294.398 145.136 296.349 143.159 296.349 141.12C296.349 135.501 296.349 129.894 296.349 124.275V124.265Z" fill="#475667"/>
<path d="M232.949 124.162C232.949 129.989 232.929 135.815 232.97 141.631C232.97 142.837 232.561 143.68 231.805 144.606C230.294 146.469 228.557 147.207 226.177 146.999C223.787 146.791 221.356 147.02 218.956 146.916C218.22 146.885 217.434 146.489 216.801 146.063C214.257 144.336 213.624 141.912 213.685 138.801C213.879 127.991 213.767 117.171 213.736 106.351C213.736 105.341 214.114 104.686 214.707 103.937C216.259 101.95 218.118 101.159 220.641 101.388C223.154 101.617 225.708 101.367 228.23 101.471C228.966 101.502 229.763 101.887 230.386 102.324C232.469 103.781 233.123 105.799 233.021 108.421C232.806 113.654 232.96 118.898 232.96 124.141L232.949 124.162ZM215.463 124.225C215.463 129.874 215.463 135.534 215.463 141.183C215.463 143.077 217.516 145.137 219.385 145.137C222.041 145.137 224.686 145.137 227.342 145.137C229.211 145.137 231.295 143.118 231.295 141.194C231.305 129.76 231.305 118.326 231.295 106.902C231.295 105.206 229.313 103.281 227.628 103.271C224.89 103.271 222.163 103.271 219.426 103.271C217.393 103.271 215.463 105.206 215.463 107.256C215.463 112.905 215.463 118.565 215.463 124.214V124.225Z" fill="#475667"/>
</svg>
