<svg width="443" height="175" viewBox="0 0 443 175" fill="none" xmlns="http://www.w3.org/2000/svg">
<path fill-rule="evenodd" clip-rule="evenodd" d="M131.202 0.0844727H125.819H125.745V30.9834H131.129V18.2994C131.121 17.7537 131.195 17.2006 131.35 16.677C131.991 14.8998 133.665 13.6977 135.553 13.6535C138.503 13.6535 139.609 16.0133 139.609 19.0368V30.9097H144.993V18.4469C144.993 11.6624 141.232 9.30254 137.618 9.30254C136.328 9.31729 135.059 9.64177 133.931 10.2612C132.84 10.7774 131.918 11.596 131.276 12.621H131.202V0.0844727ZM43.4462 6.94073C45.0981 6.87436 46.3813 5.49534 46.3223 3.84346V3.75497C46.278 2.16946 44.958 0.923177 43.3725 0.967424H43.225C41.5731 1.03379 40.29 2.41282 40.349 4.0647C40.4153 5.71657 41.7944 6.99973 43.4462 6.94073ZM40.6439 9.81677V30.9815H45.9536V9.81677H40.6439ZM8.12237 1.41268C5.50443 1.39056 2.8865 1.61179 0.305442 2.07639H0.231697V30.9105C2.41454 31.1539 4.60475 31.2792 6.79496 31.2792C12.1783 31.2792 15.6443 30.3206 17.7092 28.5507C19.5085 27.0315 20.5336 24.7823 20.5115 22.4299C20.5115 18.4477 17.7092 16.0141 14.6119 15.2029V15.0554C17.7829 13.9493 19.479 11.5157 19.479 8.78714C19.5528 6.53056 18.395 4.41409 16.4555 3.2563C14.5381 1.9289 12.0308 1.41268 8.12237 1.41268ZM8.3436 13.6543H5.61505V5.61612C6.6106 5.42439 7.62828 5.35064 8.63858 5.39489C12.0308 5.39489 14.0957 6.64855 14.0957 9.45084C14.0957 11.8844 12.1046 13.6543 8.3436 13.6543ZM8.41734 27.2233C7.48079 27.2602 6.54423 27.2159 5.61505 27.0758V17.5627H8.19611C11.8833 17.5627 14.9069 18.7427 14.9069 22.3561C14.9069 25.9696 11.8833 27.2233 8.41734 27.2233ZM438.426 67.7832C436.833 66.0576 434.576 65.0915 432.231 65.1284C429.886 65.0694 427.622 65.9765 425.963 67.6357C424.289 69.2581 423.353 71.4999 423.382 73.8303C423.323 76.1753 424.23 78.4393 425.889 80.0985L426.015 80.2239C429.436 83.6162 434.96 83.594 438.352 80.1723C441.744 76.7505 441.781 71.2418 438.426 67.7832ZM432.187 63.7273C437.821 63.7567 442.364 68.3437 442.334 73.9777C442.283 76.6104 441.228 79.1177 439.385 80.9909C435.388 85.0616 428.854 85.1206 424.783 81.131C422.903 79.1694 421.87 76.5441 421.907 73.8303C421.87 71.1238 422.962 68.5354 424.931 66.677C426.841 64.7523 429.451 63.6904 432.158 63.7273H432.187ZM433.633 73.3878C434.355 73.1371 434.835 72.4512 434.812 71.6917C434.894 71.0206 434.576 70.3569 434.001 69.9955C433.271 69.6416 432.453 69.4867 431.641 69.5531H429.945L429.872 73.609L431.715 73.6828C432.364 73.6901 433.013 73.5943 433.633 73.3878ZM427.954 79.5086L428.028 68.2257L431.936 68.4469C432.984 68.41 434.023 68.5354 435.034 68.8156C436.169 69.295 436.855 70.4675 436.73 71.6917C436.804 72.5766 436.376 73.432 435.624 73.904C435.115 74.1621 434.569 74.3391 434.001 74.4202C434.768 74.494 435.469 74.8996 435.919 75.5264C436.273 76.0205 436.479 76.6104 436.509 77.2225V78.8449C436.521 78.906 436.531 78.961 436.54 79.0107L436.55 79.0661L436.558 79.1135L436.558 79.1156C436.589 79.2937 436.604 79.3827 436.656 79.4348L436.73 79.5823L434.812 79.5086V79.2874L434.739 78.9186V78.0337C434.739 76.7063 434.37 75.8951 433.706 75.4526C432.984 75.165 432.202 75.0397 431.42 75.0839H429.872V79.5086H427.954ZM25.1584 16.6022C25.1584 13.7262 25.0846 11.6613 25.0109 9.74396H29.583L29.8043 13.7262H29.9518C30.7408 11.1451 33.0785 9.33837 35.7776 9.22775C36.1979 9.23513 36.6183 9.28675 37.0312 9.37524V14.3899C36.4929 14.294 35.9546 14.2498 35.4089 14.2424C33.0195 14.2055 30.9768 15.9385 30.6155 18.2983C30.5196 18.8367 30.4753 19.375 30.468 19.9207V30.9087H25.0846V16.6022H25.1584ZM51.7827 16.0851C51.7827 13.6515 51.709 11.5867 51.6352 9.81681H56.2811L56.5761 12.9878H56.7236C58.1837 10.6501 60.7574 9.25635 63.5081 9.3006C67.1953 9.3006 71.03 11.6604 71.03 18.3712V30.9078H65.6467V19.0349C65.6467 16.0114 64.5405 13.6515 61.5907 13.6515C59.6586 13.7105 57.9772 14.9789 57.3873 16.8225C57.2029 17.3683 57.1071 17.9435 57.0923 18.5187V30.9815H51.709V16.0851H51.7827ZM92.7062 37.4719C94.9185 35.4808 95.8035 32.3098 95.8035 27.8851H95.8772V15.8648C95.8772 12.915 95.9509 11.1451 96.0247 9.74396H91.3788L91.1576 12.5463H91.0838C90.1251 10.7764 88.2078 9.22775 84.963 9.22775C79.8746 9.22775 75.3762 13.5049 75.3762 20.4369C75.3762 26.4102 79.1372 30.7612 84.373 30.7612C86.8361 30.8644 89.1738 29.6919 90.5676 27.6639H90.6413V29.5075C90.6413 34.0797 87.9865 35.9233 84.5205 35.9233C82.3524 35.9307 80.2139 35.3702 78.326 34.3009L77.1461 38.3569C78.916 39.463 81.792 40.053 84.5205 40.053C87.4703 40.053 90.4939 39.463 92.7062 37.4719ZM90.3464 16.8972C90.4422 17.3618 90.4939 17.8264 90.4939 18.2983V21.7643C90.4939 22.3838 90.4201 23.0032 90.2726 23.6079C89.69 25.5253 87.9275 26.838 85.9217 26.8527C82.6032 26.8527 80.7596 23.9767 80.7596 20.3632C80.7596 16.0123 82.9719 13.4312 85.9954 13.4312C88.0677 13.4459 89.867 14.8766 90.3464 16.8972ZM116.677 4.35985V9.81695H121.766V13.7992H116.677V23.1647C116.677 25.7458 117.341 27.0732 119.406 27.0732C120.099 27.0953 120.792 27.0216 121.471 26.8519L121.545 30.9079C120.306 31.3135 119.015 31.5126 117.71 31.4978C115.984 31.579 114.295 30.9374 113.064 29.728C111.884 28.4743 111.368 26.557 111.368 23.7547V13.7992H108.344V9.81695H111.368V5.83474L116.677 4.35985ZM160.995 27.3691C157.625 27.3691 154.691 25.7675 154.509 21.9857H168.739C168.842 21.2261 168.886 20.4666 168.886 19.6996C168.886 15.0537 166.526 9.37538 159.742 9.37538C152.957 9.37538 149.417 14.8325 149.417 20.732C149.417 27.2216 153.473 31.425 160.332 31.425C162.854 31.4914 165.361 31.0342 167.706 30.0976L166.895 26.4104C165 27.0815 163.001 27.4059 160.995 27.3691ZM163.798 18.151C163.871 16.1599 162.986 12.9889 159.373 12.9889C156.054 12.9889 154.653 16.0124 154.432 18.151H163.798ZM189.312 27.0007C186.834 27.0081 184.393 26.3739 182.233 25.1571L181.053 29.5818C183.523 30.8133 186.252 31.4475 189.017 31.4254C196.539 31.4254 200.079 27.2957 200.079 22.5761C200.079 18.3726 197.645 15.7916 192.557 13.8742C188.649 12.3993 186.952 11.3669 186.952 9.0808C186.952 7.31093 188.354 5.54106 191.746 5.54106C193.796 5.51156 195.824 5.99827 197.645 6.9422L198.899 2.66502C196.716 1.61785 194.312 1.10901 191.893 1.19013C185.478 1.19013 181.495 4.72987 181.495 9.59701C181.495 13.8742 184.593 16.3815 189.46 18.1514C193.147 19.4788 194.622 20.8062 194.622 23.0185C194.622 25.3783 192.704 27.0007 189.312 27.0007ZM221.392 25.8959C221.347 27.5994 221.465 29.3029 221.76 30.9843H216.967L216.598 28.6244H216.451C214.91 30.4754 212.594 31.5152 210.182 31.4267C205.905 31.4267 203.545 28.3294 203.545 25.1584C203.545 19.8488 208.265 17.1203 216.082 17.1203V16.7515C216.082 15.3504 215.492 13.0643 211.805 13.0643C209.806 13.0717 207.852 13.61 206.127 14.613L205.094 11.147C207.447 9.86381 210.087 9.2296 212.764 9.30335C219.548 9.30335 221.539 13.5805 221.539 18.2264V25.8959H221.392ZM216.156 20.5863C212.395 20.5125 208.781 21.3237 208.781 24.5685C208.649 26.1024 209.777 27.4593 211.311 27.592C211.473 27.6067 211.643 27.6067 211.805 27.592C213.671 27.6141 215.352 26.4637 216.008 24.716C216.126 24.3325 216.178 23.9343 216.156 23.536V20.5863ZM232.454 0.0844727H227.07V30.9834H232.454V0.0844727ZM258.34 20.2167C258.34 28.0337 252.883 31.4997 247.5 31.4997C241.527 31.4997 236.881 27.4437 236.881 20.5855C236.881 13.7272 241.453 9.37629 247.869 9.37629C254.137 9.30255 258.34 13.7272 258.34 20.2167ZM242.411 20.3642C242.411 24.4939 244.476 27.5175 247.647 27.5175C250.818 27.5175 252.809 24.5677 252.809 20.2167C252.809 16.8982 251.335 13.0635 247.647 13.0635C243.96 13.211 242.411 16.8982 242.411 20.3642ZM262.614 9.81681C262.688 11.5867 262.761 13.6515 262.761 16.0851V30.9815H268.071V18.5187C268.086 17.9435 268.182 17.3683 268.366 16.8225C268.956 14.9789 270.637 13.7105 272.569 13.6515C275.519 13.6515 276.625 16.0114 276.625 19.0349V30.9078H282.009V18.3712C282.009 11.6604 278.174 9.3006 274.487 9.3006C271.736 9.25635 269.162 10.6501 267.702 12.9878H267.555L267.26 9.81681H262.614ZM302.218 1.63263V13.358H314.607V1.63263H319.99V30.9092H314.607V18.0777H302.218V30.983H296.834V1.63263H302.218ZM335.179 31.4997C340.563 31.4997 346.02 28.0337 346.02 20.2167C346.02 13.7272 341.742 9.30255 335.548 9.37629C329.132 9.37629 324.56 13.7272 324.56 20.5855C324.56 27.4437 329.206 31.4997 335.179 31.4997ZM335.253 27.5175C332.082 27.5175 330.017 24.4939 330.017 20.3642C330.017 16.8982 331.566 13.211 335.253 13.0635C338.94 13.0635 340.415 16.8982 340.415 20.2167C340.415 24.5677 338.424 27.5175 335.253 27.5175ZM350.372 16.0866C350.372 13.653 350.298 11.5882 350.224 9.81829H354.797L355.092 12.9156H355.239C356.596 10.6295 359.074 9.25045 361.729 9.30207C364.324 9.22833 366.684 10.7917 367.628 13.2105H367.702C368.343 12.1412 369.228 11.2268 370.283 10.5557C371.573 9.70029 373.093 9.2652 374.634 9.30207C378.1 9.30207 381.64 11.6619 381.64 18.4464V30.9092H376.404V19.2576C376.404 15.7178 375.15 13.653 372.643 13.653C370.932 13.7267 369.442 14.8329 368.882 16.4553C368.697 17.0305 368.602 17.6278 368.587 18.2252V30.9092H363.351V18.6676C363.351 15.7179 362.171 13.653 359.664 13.653C357.872 13.7415 356.338 14.9583 355.829 16.6765C355.659 17.2517 355.564 17.8491 355.534 18.4464V30.983H350.298V16.0866H350.372ZM391.081 21.9857C391.264 25.7675 394.197 27.3691 397.568 27.3691C399.574 27.4059 401.572 27.0815 403.467 26.4104L404.279 30.0976C401.933 31.0342 399.426 31.4914 396.904 31.425C390.046 31.425 385.99 27.2216 385.99 20.732C385.99 14.8325 389.53 9.37538 396.314 9.37538C403.099 9.37538 405.458 15.0537 405.458 19.6996C405.458 20.4666 405.414 21.2261 405.311 21.9857H391.081ZM395.945 12.9889C399.559 12.9889 400.444 16.1599 400.37 18.151H391.005C391.226 16.0124 392.627 12.9889 395.945 12.9889ZM159.003 61.438H135.626V171.391H159.003V61.438ZM255.022 105.319C270.139 107.31 281.422 112.693 287.617 120.953C291.968 126.705 293.516 133.563 292.336 141.306C289.976 160.48 270.877 173.016 242.559 174.049C240.789 174.123 239.019 174.123 237.323 174.123C215.199 174.123 197.427 168.518 179.876 156.055L179.433 155.686L188.799 137.324L189.463 137.84C202.825 148.069 219.167 153.644 235.995 153.695H238.134C269.328 152.81 269.918 139.758 269.844 138.283C269.771 127.557 249.864 125.321 243.224 124.575L243.149 124.566C241.305 124.345 237.839 123.976 233.783 123.608C231.687 123.38 229.496 123.153 227.39 122.935L227.385 122.934L227.381 122.934C223.341 122.515 219.618 122.128 217.486 121.838C189.684 118.15 183.342 104.065 182.973 92.9298C182.678 80.9095 191.675 71.3964 199.492 66.8243C207.825 61.3672 220.878 58.2699 235.258 58.2699C237.397 58.2699 239.461 58.3436 241.526 58.4911C257.676 59.5235 272.868 64.3907 285.404 72.5026L285.921 72.8713L276.702 89.8326L276.113 89.4638C262.986 81.7207 250.007 78.1072 234.004 77.8859H233.488C222.574 77.8859 212.913 80.8357 208.268 85.6291C206.424 87.5465 205.539 89.5376 205.613 91.6762C205.908 96.7645 210.259 99.7143 219.477 100.968C221.72 101.332 227.054 101.945 232.774 102.602C234.011 102.744 235.266 102.889 236.512 103.033C237.31 103.124 238.11 103.215 238.906 103.306L238.907 103.306L238.908 103.306C245.843 104.096 252.508 104.856 255.022 105.319ZM410.471 120.953C404.276 112.693 392.993 107.31 377.876 105.319C375.362 104.856 368.696 104.096 361.761 103.306L361.739 103.304C360.949 103.214 360.156 103.123 359.366 103.033C358.12 102.889 356.865 102.744 355.628 102.602C349.909 101.945 344.574 101.332 342.331 100.968C333.113 99.7143 328.762 96.7645 328.467 91.6762C328.393 89.5376 329.278 87.5465 331.122 85.6291C335.768 80.8357 345.428 77.8859 356.342 77.8859H356.858C372.861 78.1072 385.84 81.7207 398.967 89.4638L399.557 89.8326L408.775 72.8713L408.258 72.5026C395.722 64.3907 380.53 59.5235 364.38 58.4911C362.316 58.3436 360.251 58.2699 358.112 58.2699C343.732 58.2699 330.679 61.3672 322.42 66.8243C314.603 71.3964 305.606 80.9095 305.901 92.9298C306.27 104.065 312.612 118.15 340.413 121.838C342.545 122.128 346.269 122.515 350.308 122.934L350.309 122.934C352.417 123.152 354.612 123.38 356.711 123.608C360.767 123.976 364.233 124.345 366.077 124.566L366.152 124.575C372.792 125.321 392.699 127.557 392.772 138.283C392.846 139.758 392.256 152.81 361.062 153.695H358.923C342.095 153.644 325.753 148.069 312.39 137.84L311.727 137.324L302.287 155.539L302.73 155.908C320.281 168.371 338.054 173.975 360.177 173.975C361.873 173.975 363.643 173.975 365.413 173.901C393.731 172.869 412.831 160.332 415.19 141.159C416.37 133.563 414.822 126.705 410.471 120.953ZM79.4334 123.31L121.173 171.391H91.9699L63.947 139.165C45.4371 155.831 24.1987 167.63 1.11663 173.972L0.231697 174.193V61.438H23.1663V141.525C41.7499 131.348 58.2687 116.378 72.3539 96.7617C80.1782 85.8253 86.8447 74.1147 92.2649 61.8067L92.4124 61.438H116.306L115.937 62.3229C109.477 78.8934 100.982 94.6009 90.6425 109.077C87.1028 114.018 83.3418 118.811 79.4334 123.31Z" fill="#9C182F"/>
</svg>
