<svg width="669" height="154" viewBox="0 0 669 154" fill="none" xmlns="http://www.w3.org/2000/svg">
<path fill-rule="evenodd" clip-rule="evenodd" d="M73.0827 61.3765L72.3312 63.2561C70.7407 66.7191 67.716 70.8423 62.8147 76.0986C41.9966 98.4557 28.2501 98.9772 45.4714 78.5185C45.4714 78.5185 64.5273 62.0856 44.7848 37.5862C29.1579 18.1893 41.5427 21.3295 49.3695 28.383C52.5392 31.2343 59.0577 37.1585 64.39 42.7749C70.9581 49.6971 75.4894 54.0754 73.0827 61.3765ZM29.0282 71.5739C29.0282 71.5739 40.181 60.8062 28.6086 44.7409C19.4545 32.0222 26.7015 34.0857 31.29 38.7117C33.1476 40.5839 36.9694 44.467 40.0933 48.1513C45.9672 55.0772 49.0568 58.1236 39.1855 69.9944C27.0105 84.6415 18.9586 84.9792 29.0282 71.5739ZM6.29533 65.0082C6.29533 65.0082 20.0647 59.5831 5.91391 51.5842C-5.28089 45.2549 3.62536 46.2566 9.24374 48.5565C11.517 49.487 16.1933 51.4154 20.0151 53.2463C27.205 56.6942 30.9925 58.2062 18.7946 64.1791C3.7436 71.5476 -6.15816 71.7502 6.29533 65.0082ZM460.339 121.042C461.54 121.042 462.627 121.173 463.592 121.436H471.556V123.533L467.292 124.013C468.292 125.256 468.827 126.799 468.806 128.384C468.806 130.522 468.036 132.233 466.495 133.513C464.954 134.788 462.837 135.426 460.148 135.426C459.461 135.426 458.817 135.374 458.214 135.269C456.726 136.011 455.986 136.949 455.986 138.082C455.986 138.683 456.246 139.122 456.765 139.411C457.283 139.696 458.176 139.838 459.435 139.838H463.508C466.003 139.838 467.917 140.337 469.256 141.335C470.591 142.333 471.263 143.785 471.263 145.687C471.263 148.107 470.24 149.953 468.196 151.225C466.151 152.493 463.165 153.131 459.244 153.131C456.231 153.131 453.912 152.598 452.279 151.533C450.647 150.471 449.83 148.966 449.83 147.023C449.83 145.691 450.28 144.543 451.177 143.571C452.073 142.596 453.332 141.939 454.957 141.594C454.365 141.338 453.854 140.931 453.477 140.416C453.076 139.879 452.866 139.228 452.878 138.563C452.878 137.764 453.103 137.062 453.549 136.465C453.999 135.865 454.705 135.287 455.674 134.728C454.475 134.256 453.457 133.425 452.763 132.353C452.008 131.216 451.616 129.882 451.638 128.523C451.638 126.129 452.393 124.283 453.908 122.985C455.422 121.687 457.562 121.038 460.339 121.038V121.042ZM462.398 142.813H458.214C456.631 142.813 455.399 143.17 454.514 143.89C453.637 144.607 453.194 145.639 453.194 146.982C453.194 148.167 453.717 149.064 454.77 149.679C455.819 150.291 457.325 150.595 459.286 150.595C462.215 150.595 464.382 150.182 465.789 149.349C467.2 148.516 467.902 147.391 467.902 145.965C467.902 144.779 467.517 143.958 466.746 143.5C465.976 143.042 464.527 142.813 462.398 142.813ZM218.642 112.259V143.312H215.804L215.342 140.379H215.152C213.542 142.6 211.131 143.71 207.924 143.71C204.91 143.71 202.568 142.735 200.898 140.776C199.22 138.822 198.384 136.041 198.384 132.436C198.384 128.827 199.223 126.028 200.905 124.032C202.584 122.036 204.926 121.038 207.924 121.038C211.051 121.038 213.443 122.115 215.11 124.272H215.384L215.236 122.696L215.152 121.158V112.259H218.642ZM157.37 121.075C160.116 121.075 162.149 121.657 163.472 122.816C164.796 123.972 165.456 125.829 165.456 128.384V143.312H162.874L162.179 140.198H162.012C160.864 141.568 159.719 142.495 158.579 142.982C157.435 143.47 156.012 143.71 154.303 143.71C152.015 143.71 150.229 143.151 148.933 142.033C147.636 140.915 146.987 139.324 146.987 137.265C146.987 132.845 150.71 130.53 158.148 130.32L162.054 130.2V128.842C162.054 127.127 161.665 125.859 160.886 125.041C160.112 124.223 158.865 123.81 157.16 123.81C155.241 123.81 153.067 124.373 150.645 125.488L149.577 122.955C150.759 122.352 152.01 121.89 153.304 121.578C154.654 121.244 156.012 121.075 157.37 121.075ZM511.934 121.075C514.68 121.075 516.713 121.657 518.037 122.816C519.36 123.972 520.02 125.829 520.02 128.384V143.312H517.438L516.744 140.198H516.576C515.431 141.568 514.283 142.495 513.143 142.982C511.999 143.47 510.576 143.71 508.867 143.71C506.582 143.71 504.793 143.151 503.497 142.033C502.2 140.915 501.551 139.324 501.551 137.265C501.551 132.845 505.274 130.53 512.712 130.32L516.618 130.2V128.842C516.618 127.127 516.229 125.859 515.454 125.041C514.676 124.223 513.433 123.81 511.724 123.81C509.805 123.81 507.635 124.373 505.209 125.488L504.141 122.955C505.323 122.352 506.574 121.89 507.868 121.578C509.218 121.244 510.576 121.075 511.934 121.075ZM579.511 121.075C582.257 121.075 584.29 121.657 585.613 122.816C586.937 123.972 587.597 125.829 587.597 128.384V143.312H585.015L584.32 140.198H584.153C583.008 141.568 581.86 142.495 580.72 142.982C579.575 143.47 578.153 143.71 576.444 143.71C574.159 143.71 572.37 143.151 571.073 142.033C569.777 140.915 569.128 139.324 569.128 137.265C569.128 132.845 572.851 130.53 580.289 130.32L584.194 130.2V128.842C584.194 127.127 583.805 125.859 583.031 125.041C582.253 124.223 581.01 123.81 579.301 123.81C577.382 123.81 575.212 124.373 572.786 125.488L571.718 122.955C572.9 122.352 574.151 121.89 575.445 121.578C576.795 121.244 578.153 121.075 579.511 121.075ZM109.093 121.038C112.312 121.038 114.875 122.055 116.771 124.092C118.67 126.129 119.62 128.883 119.62 132.353C119.62 135.918 118.674 138.705 116.782 140.705C114.891 142.708 112.282 143.71 108.944 143.71C106.884 143.71 105.057 143.252 103.459 142.333C101.854 141.408 100.566 140.032 99.7594 138.383C98.8936 136.664 98.4626 134.657 98.4626 132.353C98.4626 128.789 99.3971 126.013 101.278 124.024C103.154 122.036 105.759 121.038 109.093 121.038ZM491.52 116.367V121.436H498.202V124.013H491.52V136.882C491.52 138.202 491.848 139.212 492.508 139.921C493.164 140.622 494.072 140.975 495.216 140.975C495.834 140.975 496.429 140.934 497.005 140.848C497.577 140.761 498.035 140.671 498.37 140.577V143.11C497.989 143.286 497.436 143.429 496.7 143.541C495.964 143.654 495.304 143.71 494.716 143.71C490.257 143.71 488.034 141.482 488.034 137.024V124.013H484.734V122.415L488.034 121.038L489.502 116.367H491.52ZM82.7937 121.042C86.0167 121.042 88.5761 122.058 90.4756 124.096C92.3713 126.133 93.321 128.887 93.321 132.357C93.321 135.921 92.3751 138.709 90.487 140.709C88.5952 142.712 85.9824 143.714 82.6488 143.714C80.5891 143.714 78.7582 143.256 77.1639 142.337C75.5587 141.411 74.2705 140.036 73.4641 138.386C72.5982 136.668 72.1672 134.661 72.1672 132.357C72.1672 128.793 73.1017 126.017 74.9783 124.028C76.8549 122.04 79.4601 121.042 82.7975 121.042H82.7937ZM273.391 121.042C276.61 121.042 279.17 122.058 281.069 124.096C282.965 126.133 283.915 128.887 283.915 132.357C283.915 135.921 282.969 138.709 281.077 140.709C279.189 142.712 276.576 143.714 273.242 143.714C271.183 143.714 269.352 143.256 267.758 142.337C266.152 141.411 264.864 140.036 264.058 138.386C263.192 136.668 262.757 134.661 262.757 132.357C262.757 128.793 263.695 126.017 265.572 124.028C267.449 122.04 270.054 121.042 273.391 121.042ZM299.687 121.042C302.906 121.042 305.465 122.058 307.365 124.096C309.264 126.133 310.21 128.887 310.21 132.357C310.21 135.921 309.264 138.709 307.376 140.709C305.484 142.712 302.871 143.714 299.538 143.714C297.478 143.714 295.647 143.256 294.053 142.337C292.448 141.411 291.16 140.036 290.353 138.386C289.487 136.668 289.056 134.661 289.056 132.357C289.056 128.793 289.991 126.017 291.867 124.028C293.744 122.04 296.349 121.042 299.687 121.042ZM35.3713 121.042C36.4774 121.042 37.5835 121.154 38.6897 121.379C39.7958 121.604 40.6654 121.875 41.2948 122.178L40.2268 124.992C39.4057 124.685 38.5615 124.442 37.7018 124.264C36.9094 124.085 36.1002 123.989 35.2874 123.976C30.6073 123.976 28.2692 126.808 28.2692 132.477C28.2692 135.167 28.8413 137.227 29.9818 138.668C31.126 140.101 32.8157 140.821 35.0547 140.821C36.9733 140.821 38.9452 140.427 40.9591 139.643V142.577C39.4182 143.335 37.4805 143.714 35.1386 143.714C31.805 143.714 29.2265 142.738 27.3957 140.787C25.5687 138.84 24.6533 136.083 24.6533 132.518C24.6533 128.86 25.5839 126.032 27.4377 124.036C29.2952 122.04 31.9385 121.042 35.3713 121.042ZM615.105 121.042C617.992 121.042 620.273 121.942 621.955 123.743C623.634 125.548 624.477 127.926 624.477 130.883V132.976H608.613C608.682 135.546 609.365 137.493 610.661 138.825C611.958 140.153 613.782 140.821 616.135 140.821C618.661 140.812 621.161 140.309 623.489 139.343V142.296C622.361 142.769 621.19 143.133 619.991 143.384C618.678 143.622 617.344 143.733 616.009 143.714C612.607 143.714 609.918 142.731 607.953 140.761C605.985 138.792 605.001 136.056 605.001 132.556C605.001 129.029 605.917 126.23 607.74 124.152C609.571 122.081 612.023 121.042 615.105 121.042ZM363.545 121.042C366.764 121.042 369.323 122.058 371.223 124.096C373.122 126.133 374.068 128.887 374.068 132.357C374.068 135.921 373.122 138.709 371.234 140.709C369.342 142.712 366.729 143.714 363.396 143.714C361.336 143.714 359.505 143.256 357.911 142.337C356.306 141.411 355.018 140.036 354.211 138.386C353.345 136.668 352.914 134.661 352.914 132.357C352.914 128.793 353.849 126.017 355.725 124.028C357.602 122.04 360.207 121.042 363.545 121.042ZM661.185 116.371V121.439H667.867V124.017H661.185V136.886C661.185 138.206 661.517 139.215 662.177 139.925C662.833 140.626 663.737 140.979 664.885 140.979C665.499 140.979 666.094 140.938 666.67 140.851C667.242 140.765 667.7 140.675 668.035 140.581V143.114C667.654 143.29 667.101 143.433 666.365 143.545C665.628 143.658 664.969 143.714 664.381 143.714C659.926 143.714 657.699 141.485 657.699 137.028V124.017H654.399V122.419L657.699 121.042L659.167 116.371H661.189H661.185ZM10.6703 113.714C13.7217 113.714 16.5327 114.247 19.0997 115.309L17.9822 118.265C15.4457 117.252 12.9855 116.746 10.5863 116.746C8.69449 116.746 7.21838 117.132 6.1542 117.905C5.08622 118.678 4.55604 119.747 4.55604 121.117C4.55604 122.13 4.75438 122.955 5.14343 123.604C5.5363 124.249 6.19997 124.842 7.12683 125.379C8.06132 125.919 9.48785 126.512 11.4064 127.165C14.6294 128.256 16.8455 129.427 18.0546 130.676C19.2676 131.929 19.874 133.55 19.874 135.546C19.874 138.116 18.8938 140.116 16.9332 141.557C14.9727 142.994 12.3104 143.71 8.94623 143.71C5.30744 143.71 2.50398 143.264 0.543457 142.374V139.099C1.80216 139.606 3.17528 140.003 4.66284 140.3C6.14657 140.589 7.61887 140.735 9.0721 140.735C11.456 140.735 13.2487 140.307 14.4502 139.448C15.6593 138.593 16.2581 137.396 16.2581 135.865C16.2581 134.852 16.0445 134.027 15.6173 133.381C15.1901 132.736 14.4769 132.143 13.4775 131.596C12.4744 131.052 10.9525 130.432 8.90427 129.738C6.0474 128.767 4.00679 127.619 2.78242 126.287C1.55423 124.955 0.943952 123.221 0.943952 121.079C0.943952 118.828 1.83267 117.038 3.61392 115.71C5.39135 114.378 7.74474 113.714 10.6703 113.714ZM569.895 114.135V117.147H560.169V143.312H556.595V117.147H546.868V114.135H569.895ZM419.782 114.135C424.561 114.135 428.272 115.391 430.919 117.905C433.566 120.419 434.886 123.931 434.886 128.444C434.89 133.258 433.513 136.942 430.763 139.489C428.009 142.041 424.05 143.312 418.878 143.312H410.372V114.135H419.782ZM445.009 121.436V143.309H441.519V121.436H445.009ZM347.75 112.037C348.97 112.037 350.401 112.27 352.037 112.735L351.133 115.391C349.79 114.979 348.642 114.772 347.689 114.772C346.373 114.772 345.4 115.185 344.767 116.018C344.138 116.851 343.821 118.183 343.821 120.021V121.436H349.684V124.013H343.825V143.312H340.339V124.013H336.219V122.512L340.339 121.319V120.1C340.339 114.724 342.807 112.037 347.75 112.037ZM320.119 112.259V143.312H316.633V112.259H320.119ZM183.837 121.038C186.606 121.038 188.692 121.676 190.092 122.944C191.496 124.216 192.198 126.245 192.198 129.041V143.312H188.707V129.161C188.707 127.378 188.28 126.047 187.426 125.169C186.572 124.291 185.233 123.856 183.413 123.856C181.003 123.856 179.241 124.471 178.119 125.709C176.998 126.947 176.441 128.988 176.441 131.836V143.312H172.947V121.439H175.781L176.353 124.43H176.517C177.23 123.353 178.234 122.516 179.523 121.927C180.875 121.321 182.351 121.017 183.837 121.038ZM641.614 121.038C644.387 121.038 646.473 121.676 647.873 122.944C649.273 124.216 649.975 126.245 649.975 129.041V143.312H646.489V129.161C646.489 127.378 646.061 126.047 645.207 125.169C644.353 124.291 643.014 123.856 641.191 123.856C638.784 123.856 637.018 124.471 635.897 125.709C634.775 126.947 634.218 128.988 634.218 131.836V143.312H630.728V121.439H633.566L634.134 124.43H634.302C635.015 123.353 636.019 122.516 637.304 121.927C638.656 121.321 640.128 121.017 641.614 121.038ZM598.578 112.259V143.312H595.092V112.259H598.578ZM50.2163 112.259V121.657C50.2163 122.786 50.1591 123.724 50.0485 124.471H50.2582C50.9448 123.42 51.9213 122.595 53.1876 121.987C54.545 121.362 56.0298 121.052 57.5282 121.079C60.3431 121.079 62.4562 121.717 63.8598 122.985C65.2711 124.253 65.9729 126.275 65.9729 129.041V143.312H62.4867V129.161C62.4867 127.378 62.0595 126.047 61.2051 125.169C60.3507 124.291 59.0119 123.856 57.1925 123.856C54.7705 123.856 52.9969 124.478 51.8869 125.731C50.7732 126.981 50.2163 129.029 50.2163 131.877V143.312H46.7301V112.259H50.2163ZM480.081 121.436V143.309H476.591V121.436H480.081ZM246.31 114.138C253.984 114.138 257.825 116.971 257.825 122.64C257.825 125.593 256.765 127.862 254.64 129.453C252.52 131.044 249.484 131.839 245.532 131.839H241.92V143.316H238.346V114.138H246.31ZM530.997 112.262V143.316H527.511V112.262H530.997ZM390.992 121.042C392.014 121.042 392.929 121.12 393.742 121.282L393.261 124.358C392.434 124.173 391.589 124.072 390.74 124.058C388.875 124.058 387.284 124.771 385.961 126.212C384.634 127.649 383.974 129.438 383.974 131.577V143.316H380.487V121.443H383.363L383.764 125.495H383.932C384.786 124.069 385.816 122.97 387.021 122.201C388.198 121.437 389.582 121.034 390.992 121.042ZM129.526 112.262V143.316H126.036V112.262H129.522H129.526ZM584.107 132.56L580.621 132.699C577.848 132.789 575.849 133.201 574.621 133.925C573.396 134.65 572.782 135.779 572.782 137.306C572.782 138.506 573.164 139.418 573.927 140.045C574.689 140.667 575.757 140.983 577.131 140.983C579.305 140.983 581.01 140.416 582.249 139.283C583.489 138.154 584.107 136.57 584.107 134.533V132.56ZM161.966 132.56L158.48 132.699C155.707 132.789 153.704 133.201 152.48 133.925C151.255 134.65 150.641 135.779 150.641 137.306C150.641 138.506 151.023 139.418 151.786 140.045C152.549 140.667 153.616 140.983 154.99 140.983C157.164 140.983 158.869 140.416 160.108 139.283C161.348 138.154 161.966 136.57 161.966 134.533V132.56ZM516.53 132.56L513.044 132.699C510.271 132.789 508.272 133.201 507.044 133.925C505.82 134.65 505.205 135.779 505.205 137.306C505.205 138.506 505.587 139.418 506.35 140.045C507.113 140.667 508.181 140.983 509.554 140.983C511.728 140.983 513.433 140.416 514.672 139.283C515.912 138.154 516.53 136.57 516.53 134.533V132.56ZM363.434 123.856C361.149 123.856 359.429 124.568 358.266 125.994C357.102 127.416 356.523 129.536 356.523 132.357C356.523 135.152 357.11 137.28 358.285 138.743C359.463 140.206 361.191 140.941 363.476 140.941C365.761 140.941 367.492 140.21 368.675 138.754C369.857 137.298 370.452 135.167 370.452 132.357C370.452 129.577 369.861 127.465 368.675 126.02C367.492 124.58 365.745 123.856 363.434 123.856ZM82.6869 123.856C80.4022 123.856 78.682 124.568 77.5186 125.994C76.3553 127.416 75.7755 129.536 75.7755 132.357C75.7755 135.152 76.3629 137.28 77.5377 138.743C78.7163 140.206 80.4441 140.941 82.725 140.941C85.0136 140.941 86.7453 140.21 87.9277 138.754C89.1101 137.298 89.7051 135.167 89.7051 132.357C89.7051 129.577 89.1139 127.465 87.9277 126.02C86.7453 124.58 84.9983 123.856 82.6869 123.856ZM299.576 123.856C297.291 123.856 295.571 124.568 294.408 125.994C293.244 127.416 292.665 129.536 292.665 132.357C292.665 135.152 293.252 137.28 294.427 138.743C295.605 140.206 297.333 140.941 299.618 140.941C301.903 140.941 303.634 140.21 304.817 138.754C305.999 137.298 306.594 135.167 306.594 132.357C306.594 129.577 306.003 127.465 304.817 126.02C303.634 124.58 301.887 123.856 299.576 123.856ZM273.281 123.856C270.996 123.856 269.276 124.568 268.112 125.994C266.949 127.416 266.365 129.536 266.365 132.357C266.365 135.152 266.957 137.28 268.131 138.743C269.31 140.206 271.038 140.941 273.319 140.941C275.607 140.941 277.339 140.21 278.521 138.754C279.704 137.298 280.295 135.167 280.295 132.357C280.295 129.577 279.704 127.465 278.521 126.02C277.339 124.58 275.592 123.856 273.281 123.856ZM208.32 123.818C206.276 123.818 204.708 124.568 203.625 126.08C202.538 127.592 201.996 129.723 201.996 132.477C201.996 135.272 202.534 137.381 203.614 138.803C204.693 140.228 206.276 140.941 208.362 140.941C210.742 140.941 212.47 140.326 213.542 139.095C214.61 137.865 215.148 135.876 215.148 133.138V132.44C215.148 129.337 214.606 127.127 213.519 125.799C212.436 124.478 210.7 123.818 208.32 123.818ZM108.982 123.856C106.701 123.856 104.977 124.568 103.814 125.994C102.651 127.416 102.071 129.536 102.071 132.357C102.071 135.152 102.658 137.28 103.837 138.743C105.012 140.206 106.743 140.941 109.024 140.941C111.309 140.941 113.041 140.21 114.227 138.754C115.409 137.298 116 135.167 116 132.357C116 129.577 115.409 127.465 114.227 126.02C113.044 124.58 111.294 123.856 108.982 123.856ZM419.129 117.072H413.938V140.382H418.287C422.547 140.382 425.747 139.388 427.891 137.396C430.031 135.407 431.102 132.466 431.102 128.568C431.102 124.76 430.099 121.893 428.089 119.965C426.079 118.036 423.096 117.072 419.129 117.072ZM460.186 123.458C458.546 123.458 457.287 123.874 456.402 124.715C455.525 125.551 455.079 126.797 455.079 128.448C455.079 129.975 455.536 131.134 456.444 131.918C457.36 132.706 458.626 133.096 460.251 133.096C463.653 133.096 465.354 131.528 465.354 128.388C465.354 125.101 463.63 123.458 460.186 123.458ZM615.059 123.814C613.209 123.814 611.737 124.388 610.635 125.533C609.536 126.677 608.888 128.26 608.693 130.282H620.731C620.731 128.193 620.243 126.594 619.263 125.48C618.282 124.373 616.882 123.814 615.059 123.814ZM245.913 117.068H241.924V128.924H245.139C248.305 128.924 250.594 128.436 252.005 127.465C253.424 126.493 254.129 124.936 254.129 122.794C254.129 120.865 253.466 119.428 252.134 118.483C250.803 117.537 248.725 117.068 245.913 117.068ZM443.285 113.317C443.82 113.307 444.339 113.499 444.734 113.853C445.143 114.213 445.345 114.765 445.345 115.511C445.345 116.254 445.143 116.81 444.734 117.177C444.342 117.538 443.822 117.734 443.285 117.725C443.015 117.734 442.746 117.69 442.493 117.596C442.241 117.502 442.009 117.359 441.813 117.177C441.424 116.81 441.225 116.254 441.225 115.511C441.225 114.75 441.424 114.198 441.813 113.842C442.216 113.486 442.744 113.298 443.285 113.317ZM478.357 113.317C478.892 113.307 479.411 113.499 479.806 113.853C480.211 114.213 480.417 114.765 480.417 115.511C480.417 116.254 480.211 116.81 479.806 117.177C479.414 117.538 478.894 117.734 478.357 117.725C478.087 117.734 477.818 117.69 477.565 117.596C477.313 117.502 477.081 117.359 476.885 117.177C476.492 116.81 476.297 116.254 476.297 115.511C476.297 114.75 476.492 114.198 476.885 113.842C477.288 113.486 477.816 113.298 478.357 113.317ZM469.573 30.9455C472.506 30.9455 475.595 31.2831 478.841 31.9585C482.091 32.6338 485.001 33.538 487.584 34.671C487.584 38.7042 487.347 43.1426 486.859 47.9825L486.638 50.0835L481.195 50.9352L474.184 43.2814C472.369 42.7149 469.71 42.4335 466.22 42.4335C465.663 42.4335 464.546 42.4973 462.871 42.6399C462.669 43.0676 462.562 43.7429 462.562 44.6659C462.562 45.6601 462.837 46.523 463.394 47.2696C463.951 48.0087 464.946 48.8266 466.384 49.7158C467.807 50.605 470.103 51.8581 473.238 53.4901C477.846 55.76 481.313 57.7297 483.659 59.3842C485.997 61.0576 487.633 62.7384 488.579 64.4417C489.525 66.1413 489.99 68.1935 489.99 70.6022C489.99 76.4175 487.809 80.9572 483.453 84.2213C479.082 87.4741 473.063 89.1099 465.389 89.1099C459.866 89.1099 453.481 88.1157 446.222 86.131C446.615 79.6478 447.038 74.7367 447.488 71.4013L447.584 70.711L453.553 69.5442L460.152 76.6614C462.452 77.3742 465.034 77.7269 467.895 77.7269C469.504 77.7269 470.759 77.6256 471.671 77.408C471.873 76.849 471.98 76.0648 471.98 75.0669C472.01 74.3197 471.811 73.5809 471.407 72.9471C471.026 72.3806 470.164 71.709 468.84 70.9211C467.517 70.1445 465.209 68.9401 461.929 67.3156C457.817 65.1133 454.667 63.1436 452.508 61.4102C450.349 59.6769 448.793 57.8835 447.851 56.0376C446.897 54.1955 446.436 52.0007 446.436 49.4494C446.436 43.7767 448.507 39.282 452.664 35.9466C456.814 32.6188 462.452 30.9455 469.573 30.9455ZM278.899 30.9455C279.509 32.3674 280.017 33.9657 280.406 35.7478L280.68 37.1134V71.9866C280.68 73.266 280.783 74.1477 280.997 74.6467C281.23 75.1263 281.588 75.5366 282.034 75.836L282.465 76.1361L286.65 78.5861L286.333 85.1705C282.916 86.0331 279.457 86.728 275.97 87.2528C272.06 87.8531 268.429 88.2207 265.084 88.3596C264.802 87.5154 264.485 86.4499 264.138 85.1705C264.072 84.6776 263.961 84.1917 263.806 83.7186L263.615 83.152H263.295C260.434 84.8554 257.421 86.2173 254.248 87.2528C251.066 88.2733 248.183 88.791 245.605 88.791C240.024 88.791 235.863 87.1027 233.143 83.7373C230.592 80.5858 229.238 75.9148 229.081 69.7393L229.062 68.4824V49.4494C229.062 47.8849 228.936 46.8757 228.696 46.418C228.49 46.0315 228.032 45.6113 227.319 45.1574L226.861 44.8797L222.151 42.3247L222.669 34.3484C223.654 34.2095 224.348 34.0707 224.771 33.9207C225.534 33.7818 228.276 33.2903 232.987 32.4312C237.698 31.587 241.622 31.0955 244.765 30.9455C245.376 32.3674 245.879 33.9657 246.272 35.7478L246.543 37.1134V63.9089C246.543 67.0305 246.631 69.2215 246.806 70.4971C246.981 71.7765 247.538 72.7482 248.488 73.4236C249.426 74.0989 251.051 74.4366 253.351 74.4366C256.284 74.4366 259.137 73.9751 261.907 73.0484L263.089 72.6282V49.4494C263.089 47.8849 262.99 46.8757 262.772 46.418C262.601 46.0315 262.181 45.6113 261.521 45.1574L261.098 44.8797L256.498 42.3247L256.914 34.3484C262.566 33.2903 266.983 32.4724 270.161 31.9059C273.334 31.3432 276.248 31.0205 278.899 30.9455ZM520.298 30.6266C526.577 30.6266 533.313 32.0785 540.514 34.9899C540.369 37.0459 540.056 39.7547 539.564 43.1239C539.175 45.8177 538.763 48.3389 538.324 50.695L537.996 52.4246L530.978 53.0587L524.486 44.6621C522.555 44.2923 520.591 44.1138 518.624 44.1294C516.877 44.1294 515.267 44.2344 513.803 44.4483C512.193 47.5698 511.4 51.9669 511.4 57.6359C511.4 63.4512 512.414 67.7508 514.432 70.5534C516.454 73.3523 519.532 74.7555 523.647 74.7555C525.604 74.7555 527.98 74.4553 530.768 73.8513C532.996 73.3635 535.277 72.7145 537.604 71.8928L539.358 71.2438L541.876 81.8764C539.08 83.8649 535.597 85.4857 531.447 86.7688C527.298 88.0444 523.159 88.686 519.04 88.686C510.942 88.686 504.66 86.1497 500.19 81.081C495.719 76.0161 493.492 69.0114 493.492 60.0783C493.492 50.7963 495.88 43.5666 500.67 38.3853C505.446 33.2116 511.987 30.6266 520.298 30.6266ZM316.595 30.6266C324.483 30.6266 330.536 33.1778 334.759 38.2803C338.763 43.1201 340.777 49.8921 340.8 58.6076L340.785 60.0783L308.951 66.0325C309.928 69.0114 311.309 71.1875 313.086 72.5719C314.871 73.9526 317.224 74.6467 320.158 74.6467C322.179 74.6467 324.59 74.3465 327.382 73.7462C329.613 73.2585 331.871 72.6319 334.148 71.8553L335.861 71.2438L338.271 81.7751C335.685 83.7561 332.336 85.3806 328.217 86.6562C324.102 87.9394 319.948 88.5772 315.76 88.5772C307.594 88.5772 301.292 86.0634 296.86 81.021C292.42 75.9936 290.208 69.0527 290.208 60.1834C290.208 54.0191 291.291 48.7178 293.454 44.2907C295.621 39.8635 298.687 36.4756 302.673 34.1345C306.648 31.7971 311.29 30.6266 316.595 30.6266ZM639.89 30.6266C647.774 30.6266 653.835 33.1778 658.053 38.2803C662.058 43.1201 664.068 49.8921 664.091 58.6076L664.08 60.0783L632.246 66.0325C633.223 69.0114 634.603 71.1875 636.381 72.5719C638.162 73.9526 640.519 74.6467 643.449 74.6467C645.47 74.6467 647.873 74.3465 650.677 73.7462C652.908 73.2585 655.166 72.6319 657.443 71.8553L659.156 71.2438L661.562 81.7751C658.98 83.7561 655.631 85.3806 651.512 86.6562C647.393 87.9394 643.235 88.5772 639.055 88.5772C630.881 88.5772 624.587 86.0634 620.148 81.021C615.715 75.9936 613.503 69.0527 613.503 60.1834C613.503 54.0191 614.583 48.7178 616.745 44.2907C618.908 39.8635 621.986 36.4756 625.957 34.1345C629.942 31.7971 634.584 30.6266 639.89 30.6266ZM194.818 30.6266C202.713 30.6266 208.763 33.1778 212.989 38.2803C216.994 43.1201 219.004 49.8921 219.027 58.6076L219.012 60.0783L187.182 66.0325C188.154 69.0114 189.535 71.1875 191.316 72.5719C193.098 73.9526 195.447 74.6467 198.377 74.6467C200.402 74.6467 202.816 74.3465 205.605 73.7462C207.84 73.2585 210.098 72.6319 212.375 71.8553L214.087 71.2438L216.498 81.7751C213.916 83.7561 210.559 85.3844 206.444 86.6562C202.324 87.9394 198.174 88.5772 193.986 88.5772C185.82 88.5772 179.519 86.0634 175.087 81.021C170.647 75.9936 168.439 69.0527 168.439 60.1834C168.439 54.0229 169.518 48.7178 171.681 44.2907C173.847 39.8635 176.914 36.4756 180.896 34.1345C184.874 31.7971 189.516 30.6266 194.818 30.6266ZM393.578 5.96209C397.304 5.96209 401.374 6.31476 405.795 7.0201L407.71 7.34651L405.307 21.806C402.679 21.0469 400.003 20.4579 397.297 20.0427C395.593 19.809 393.875 19.6824 392.155 19.6637L390.431 19.6787V32.2248L399.089 32.0748V44.3807L390.431 44.3432V71.7803C390.431 73.266 390.538 74.2565 390.752 74.7592C390.923 75.1682 391.362 75.6034 392.071 76.0648L392.529 76.3462L399.021 79.9667L398.704 87.3015H365.825L365.517 77.5205L372.84 75.2845V44.1331L365.517 44.0243V33.6055L372.84 33.1815V26.2669C372.84 19.8888 374.678 14.9139 378.34 11.3309C382.009 7.75546 387.082 5.96584 393.582 5.96584L393.578 5.96209ZM434.489 31.4857V71.7803C434.489 73.2697 434.596 74.2565 434.806 74.7592C434.985 75.1719 435.424 75.6071 436.133 76.0723L436.591 76.35L441.717 79.3252L441.412 87.3053H409.991L409.472 77.5243L416.906 75.2882V49.4532C416.906 47.8887 416.749 46.8494 416.433 46.3129C416.166 45.8589 415.525 45.3374 414.514 44.7484L413.976 44.4483L409.815 44.4332V31.9097L434.493 31.482L434.489 31.4857ZM568.377 5.96584C568.873 7.324 569.266 8.77596 569.544 10.318L569.735 11.496V35.7328C573.576 33.9694 576.844 32.6675 579.526 31.8534C582.118 31.0532 584.819 30.6422 587.536 30.6341C598.128 30.6341 603.567 37.0084 603.853 49.7571L603.865 50.8339V71.7803C603.865 73.2697 603.971 74.2565 604.181 74.7592C604.36 75.1719 604.799 75.6071 605.505 76.0723L605.962 76.35L610.99 79.3252L610.578 87.3053H581.673L581.147 77.2054L586.281 75.7159V55.5124C586.281 52.3909 586.193 50.181 586.014 48.8717C585.846 47.551 585.27 46.5455 584.298 45.8327C583.31 45.1311 581.673 44.7747 579.369 44.7747C577.356 44.7747 574.556 45.0861 570.959 45.7164L569.735 45.9415V71.7803C569.735 73.2697 569.845 74.2565 570.051 74.7592C570.227 75.1719 570.643 75.6071 571.302 76.0723L571.73 76.35L576.856 79.3252L576.436 87.3053H546.075L545.552 77.2054L552.037 75.292V24.3573C552.037 22.7965 551.937 21.7873 551.724 21.3258C551.552 20.9431 551.136 20.5229 550.477 20.0652L550.053 19.7875L545.449 17.3376L545.758 9.25619L549.004 8.72718C558.216 7.02386 564.673 6.10841 568.381 5.96209L568.377 5.96584ZM142.151 30.6266C152.953 30.6266 158.499 37.0046 158.789 49.7533L158.8 50.8301V71.6715C158.8 73.1609 158.907 74.1477 159.117 74.6467C159.292 75.0594 159.731 75.5021 160.44 75.9598L160.898 76.2412L165.925 79.2126L165.502 87.1927H136.601L136.082 77.0928L141.213 75.6071V55.5086C141.213 52.3196 141.11 50.0797 140.896 48.8041C140.686 47.536 140.11 46.5418 139.168 45.8289C138.23 45.1273 136.567 44.7709 134.198 44.7709C131.963 44.7709 129.202 45.0748 125.921 45.6901L124.666 45.934V71.6715C124.666 73.1609 124.773 74.1477 124.983 74.6467C125.162 75.0594 125.578 75.5021 126.238 75.9598L126.661 76.2412L131.791 79.2089L131.372 87.189H101.011L100.477 77.0891L106.972 75.1719V49.4457C106.972 47.8849 106.869 46.8719 106.656 46.4142C106.488 46.0278 106.064 45.6113 105.408 45.1536L104.989 44.876L100.374 42.321L100.694 34.3484L102.994 33.9169C112.137 32.0748 118.735 31.088 122.782 30.9455C123.343 32.4274 123.793 34.067 124.144 35.8378C128.404 33.8494 131.875 32.4875 134.564 31.7408C137.031 31.0287 139.585 30.6525 142.155 30.6228L142.151 30.6266ZM315.661 43.3902C313.631 43.3902 311.713 43.6641 309.893 44.2344C308.58 47.3891 307.899 50.7639 307.887 54.173L307.902 55.5086L323.609 51.149C323.472 48.4552 322.725 46.4892 321.359 45.2436C319.997 44.0055 318.102 43.3902 315.661 43.3902ZM638.944 43.3902C636.993 43.3761 635.051 43.6609 633.188 44.2344C631.869 47.3875 631.188 50.7633 631.182 54.173L631.197 55.5086L646.904 51.149C646.767 48.4552 646.019 46.4892 644.654 45.2436C643.292 44.0055 641.389 43.3902 638.944 43.3902ZM193.88 43.3902C191.926 43.3772 189.982 43.662 188.116 44.2344C186.802 47.3889 186.122 50.764 186.114 54.173L186.129 55.5086L201.84 51.149C201.695 48.4552 200.947 46.4892 199.59 45.2436C198.224 44.0055 196.325 43.3902 193.88 43.3902ZM433.528 0.420654L438.258 17.4427L419.11 22.5939L414.388 5.4556L433.528 0.420654Z" fill="#252629"/>
</svg>
