<svg width="582" height="82" viewBox="0 0 582 82" fill="none" xmlns="http://www.w3.org/2000/svg">
<path fill-rule="evenodd" clip-rule="evenodd" d="M84.5944 20.6518C84.5944 7.73578 75.5499 0.701172 54.7179 0.701172C39.1577 0.701172 0.681519 8.44419 0.681519 27.0027C0.681519 45.5612 33.2516 81.6486 52.3373 81.6486C73.3093 81.6486 84.5944 33.5678 84.5944 20.6518ZM136.892 68.5901H153.194H153.202V14.5208H141.736V36.3578C141.736 45.0234 142.749 52.1239 143.449 56.4896L127.452 14.5208H111.538V68.5901H122.93V48.7713C122.93 39.4452 122.046 32.5703 121.419 27.6966C121.375 27.353 121.332 27.0193 121.291 26.6955L136.892 68.5901ZM195.09 23.6477H176.054V36.5967H192.669V45.567H176.054V59.3727H196.417V68.5819H163.262V14.5208H196.417L195.09 23.6477ZM238.865 68.5899H255.463L264.516 14.5288H252.349L246.031 58.9194L239.013 14.5288H225.595L218.107 58.9194L212.72 14.5288H199.927L208.824 68.5899H225.051L232.151 27.3213L238.865 68.5899ZM333.785 68.5899H317.187L310.473 27.3213L303.373 68.5899H287.146L278.249 14.5288H291.042L296.429 58.9194L303.917 14.5288H317.335L324.353 58.9194L330.671 14.5288H342.838L333.785 68.5899ZM370.545 69.9076C385.833 69.9076 394.96 59.2239 394.96 41.5138C394.96 23.4907 385.759 13.1941 370.545 13.1941C355.331 13.1941 346.204 23.4989 346.204 41.5138C346.204 59.5287 355.257 69.9076 370.545 69.9076ZM370.545 60.5501C363.527 60.5501 359.622 55.2453 359.622 41.5138C359.622 27.8564 363.296 22.5516 370.545 22.5516C377.794 22.5516 381.542 27.7823 381.542 41.5138C381.542 55.2453 377.563 60.5501 370.545 60.5501ZM420.403 47.9146H415.411V68.5901H402.618V14.5208H420.329C434.999 14.5208 442.561 19.7515 442.561 30.9789C442.561 38.0794 439.208 42.2886 432.182 45.567L445.913 68.5819H431.482L420.403 47.9064V47.9146ZM415.411 39.1008H420.798C426.416 39.1008 429.381 36.679 429.381 30.9871C429.381 25.7564 426.342 23.4994 420.016 23.4994H415.411V39.1008ZM450.757 68.5901H463.549V14.5208H450.757V68.5901ZM477.358 38.7921L496.004 68.5901H481.177L463.936 39.7268L481.103 14.5291H494.595L477.358 38.7921ZM544.32 20.2166L541.594 23.182C537.615 19.7471 534.024 18.2644 529.114 18.2644C522.558 18.2644 518.035 21.6993 518.035 27.3171C518.035 32.9349 520.918 35.2743 530.515 38.1573C540.111 41.1227 545.96 44.5577 545.96 53.9976C545.96 63.4374 539.016 69.4424 528.25 69.4424C520.918 69.4424 515.531 66.8641 511.165 62.729L513.892 59.7636C517.796 63.1986 521.932 65.4556 528.167 65.4556C535.655 65.4556 541.198 61.3205 541.198 54.1458C541.198 47.6713 538.002 45.019 528.48 42.0535C517.871 38.7751 513.266 35.1095 513.266 27.383C513.266 19.6565 519.584 14.2775 528.95 14.2775C535.894 14.2775 540.103 16.4604 544.32 20.2084V20.2166ZM558.833 19.048H580.753H580.761L581.305 15.1436H554.155V68.5951H581.848V64.6906H558.833V42.8454H577.787V38.941H558.833V19.048Z" fill="#0E7171"/>
</svg>
