<svg width="550" height="157" viewBox="0 0 550 157" fill="none" xmlns="http://www.w3.org/2000/svg">
<path fill-rule="evenodd" clip-rule="evenodd" d="M358.964 21.7864H328.758V1.53418H358.964V21.7864ZM328.758 122.864V35.6812H358.964V122.864H328.758ZM232.322 69.4839C232.837 62.9661 236.102 58.4987 239.527 55.761C244.67 51.6372 250.34 50.9614 256.514 50.9614C262.173 50.9614 269.218 51.4769 274.361 56.1046C276.766 58.1665 280.191 62.4506 280.535 69.4954H232.31L232.322 69.4839ZM280.031 94.3639C278.828 100.023 275.564 102.944 272.31 104.49C268.015 106.552 261.153 106.896 256.697 106.896C250.867 106.896 242.631 106.208 237.476 101.065C234.555 98.144 231.817 93.0008 231.817 85.452V84.9366H311.612V81.8437C311.612 71.374 310.581 57.3074 299.768 46.494C287.923 34.6497 269.905 32.4274 256.354 32.4274C242.803 32.4274 225.975 34.3175 213.971 45.99C202.47 57.147 200.924 71.7291 200.924 80.6524C200.924 91.4658 202.986 103.31 212.94 113.253C224.097 124.41 239.023 126.128 258.759 126.128C272.826 126.128 283.296 125.097 291.532 121.501C303.376 116.185 309.378 105.544 310.409 94.3868H280.031V94.3639ZM72.3868 59.3591C68.6067 55.0749 62.948 52.1539 54.5401 52.1539C49.0532 52.1539 42.8676 53.3567 37.7243 58.8436C32.9247 63.9983 30.3474 71.8907 30.3474 79.6113C30.3474 86.6446 32.4093 94.7203 37.2089 99.6917C40.4735 102.945 45.9604 106.381 55.0556 106.381C61.917 106.381 67.5872 105.007 72.3868 99.348C78.3891 92.3147 78.7328 82.1886 78.7328 79.0958C78.7328 70.6879 76.3387 63.8265 72.3868 59.3591ZM1 154.606V35.6933H29.8319V46.6785H30.3474C33.612 42.3829 37.7243 39.1298 41.6763 37.0679C48.8928 33.4596 57.1289 32.9441 63.3031 32.9441C74.2883 32.9441 86.9803 34.1469 97.2782 43.9293C108.263 54.2273 109.982 67.7784 109.982 78.5918C109.982 89.4052 108.092 103.815 97.2782 114.457C86.6367 124.755 73.7728 125.614 62.9594 125.614C51.1151 125.614 45.6282 123.896 42.879 122.693C38.2398 120.803 33.9557 117.206 31.2065 113.598V154.606H1ZM187.36 33.6224C190.109 33.6224 192.504 33.7943 195.253 34.3097V55.0889C193.706 54.9171 191.14 54.7452 188.907 54.7452C180.499 54.7452 174.153 56.452 169.685 59.5448C158.357 67.2769 157.326 83.5771 157.326 90.095V122.867H127.119V35.6958H156.123V49.9342C158.357 46.1541 162.48 41.1827 169.342 37.5744C175 34.6534 181.014 33.6224 187.36 33.6224ZM372.347 54.2146H390.881V99.8623C390.881 105.177 391.052 112.909 397.227 118.74C403.916 125.086 414.902 125.43 421.076 125.43C428.453 125.43 434.295 124.914 441.672 122.68V103.803C438.407 104.834 435.497 105.177 432.748 105.177C426.402 105.177 423.997 102.772 423.481 102.256C421.076 99.679 421.076 95.5667 421.076 92.3021V54.2146H441.328V35.6806H421.076V9.76971H390.869V35.6806H372.335V54.2146H372.347ZM473.763 155.637C467.245 155.637 462.778 155.294 456.432 153.232V134.537C460.728 135.912 464.324 136.084 465.527 136.084C469.307 136.084 473.248 135.225 475.825 133.163C478.563 130.929 481.14 126.13 482.343 122.693L484.061 117.55L446.993 35.6933H477.372L500.533 93.8726L520.785 35.6933H549.102L512.034 124.411L511.731 125.127C508.059 133.8 504.49 142.233 498.815 147.573C491.094 154.95 482.343 155.637 473.763 155.637Z" fill="#E72887"/>
<path d="M328.758 21.7864H328.185V22.3591H328.758V21.7864ZM358.964 21.7864V22.3591H359.537V21.7864H358.964ZM328.758 1.53418V0.961436H328.185V1.53418H328.758ZM358.964 1.53418H359.537V0.961436H358.964V1.53418ZM328.758 35.6812V35.1084H328.185V35.6812H328.758ZM328.758 122.864H328.185V123.437H328.758V122.864ZM358.964 35.6812H359.537V35.1084H358.964V35.6812ZM358.964 122.864V123.437H359.537V122.864H358.964ZM239.527 55.761L239.884 56.2084L239.885 56.2078L239.527 55.761ZM232.322 69.4839L232.726 69.8891L232.876 69.7397L232.892 69.5291L232.322 69.4839ZM274.361 56.1046L273.978 56.5305L273.988 56.5395L274.361 56.1046ZM280.535 69.4954V70.0681H281.136L281.107 69.4675L280.535 69.4954ZM232.31 69.4954L231.905 69.0903L230.927 70.0681H232.31V69.4954ZM272.31 104.49L272.065 103.973L272.063 103.974L272.31 104.49ZM280.031 94.3639H280.604V88.9145L279.471 94.2448L280.031 94.3639ZM237.476 101.065L237.071 101.47L237.072 101.47L237.476 101.065ZM231.817 84.9366V84.3638H231.245V84.9366H231.817ZM311.612 84.9366V85.5093H312.185V84.9366H311.612ZM299.768 46.494L300.173 46.089L300.173 46.089L299.768 46.494ZM213.971 45.99L214.37 46.4011L214.37 46.4006L213.971 45.99ZM212.94 113.253L213.345 112.848L213.345 112.848L212.94 113.253ZM291.532 121.501L291.761 122.025L291.766 122.023L291.532 121.501ZM310.409 94.3868L310.98 94.4395L311.037 93.8141H310.409V94.3868ZM280.031 94.3868H279.458V94.9596H280.031V94.3868ZM72.3868 59.3591L71.9573 59.738L71.9578 59.7386L72.3868 59.3591ZM37.7243 58.8436L37.3065 58.4519L37.3052 58.4533L37.7243 58.8436ZM37.2089 99.6917L36.7967 100.09L36.8046 100.097L37.2089 99.6917ZM72.3868 99.348L71.9511 98.9762L71.95 98.9776L72.3868 99.348ZM1 35.6933V35.1206H0.427256V35.6933H1ZM1 154.606H0.427256V155.179H1V154.606ZM29.8319 35.6933H30.4047V35.1206H29.8319V35.6933ZM29.8319 46.6785H29.2592V47.2513H29.8319V46.6785ZM30.3474 46.6785V47.2513H30.6315L30.8034 47.0251L30.3474 46.6785ZM41.6763 37.0679L41.4201 36.5555L41.4113 36.5601L41.6763 37.0679ZM97.2782 43.9293L96.8838 44.3446L96.8865 44.3472L97.2782 43.9293ZM97.2782 114.457L97.6765 114.869L97.68 114.865L97.2782 114.457ZM42.879 122.693L43.1086 122.168L43.1019 122.165L43.0951 122.163L42.879 122.693ZM31.2065 113.598L31.6621 113.251L30.6338 111.901V113.598H31.2065ZM31.2065 154.606V155.179H31.7793V154.606H31.2065ZM195.253 34.3097H195.825V33.8344L195.358 33.7468L195.253 34.3097ZM195.253 55.0889L195.189 55.6581L195.825 55.7288V55.0889H195.253ZM169.685 59.5448L170.008 60.0179L170.011 60.0157L169.685 59.5448ZM157.326 122.867V123.44H157.898V122.867H157.326ZM127.119 122.867H126.546V123.44H127.119V122.867ZM127.119 35.6958V35.123H126.546V35.6958H127.119ZM156.123 35.6958H156.696V35.123H156.123V35.6958ZM156.123 49.9342H155.55V52.0293L156.616 50.2256L156.123 49.9342ZM169.342 37.5744L169.079 37.0654L169.075 37.0674L169.342 37.5744ZM390.881 54.2146H391.453V53.6419H390.881V54.2146ZM397.227 118.74L397.621 118.324L397.62 118.324L397.227 118.74ZM441.672 122.68L441.838 123.229L442.244 123.105V122.68H441.672ZM441.672 103.803H442.244V103.021L441.499 103.257L441.672 103.803ZM423.481 102.256L423.063 102.647L423.069 102.654L423.076 102.661L423.481 102.256ZM421.076 54.2146V53.6419H420.503V54.2146H421.076ZM441.328 54.2146V54.7874H441.901V54.2146H441.328ZM441.328 35.6806H441.901V35.1079H441.328V35.6806ZM421.076 35.6806H420.503V36.2534H421.076V35.6806ZM421.076 9.76971H421.648V9.19697H421.076V9.76971ZM390.869 9.76971V9.19697H390.296V9.76971H390.869ZM390.869 35.6806V36.2534H391.442V35.6806H390.869ZM372.335 35.6806V35.1079H371.762V35.6806H372.335ZM372.335 54.2146H371.762V54.7874H372.335V54.2146ZM456.432 153.232H455.859V153.648L456.255 153.776L456.432 153.232ZM456.432 134.537L456.607 133.992L455.859 133.753V134.537H456.432ZM475.825 133.163L476.183 133.61L476.187 133.607L475.825 133.163ZM482.343 122.693L482.884 122.882L482.886 122.875L482.343 122.693ZM484.061 117.55L484.604 117.731L484.676 117.518L484.583 117.314L484.061 117.55ZM446.993 35.6933V35.1206H446.105L446.471 35.9296L446.993 35.6933ZM477.372 35.6933L477.904 35.4815L477.76 35.1206H477.372V35.6933ZM500.533 93.8726L500.001 94.0844L500.569 95.5114L501.074 94.0609L500.533 93.8726ZM520.785 35.6933V35.1206H520.378L520.245 35.505L520.785 35.6933ZM549.102 35.6933L549.63 35.9141L549.962 35.1206H549.102V35.6933ZM512.034 124.411L512.561 124.635L512.562 124.632L512.034 124.411ZM511.731 125.127L511.204 124.904L511.204 124.904L511.731 125.127ZM498.815 147.573L498.423 147.156L498.419 147.159L498.815 147.573ZM328.758 22.3591H358.964V21.2137H328.758V22.3591ZM328.185 1.53418V21.7864H329.33V1.53418H328.185ZM358.964 0.961436H328.758V2.10692H358.964V0.961436ZM359.537 21.7864V1.53418H358.391V21.7864H359.537ZM328.185 35.6812V122.864H329.33V35.6812H328.185ZM358.964 35.1084H328.758V36.2539H358.964V35.1084ZM359.537 122.864V35.6812H358.391V122.864H359.537ZM328.758 123.437H358.964V122.291H328.758V123.437ZM239.169 55.3136C235.644 58.1315 232.281 62.7356 231.751 69.4388L232.892 69.5291C233.393 63.1966 236.559 58.8659 239.884 56.2084L239.169 55.3136ZM256.514 50.3887C250.303 50.3887 244.468 51.0653 239.168 55.3141L239.885 56.2078C244.872 52.2092 250.377 51.5341 256.514 51.5341V50.3887ZM274.744 55.6789C269.425 50.8931 262.176 50.3887 256.514 50.3887V51.5341C262.17 51.5341 269.01 52.0606 273.978 56.5304L274.744 55.6789ZM281.107 69.4675C280.754 62.2322 277.231 57.8103 274.734 55.6698L273.988 56.5395C276.302 58.5228 279.629 62.6691 279.963 69.5233L281.107 69.4675ZM232.31 70.0681H280.535V68.9226H232.31V70.0681ZM231.917 69.0788L231.905 69.0903L232.715 69.9005L232.726 69.8891L231.917 69.0788ZM272.556 105.007C275.946 103.396 279.346 100.342 280.591 94.483L279.471 94.2448C278.311 99.7037 275.182 102.491 272.065 103.973L272.556 105.007ZM256.697 107.468C258.938 107.468 261.793 107.382 264.634 107.035C267.466 106.688 270.327 106.077 272.558 105.006L272.063 103.974C269.998 104.965 267.281 105.557 264.495 105.897C261.717 106.237 258.913 106.323 256.697 106.323V107.468ZM237.072 101.47C242.409 106.795 250.871 107.468 256.697 107.468V106.323C250.862 106.323 242.853 105.621 237.881 100.66L237.072 101.47ZM231.245 85.452C231.245 93.1458 234.038 98.4368 237.071 101.47L237.881 100.66C235.072 97.8513 232.39 92.8558 232.39 85.452H231.245ZM231.245 84.9366V85.452H232.39V84.9366H231.245ZM311.612 84.3638H231.817V85.5093H311.612V84.3638ZM311.039 81.8437V84.9366H312.185V81.8437H311.039ZM299.363 46.899C310.002 57.5381 311.039 71.3934 311.039 81.8437H312.185C312.185 71.3546 311.161 57.0767 300.173 46.089L299.363 46.899ZM256.354 33.0002C269.881 33.0002 287.691 35.2273 299.363 46.899L300.173 46.089C288.156 34.072 269.929 31.8547 256.354 31.8547V33.0002ZM214.37 46.4006C226.203 34.8947 242.827 33.0002 256.354 33.0002V31.8547C242.778 31.8547 225.748 33.7402 213.572 45.5794L214.37 46.4006ZM201.496 80.6524C201.496 71.7789 203.038 57.3942 214.37 46.4011L213.572 45.5789C201.902 56.8999 200.351 71.6793 200.351 80.6524H201.496ZM213.345 112.848C203.543 103.057 201.496 91.3924 201.496 80.6524H200.351C200.351 91.5392 202.428 103.563 212.535 113.658L213.345 112.848ZM258.759 125.556C239.021 125.556 224.32 123.824 213.345 112.848L212.535 113.658C223.873 124.996 239.024 126.701 258.759 126.701V125.556ZM291.303 120.976C283.183 124.522 272.817 125.556 258.759 125.556V126.701C272.835 126.701 283.408 125.673 291.761 122.025L291.303 120.976ZM309.839 94.3341C308.824 105.32 302.924 115.761 291.297 120.978L291.766 122.023C303.829 116.61 309.933 105.768 310.98 94.4395L309.839 94.3341ZM280.031 94.9596H310.409V93.8141H280.031V94.9596ZM279.458 94.3639V94.3868H280.604V94.3639H279.458ZM54.5401 52.7267C62.7983 52.7267 68.2953 55.5877 71.9573 59.738L72.8162 58.9801C68.9181 54.5622 63.0977 51.5812 54.5401 51.5812V52.7267ZM38.1422 59.2353C43.1367 53.9071 49.1405 52.7267 54.5401 52.7267V51.5812C48.9659 51.5812 42.5985 52.8063 37.3065 58.4519L38.1422 59.2353ZM30.9201 79.6113C30.9201 72.0005 33.4641 64.2595 38.1435 59.2339L37.3052 58.4533C32.3854 63.7371 29.7746 71.7809 29.7746 79.6113H30.9201ZM37.6209 99.2939C32.9642 94.4705 30.9201 86.5656 30.9201 79.6113H29.7746C29.7746 86.7236 31.8543 94.9701 36.7968 100.089L37.6209 99.2939ZM55.0556 105.809C46.1262 105.809 40.781 102.443 37.6131 99.286L36.8046 100.097C40.166 103.447 45.7946 106.954 55.0556 106.954V105.809ZM71.95 98.9776C67.3004 104.459 61.825 105.809 55.0556 105.809V106.954C62.009 106.954 67.874 105.554 72.8236 99.7185L71.95 98.9776ZM78.16 79.0958C78.16 82.1836 77.8064 92.1152 71.9511 98.9762L72.8224 99.7198C78.9718 92.5142 79.3055 82.1937 79.3055 79.0958H78.16ZM71.9578 59.7386C75.7944 64.0756 78.16 70.7891 78.16 79.0958H79.3055C79.3055 70.5867 76.8831 63.5774 72.8158 58.9796L71.9578 59.7386ZM0.427256 35.6933V154.606H1.57274V35.6933H0.427256ZM29.8319 35.1206H1V36.266H29.8319V35.1206ZM30.4047 46.6785V35.6933H29.2592V46.6785H30.4047ZM30.3474 46.1058H29.8319V47.2513H30.3474V46.1058ZM41.4113 36.5601C37.3891 38.6587 33.21 41.9653 29.8914 46.332L30.8034 47.0251C34.014 42.8005 38.0596 39.6008 41.9412 37.5757L41.4113 36.5601ZM63.3031 32.3714C57.1109 32.3714 48.7617 32.8848 41.4201 36.5556L41.9324 37.5802C49.0239 34.0344 57.1469 33.5169 63.3031 33.5169V32.3714ZM97.6727 43.5141C87.2059 33.5712 74.3172 32.3714 63.3031 32.3714V33.5169C74.2594 33.5169 86.7547 34.7226 96.8838 44.3446L97.6727 43.5141ZM110.554 78.5918C110.554 67.7316 108.832 53.9757 97.6699 43.5115L96.8865 44.3472C107.694 54.4789 109.409 67.8252 109.409 78.5918H110.554ZM97.68 114.865C108.661 104.059 110.554 89.4515 110.554 78.5918H109.409C109.409 89.3589 107.522 103.572 96.8765 114.049L97.68 114.865ZM62.9594 126.187C73.7919 126.187 86.8617 125.334 97.6765 114.869L96.8799 114.045C86.4116 124.176 73.7537 125.041 62.9594 125.041V126.187ZM42.6495 123.218C45.4889 124.46 51.0582 126.187 62.9594 126.187V125.041C51.1719 125.041 45.7675 123.332 43.1086 122.168L42.6495 123.218ZM30.7509 113.945C33.5529 117.623 37.9157 121.289 42.6629 123.223L43.0951 122.163C38.5639 120.317 34.3585 116.79 31.6621 113.251L30.7509 113.945ZM31.7793 154.606V113.598H30.6338V154.606H31.7793ZM1 155.179H31.2065V154.034H1V155.179ZM195.358 33.7468C192.568 33.2236 190.137 33.0497 187.36 33.0497V34.1952C190.082 34.1952 192.439 34.365 195.147 34.8727L195.358 33.7468ZM195.825 55.0889V34.3097H194.68V55.0889H195.825ZM188.907 55.318C191.117 55.318 193.662 55.4884 195.189 55.6581L195.316 54.5196C193.75 54.3457 191.163 54.1725 188.907 54.1725V55.318ZM170.011 60.0157C174.351 57.0115 180.569 55.318 188.907 55.318V54.1725C180.429 54.1725 173.955 55.8925 169.359 59.0739L170.011 60.0157ZM157.898 90.095C157.898 86.8609 158.155 81.2162 159.808 75.4326C161.462 69.6461 164.496 63.78 170.008 60.0179L169.363 59.0718C163.546 63.0417 160.4 69.1917 158.706 75.1178C157.012 81.0469 156.753 86.8112 156.753 90.095H157.898ZM157.898 122.867V90.095H156.753V122.867H157.898ZM127.119 123.44H157.326V122.295H127.119V123.44ZM126.546 35.6958V122.867H127.692V35.6958H126.546ZM156.123 35.123H127.119V36.2685H156.123V35.123ZM156.696 49.9342V35.6958H155.55V49.9342H156.696ZM169.075 37.0674C162.103 40.7338 157.907 45.7887 155.63 49.6428L156.616 50.2256C158.806 46.5195 162.857 41.6315 169.608 38.0813L169.075 37.0674ZM187.36 33.0497C180.951 33.0497 174.841 34.0912 169.079 37.0654L169.604 38.0833C175.16 35.2156 181.077 34.1952 187.36 34.1952V33.0497ZM390.881 53.6419H372.347V54.7874H390.881V53.6419ZM391.453 99.8623V54.2146H390.308V99.8623H391.453ZM397.62 118.324C391.641 112.678 391.453 105.185 391.453 99.8623H390.308C390.308 105.17 390.464 113.141 396.833 119.156L397.62 118.324ZM421.076 124.857C417.996 124.857 413.754 124.77 409.458 123.903C405.159 123.035 400.857 121.395 397.621 118.324L396.832 119.155C400.286 122.431 404.822 124.136 409.231 125.026C413.644 125.917 417.981 126.002 421.076 126.002V124.857ZM441.506 122.132C434.199 124.345 428.417 124.857 421.076 124.857V126.002C428.489 126.002 434.39 125.484 441.838 123.229L441.506 122.132ZM441.099 103.803V122.68H442.244V103.803H441.099ZM432.748 105.75C435.549 105.75 438.517 105.399 441.844 104.349L441.499 103.257C438.297 104.268 435.446 104.605 432.748 104.605V105.75ZM423.076 102.661C423.36 102.945 424.146 103.726 425.691 104.431C427.231 105.134 429.501 105.75 432.748 105.75V104.605C429.65 104.605 427.544 104.018 426.166 103.389C424.793 102.762 424.118 102.083 423.886 101.851L423.076 102.661ZM420.503 92.3021C420.503 93.9263 420.502 95.8193 420.812 97.6335C421.123 99.4505 421.754 101.245 423.063 102.647L423.9 101.866C422.803 100.69 422.232 99.14 421.941 97.4404C421.65 95.7379 421.648 93.9425 421.648 92.3021H420.503ZM420.503 54.2146V92.3021H421.648V54.2146H420.503ZM441.328 53.6419H421.076V54.7874H441.328V53.6419ZM440.755 35.6806V54.2146H441.901V35.6806H440.755ZM421.076 36.2534H441.328V35.1079H421.076V36.2534ZM420.503 9.76971V35.6806H421.648V9.76971H420.503ZM390.869 10.3425H421.076V9.19697H390.869V10.3425ZM391.442 35.6806V9.76971H390.296V35.6806H391.442ZM372.335 36.2534H390.869V35.1079H372.335V36.2534ZM372.908 54.2146V35.6806H371.762V54.2146H372.908ZM372.347 53.6419H372.335V54.7874H372.347V53.6419ZM456.255 153.776C462.679 155.864 467.212 156.21 473.763 156.21V155.065C467.279 155.065 462.877 154.724 456.609 152.687L456.255 153.776ZM455.859 134.537V153.232H457.005V134.537H455.859ZM465.527 135.511C464.367 135.511 460.832 135.344 456.607 133.992L456.257 135.083C460.623 136.48 464.282 136.657 465.527 136.657V135.511ZM475.467 132.716C473.035 134.661 469.247 135.511 465.527 135.511V136.657C469.367 136.657 473.46 135.788 476.183 133.61L475.467 132.716ZM481.802 122.504C481.214 124.185 480.285 126.209 479.168 128.086C478.045 129.97 476.757 131.663 475.463 132.719L476.187 133.607C477.631 132.429 479 130.605 480.152 128.672C481.308 126.731 482.269 124.638 482.884 122.882L481.802 122.504ZM483.518 117.368L481.8 122.512L482.886 122.875L484.604 117.731L483.518 117.368ZM446.471 35.9296L483.539 117.786L484.583 117.314L447.515 35.457L446.471 35.9296ZM477.372 35.1206H446.993V36.266H477.372V35.1206ZM501.065 93.6608L477.904 35.4815L476.839 35.9051L500.001 94.0844L501.065 93.6608ZM520.245 35.505L499.992 93.6843L501.074 94.0609L521.326 35.8816L520.245 35.505ZM549.102 35.1206H520.785V36.266H549.102V35.1206ZM512.562 124.632L549.63 35.9141L548.573 35.4725L511.505 124.19L512.562 124.632ZM512.258 125.35L512.561 124.635L511.507 124.188L511.204 124.904L512.258 125.35ZM499.208 147.99C504.988 142.55 508.601 133.989 512.258 125.35L511.204 124.904C507.517 133.612 503.991 141.916 498.423 147.156L499.208 147.99ZM473.763 156.21C482.369 156.21 491.32 155.527 499.211 147.987L498.419 147.159C490.869 154.373 482.317 155.065 473.763 155.065V156.21Z" fill="#E72887"/>
</svg>
