<svg width="611" height="130" viewBox="0 0 611 130" fill="none" xmlns="http://www.w3.org/2000/svg">
<path d="M121.072 84.3679C121.072 84.3679 139.088 70.1451 140.51 64.6931C141.221 61.8485 133.636 47.3887 132.45 46.2034C131.265 44.7812 129.606 39.5661 127.235 38.855C120.124 36.7216 117.754 33.877 117.042 32.4547C117.042 32.4547 116.331 28.425 116.331 27.4768C116.331 26.5286 117.279 25.1063 117.279 25.1063C117.279 25.1063 117.991 25.1063 121.783 25.5804C125.576 26.0545 127.235 25.3433 127.947 24.6322C128.658 23.684 128.184 22.4988 128.184 20.3654C128.184 18.232 129.843 16.3356 129.843 16.3356C129.843 16.3356 127.235 15.6244 125.813 14.4392C124.391 13.254 122.494 9.46123 122.494 9.46123C122.494 9.46123 122.969 8.276 121.783 6.37963C120.598 4.48326 116.094 4.48326 116.094 4.48326C116.094 4.48326 115.857 2.82393 114.909 2.1128C113.961 1.16461 110.879 -0.968809 103.294 1.40166C99.5009 2.58689 96.4193 6.37963 94.523 13.491C92.6266 21.0765 83.1447 24.3952 79.589 22.9729C67.0256 18.232 59.4401 24.1581 59.4401 24.1581C59.4401 24.1581 67.4997 22.7358 70.8183 24.6322C73.4258 26.0545 64.8922 30.3213 64.8922 30.3213C64.8922 30.3213 72.4777 28.1879 77.6927 29.1361C79.115 29.3731 76.9815 30.0843 72.7147 31.5066C67.7367 33.4029 67.0256 36.7216 67.0256 36.7216C67.0256 36.7216 72.4777 31.7436 82.1966 32.4547C85.0411 32.6918 70.3442 38.618 70.3442 38.618C70.3442 38.618 87.6486 37.4327 93.5748 34.3511C97.6046 32.2177 102.108 28.425 104.005 28.1879C107.798 27.7138 105.901 32.6918 106.375 32.9288C105.664 33.4029 102.583 33.4029 101.397 34.1141C97.3675 34.8252 95.9453 34.5882 92.6266 37.1957C91.9155 37.6698 87.4116 41.4625 86.7004 41.6996C85.9893 42.1736 77.2186 45.2553 76.2704 45.7293C70.5813 48.5739 48.536 54.263 45.2173 56.1594C41.6616 57.8187 30.5204 62.7967 26.2536 72.0415C22.2238 81.2863 24.3572 85.0791 22.9349 89.1089C21.7497 93.1386 0.415527 100.013 0.415527 100.013C0.415527 100.013 14.8754 112.576 20.5645 110.917C26.2536 109.258 37.8689 100.487 45.2173 104.991C52.5657 109.495 55.6473 129.881 55.6473 129.881C55.6473 129.881 76.2704 105.939 79.8261 98.5907C82.1966 93.6127 84.0929 77.2565 84.8041 70.6192C89.782 76.0713 96.1823 86.2643 96.1823 86.2643C96.1823 86.2643 99.738 95.2721 107.798 95.2721C117.042 95.2721 121.072 84.3679 121.072 84.3679ZM120.361 61.8485C120.361 61.8485 123.917 61.3744 124.865 58.5299C125.813 55.6853 123.917 50.2332 123.917 50.2332C123.917 50.2332 133.162 61.1374 132.687 63.7449C132.213 66.3524 119.65 77.9677 119.65 77.9677C119.65 77.9677 119.176 74.8861 118.939 72.5156C118.702 70.1451 120.361 61.8485 120.361 61.8485ZM91.6784 68.0117C93.1007 67.7747 96.6564 60.6633 98.5528 59.7151C98.5528 59.7151 100.212 66.5894 100.212 69.9081C100.449 73.2267 98.3157 77.2565 98.3157 77.2565C98.3157 77.2565 94.0489 71.0933 91.6784 68.0117Z" fill="#272652"/>
<path d="M164.921 76.778C165.632 80.8078 169.425 83.4153 174.64 83.4153C180.566 83.4153 184.596 80.3337 184.596 75.8298C184.596 72.5112 182.225 70.1407 176.773 67.5332L169.899 64.2145C165.869 62.3182 164.921 61.607 163.024 59.7106C160.18 56.8661 158.758 53.5474 158.758 49.9917C158.758 41.221 166.106 34.1096 175.351 34.1096C182.699 34.1096 187.44 37.6653 190.996 45.9619L182.699 48.8065C180.566 44.7767 178.195 43.1174 174.64 43.1174C170.61 43.1174 167.291 46.199 167.291 49.7547C167.291 51.6511 168.239 53.0733 169.899 54.4956C170.61 54.9697 170.61 54.9697 176.536 58.0513L183.884 61.607C189.811 64.6886 192.892 69.6666 192.892 76.3039C192.892 85.7858 184.833 92.6601 173.929 92.6601C169.899 92.6601 165.869 91.4749 162.787 89.3414C159.232 86.971 157.572 84.3635 155.913 79.3855L164.921 76.778Z" fill="#272652"/>
<path d="M211.855 34.8179V75.8269C211.855 80.0937 215.411 83.6494 219.678 83.6494C223.945 83.6494 227.5 80.3308 227.5 76.301V34.8179H236.745V75.3528C236.745 84.8347 229.16 92.4202 219.915 92.4202C210.67 92.4202 202.61 84.3606 202.61 75.1158V34.8179C202.61 34.8179 211.855 34.8179 211.855 34.8179Z" fill="#272652"/>
<path d="M264.006 34.8179C268.984 34.8179 272.776 36.0031 276.332 38.6106C281.31 42.4034 284.155 48.5666 284.155 54.7298C284.155 60.893 281.31 66.5821 276.569 70.6119C272.776 73.6935 269.221 74.8787 264.006 74.8787H259.028V91.9461H250.02V35.0549L264.006 34.8179ZM259.265 65.3969H264.717C270.643 65.3969 275.384 60.893 275.384 54.7298C275.384 48.5666 270.88 43.8256 264.954 43.8256H259.502L259.265 65.3969Z" fill="#272652"/>
<path d="M293.162 34.8179H321.371V43.8256H301.933V58.0484H314.496V67.2932H301.933V82.4642H322.793V91.472H292.925V34.8179H293.162Z" fill="#272652"/>
<path d="M348.158 34.8179C353.373 34.8179 356.217 35.529 359.773 38.1365C365.462 41.9293 368.781 48.0925 368.781 54.9668C368.781 61.8412 365.699 67.2932 359.536 71.7971L369.255 91.9461H359.536L351.239 74.8787H344.128V91.9461H335.12V35.0549L348.158 34.8179ZM348.395 65.1598C351.476 65.1598 353.373 64.4487 355.506 63.2634C358.113 61.3671 359.773 58.0484 359.773 54.7298C359.773 48.5666 355.032 43.8256 348.869 43.8256H344.128V65.1598H348.395Z" fill="#272652"/>
<path d="M380.39 34.8179H389.635V58.5225H405.754V34.8179H414.762V91.709H405.754V67.7673H389.635V91.709H380.39V34.8179Z" fill="#272652"/>
<path d="M429.468 34.8179H457.676V43.8256H438.239V58.0484H450.802V67.2932H438.239V82.4642H459.099V91.472H429.231V34.8179H429.468Z" fill="#272652"/>
<path d="M471.415 34.8179H480.423V82.4642H498.675V91.709H471.415V34.8179Z" fill="#272652"/>
<path d="M507.454 34.8179H521.203C526.892 34.8179 529.499 35.292 532.344 36.9513C535.426 38.8477 537.559 41.4552 538.981 45.9591C540.641 51.4111 541.589 57.5743 541.589 64.2116C541.589 74.1676 539.692 81.7531 535.9 86.494C532.581 90.5238 529.974 91.472 521.203 91.472H507.691V34.8179H507.454ZM516.699 82.4642H521.914C526.181 82.4642 527.603 81.9901 529.262 80.0937C531.633 77.4862 532.344 73.4564 532.344 64.6857C532.344 58.5225 531.633 52.5964 530.922 49.0407C529.973 45.485 527.603 43.5886 523.573 43.5886H516.462V82.4642H516.699Z" fill="#272652"/>
<path d="M553.436 34.8179H562.444V91.709H553.436V34.8179Z" fill="#272652"/>
<path d="M577.146 34.8179H586.153L601.561 71.323V34.8179H610.569V91.709H600.139L586.153 57.3373V91.709H577.146V34.8179Z" fill="#272652"/>
</svg>
