<svg width="565" height="220" viewBox="0 0 565 220" fill="none" xmlns="http://www.w3.org/2000/svg">
<path d="M384.477 188.412C379.549 188.412 375.853 192.092 375.853 196.753C375.853 201.659 379.795 205.339 384.477 205.339C389.405 205.339 393.1 201.659 393.1 196.753C393.1 192.092 389.405 188.412 384.477 188.412ZM384.477 203.622C380.534 203.622 377.824 200.678 377.824 196.753C377.824 193.073 380.534 189.884 384.477 189.884C388.419 189.884 390.883 192.828 390.883 196.753C390.883 200.678 388.173 203.622 384.477 203.622Z" fill="black"/>
<path d="M386.448 196.993C387.434 196.503 388.173 195.767 388.173 195.031C388.173 194.295 387.927 193.559 387.434 193.068C386.695 192.823 386.202 192.332 384.477 192.332C382.999 192.332 382.013 192.332 381.274 192.577V201.164H383.245V197.729H384.231C385.217 197.729 385.956 198.22 385.956 198.956C386.202 199.937 386.448 200.673 386.695 200.918H388.912C388.666 200.673 388.666 200.182 388.173 198.71C387.68 197.974 387.188 197.484 386.448 196.993ZM384.231 196.503H383.245V194.049H384.231C385.463 194.049 385.956 194.54 385.956 195.276C386.202 196.012 385.217 196.503 384.231 196.503Z" fill="black"/>
<path d="M243.784 23.0605H247.48V2.69856H251.423V0H239.349V2.69856H243.784V23.0605Z" fill="black"/>
<path d="M269.66 11.5302H275.081V23.0605H278.777V0H275.081V8.83166H269.66V0H265.964V23.0605H269.66V11.5302Z" fill="black"/>
<path d="M305.632 20.1166H299.225V12.2662H304.646V9.56764H299.225V2.94389H305.632V0H295.529V23.0605H305.632V20.1166Z" fill="black"/>
<path d="M190.813 216.131C190.567 216.131 190.567 216.131 190.32 216.131C190.074 216.131 190.074 216.131 189.827 216.131C188.842 215.886 187.856 215.15 186.871 213.923C186.132 212.697 185.639 210.489 185.639 207.3C185.639 204.11 186.132 201.657 186.871 200.185C187.61 198.713 188.842 197.977 190.32 197.977C190.813 197.977 191.059 197.977 191.552 198.223C192.045 198.223 192.291 198.468 192.784 198.468V195.524C192.291 195.524 191.799 195.279 191.059 195.279C190.567 195.279 190.074 195.279 189.581 195.279C187.364 195.279 185.392 196.015 184.16 197.732C182.682 199.449 182.189 202.639 182.189 207.3C182.189 211.716 182.928 214.659 184.653 216.377C186.132 217.849 188.103 218.83 190.074 218.83H190.567H191.059C191.306 218.83 191.799 218.83 192.045 218.585C192.538 218.585 192.784 218.339 193.031 218.339V215.886C192.784 215.886 192.291 216.131 192.045 216.131C191.552 216.131 191.306 216.131 190.813 216.131Z" fill="black"/>
<path d="M214.467 195.522C211.757 195.522 210.032 196.749 209.047 198.957C208.061 201.165 207.568 204.109 207.568 207.788C207.568 211.959 208.308 214.903 209.54 216.62C210.772 218.337 212.743 219.073 214.96 219.073C217.424 219.073 219.149 218.092 220.135 215.884C221.12 213.676 221.367 210.978 221.367 207.543C221.367 203.373 220.874 200.429 219.642 198.466C218.656 196.749 216.931 195.768 214.467 195.522ZM217.178 214.167C216.685 215.639 215.946 216.375 214.714 216.375C213.728 216.375 212.989 215.639 212.25 214.412C211.511 212.94 211.264 210.732 211.264 207.052C211.264 204.599 211.511 202.637 211.757 200.919C212.25 199.202 212.989 198.466 214.221 198.466C215.453 198.466 216.192 199.202 216.685 200.429C217.178 201.655 217.424 203.863 217.424 207.052C217.917 210.242 217.671 212.695 217.178 214.167Z" fill="black"/>
<path d="M249.208 195.522L245.759 212.45L241.816 195.522H238.859L236.396 218.583H240.091L241.077 202.882L244.773 218.583H247.237L250.686 202.882L251.426 218.583H255.122L252.658 195.522H249.208Z" fill="black"/>
<path d="M280.499 196.994C279.02 196.258 277.542 195.768 275.571 195.768H271.136V218.828H274.832V208.524C275.078 208.524 275.324 208.524 275.571 208.77H276.31H276.803H277.296C278.528 208.524 279.76 208.034 280.992 207.052C281.977 206.071 282.716 204.354 282.716 202.146C282.47 199.447 281.731 197.73 280.499 196.994ZM277.542 205.09C277.049 205.581 276.064 205.826 274.585 205.826V198.221H274.832H275.078H275.324C276.556 198.221 277.542 198.711 278.035 199.447C278.528 200.183 278.774 201.165 278.774 202.146C278.528 203.618 278.035 204.599 277.542 205.09Z" fill="black"/>
<path d="M299.964 195.522L294.05 218.583H297.746L298.485 213.922H303.906L304.645 218.583H308.588L302.674 195.522H299.964ZM299.225 211.468L301.442 198.957L303.413 211.468H299.225Z" fill="black"/>
<path d="M332.736 204.845L333.475 213.186L327.315 195.522H323.619V218.583H327.315V208.77L326.576 200.674L333.229 218.583H336.432V195.522H332.736V204.845Z" fill="black"/>
<path d="M359.101 202.882L358.608 206.316L355.159 195.522H351.216L356.637 209.015V218.583H360.333V209.015L365.507 195.522H361.565L359.101 202.882Z" fill="black"/>
<path d="M45.9309 102.057C42.4814 99.6041 39.0318 97.8868 35.3359 97.1508C33.3648 96.6602 31.3936 96.6602 29.4224 96.4149C27.4513 96.4149 25.9729 96.6602 24.7409 96.9055C25.2337 96.4149 27.2049 94.4523 30.408 91.5084C33.8575 88.3192 37.0607 84.394 39.771 78.9969C41.2494 76.2983 42.7278 73.1091 43.7134 69.9199C44.6989 66.7307 45.4381 63.2961 45.4381 59.6163C45.6845 55.2004 43.9598 51.5206 40.5102 48.5767C38.0463 46.6141 35.5823 45.6328 32.872 45.6328C31.64 45.6328 30.6544 45.8781 29.4224 46.3688C27.4513 47.1048 25.4801 48.822 24.0017 51.7659C22.5234 54.4645 21.045 57.6537 20.0594 61.0882C18.3346 66.24 17.1027 71.3918 16.3635 76.053C15.6243 80.9595 14.8851 83.658 14.6387 84.1487C14.1459 83.9034 13.8995 81.9408 13.8995 78.5062C13.8995 75.0717 13.4067 70.9012 12.9139 66.24C12.6676 63.5415 12.1748 60.8429 11.682 58.1443C11.1892 55.2004 10.45 52.5019 9.21802 49.558C8.47883 48.5767 7.24685 47.5954 5.52209 47.1048C3.79732 46.6141 2.81174 47.3501 2.56534 49.8033C2.81174 51.0299 2.81174 52.9925 2.81174 55.9364C2.56534 58.8803 2.56534 62.3148 2.07255 66.4854C1.08697 73.5997 0.840576 83.1674 0.840576 94.6976V96.6602C0.840576 107.454 1.82616 119.23 3.55092 131.742C3.55092 132.232 3.79732 132.723 4.04371 133.459C4.29011 133.949 4.53651 134.44 5.0293 134.931C6.75406 136.648 9.21802 137.629 12.1748 138.12C12.9139 138.365 13.6531 138.365 14.3923 138.365C16.1171 138.365 17.3491 137.875 17.8419 136.648C17.8419 131.987 17.8419 126.59 17.3491 119.966C16.8563 113.342 16.6099 106.964 16.3635 101.076C17.8419 100.34 20.3058 99.6041 23.5089 99.3588C26.9585 98.8681 29.6688 99.3588 32.3792 100.831C33.8575 101.567 35.3359 103.039 36.3215 104.756C37.3071 106.718 38.2927 108.681 38.7855 110.889C39.771 114.324 40.0174 117.513 39.771 120.947C39.5246 124.382 38.7855 126.344 37.5535 127.571C35.5823 129.288 33.1184 130.024 29.9152 129.779C26.7121 129.534 25.4801 128.062 25.7265 125.854C25.4801 125.363 25.2337 125.118 24.9873 125.118H24.4945C24.0017 126.099 23.5089 127.326 23.5089 129.043C23.5089 130.76 24.2481 131.742 25.7265 132.232C33.6112 134.931 40.0174 134.685 44.6989 131.742C49.1341 129.043 51.1052 123.891 51.1052 116.531V114.569C50.8588 108.681 49.1341 104.756 45.9309 102.057ZM22.5234 94.9429C22.0306 95.6789 21.2914 96.1696 20.0594 96.6602C19.3202 96.9055 18.581 96.9055 18.0882 96.9055C17.5955 96.9055 17.1027 96.9055 16.3635 96.6602C16.6099 92.2444 17.1027 87.8285 17.8419 83.658C18.581 79.4875 19.5666 75.317 20.5522 71.6372C22.5234 64.5228 24.7409 58.8803 26.9585 54.2192C29.176 50.0486 30.9008 48.0861 32.1328 47.8407H32.3792C33.8575 48.0861 34.5967 50.0486 34.5967 53.4832V56.1817C34.1039 61.3335 33.1184 66.976 31.3936 73.1091C30.1616 77.2796 28.9296 81.2048 27.2049 85.13C25.7265 89.3005 24.2481 92.4897 22.5234 94.9429Z" fill="black"/>
<path d="M301.936 105.489C301.197 104.753 300.704 104.262 299.965 104.507C299.226 104.507 298.733 104.753 297.994 104.998C295.283 110.64 292.08 115.547 288.384 119.717C285.428 122.907 282.717 125.851 280.253 128.304C280.253 127.322 280.253 126.096 280.253 125.115V115.302C280.253 112.112 280.007 109.168 280.007 106.47C280.007 101.318 279.761 97.1476 280.007 93.7131C280.007 90.2785 280.5 88.5613 280.993 88.5613C280.746 87.3347 280.007 86.108 278.529 85.1267C277.05 84.3908 275.818 84.1454 274.586 84.8814C274.093 85.1267 273.601 85.6174 273.108 86.108C272.861 86.844 272.615 87.58 272.369 88.5613C272.615 91.0145 272.615 93.9584 272.122 97.6383C271.876 101.073 271.383 104.753 270.644 108.187C269.658 113.584 268.18 118.491 266.455 122.661C264.73 127.077 263.006 129.285 261.034 129.285C258.078 129.285 256.107 127.077 255.121 122.171C254.135 117.51 253.889 111.867 254.135 105.979C254.382 101.809 254.628 97.8836 255.121 93.9584C255.614 90.0332 256.107 86.5987 256.599 83.6548C255.367 80.7109 253.396 79.4843 251.179 79.4843C250.686 79.4843 250.44 79.4843 249.947 79.4843C247.236 80.2203 245.758 81.6922 245.265 83.9001C245.019 88.316 245.019 92.2411 245.019 95.921C245.019 100.337 245.265 104.262 245.512 107.942C245.019 108.923 244.526 109.904 244.033 110.886C242.308 114.32 240.337 117.755 238.12 121.435C235.409 126.096 232.699 130.021 229.989 133.946C227.278 137.626 225.061 139.343 223.582 139.098C223.09 138.853 222.843 138.117 222.35 136.645C222.104 135.173 221.858 132.965 221.858 130.512C221.611 125.851 221.611 119.717 222.104 112.358C222.35 104.998 222.843 97.3929 223.336 90.0332C223.829 83.9001 224.322 78.0123 224.568 72.6152C224.814 70.6526 224.814 68.9354 225.061 67.2181C228.51 67.2181 231.221 67.4634 233.192 67.7087H233.438C234.177 67.7087 234.424 67.4634 234.424 66.7274C234.424 65.9915 233.931 65.5008 232.945 65.0102C230.235 64.7649 227.771 64.5195 225.307 64.5195C225.554 62.5569 225.554 61.085 225.8 59.3677C226.046 57.4051 226.046 55.9332 226.293 54.9519C226.539 53.7253 226.539 53.2346 226.539 52.9893C226.539 52.2533 226.539 51.7627 226.293 51.272C226.046 50.7814 225.554 50.5361 225.061 50.2907C224.568 50.0454 224.075 50.0454 223.582 50.0454C222.35 50.0454 221.118 50.5361 219.64 51.272C217.423 52.4987 215.944 53.9706 215.451 55.6879C215.698 55.9332 215.944 56.9145 215.944 58.1411C215.944 59.3677 215.698 61.085 215.451 63.0476C215.451 63.5382 215.205 64.0289 215.205 64.5195C212.002 64.5195 208.799 64.7648 205.596 64.7648C205.103 65.5008 204.856 65.9915 204.61 66.7274V66.2368C204.61 66.7274 205.103 66.9728 205.842 67.2181L214.712 66.4821C214.219 69.6713 213.973 73.1059 213.234 77.031C212.248 82.9188 211.509 89.0519 211.016 95.4304C210.523 100.092 210.277 104.753 210.277 109.168C210.031 109.659 209.784 110.395 209.291 110.886C208.059 113.339 206.581 116.038 205.103 118.981C202.639 123.152 200.175 127.077 197.711 130.757C195.247 134.192 193.276 135.909 191.797 135.663C190.565 135.418 189.826 133.946 189.333 131.493C189.087 129.04 188.841 126.096 189.087 122.416C189.087 120.453 189.333 118.491 189.333 116.283C189.58 114.075 189.58 112.112 189.826 109.904C190.319 105.734 190.812 101.809 191.058 98.1289C191.551 94.4491 191.797 91.7505 192.044 89.5426C191.797 87.3347 190.319 85.8627 187.362 85.3721C184.406 84.8814 182.681 85.6174 182.188 87.3347C182.188 90.0332 182.188 93.2224 181.695 96.4116C181.202 99.8462 180.71 103.035 179.97 106.47C178.492 112.603 176.767 118.245 174.796 122.907C172.579 127.813 170.607 130.021 168.636 130.021C166.665 130.021 165.68 127.813 165.68 123.643C165.433 119.472 165.68 114.811 165.926 109.659C166.172 106.225 166.419 103.035 166.665 99.8462C166.911 96.657 166.911 94.2037 166.911 91.9958C166.419 90.2785 165.68 88.8066 164.694 87.3347C163.955 85.8627 162.969 84.8814 162.23 83.9001C160.505 82.1829 158.534 81.2016 156.809 80.9562H156.563C155.085 80.9562 153.853 81.9375 153.36 83.9001C154.345 85.6174 154.592 88.8066 154.345 93.9584C154.099 97.6383 154.099 101.318 154.099 105.243C153.606 106.47 152.867 107.942 151.881 110.15C150.403 113.339 148.678 116.774 146.707 120.453C144.49 124.869 142.272 128.794 139.808 132.72C137.59 136.399 135.866 138.117 134.634 137.871C134.387 137.871 134.141 137.381 134.141 136.399C134.141 135.663 134.141 134.437 134.141 132.965C134.387 130.266 134.634 126.587 135.373 122.416C135.866 118 136.605 113.83 137.098 109.659C137.837 104.262 138.822 99.6009 139.808 95.4304C140.794 91.2598 141.533 89.2973 142.026 89.2973C142.026 88.8066 142.026 88.5613 142.026 88.0706C142.026 87.58 141.779 87.3347 141.533 87.0893C140.547 86.108 138.576 85.8627 135.866 86.3534C133.402 86.844 131.923 87.58 131.431 88.5613C131.184 89.0519 130.445 91.7505 129.213 96.657C127.735 101.563 126.256 106.715 124.285 111.867C122.807 116.038 121.328 119.963 119.85 123.152C118.372 126.341 117.14 128.058 116.154 128.058C113.937 128.058 112.705 125.605 112.705 120.944C112.705 116.038 113.69 110.886 115.168 104.998C116.4 100.337 118.125 96.1663 120.096 92.2411C122.068 88.0706 124.285 85.3721 126.749 83.6548C128.227 82.9188 129.459 82.4282 130.938 82.4282C132.416 82.4282 133.648 83.1641 135.126 84.6361C135.619 84.3908 135.619 84.1454 135.866 83.9001C135.866 83.4095 135.866 83.1641 135.619 82.9188C134.634 81.4469 132.909 80.4656 130.691 79.9749C128.967 79.4843 127.242 79.239 125.271 79.239H123.792C122.56 79.239 121.575 79.4843 120.343 79.7296C119.357 79.9749 118.372 80.2203 117.879 80.7109C116.4 81.4469 114.922 82.6735 113.444 84.1454C111.965 85.6174 110.487 87.3347 109.009 89.2973C106.298 92.9771 104.081 97.6383 102.11 102.79C101.863 103.526 101.617 104.262 101.617 104.753C100.878 106.47 99.892 108.187 98.66 110.15C97.428 112.358 95.9496 114.566 94.4713 117.019C91.5145 121.189 88.3114 124.869 85.1083 128.058C81.6587 131.248 78.702 132.474 75.9916 131.984C73.5277 131.493 71.8029 129.776 70.5709 126.586C69.5853 123.643 68.8462 120.208 68.5998 116.283C68.5998 114.075 68.5998 111.867 68.5998 109.659C71.3101 108.433 73.5277 106.961 75.4988 105.243C79.9339 101.563 81.9051 96.4116 81.9051 89.7879C81.9051 85.6174 80.4267 82.1829 77.7164 79.9749C75.7452 78.2577 73.5277 77.5217 71.3101 77.5217C70.5709 77.5217 69.8317 77.5217 69.0926 77.767C67.3678 78.2577 65.643 78.9936 63.9183 80.4656C62.1935 81.9375 60.4687 83.9001 59.2367 86.3534C56.28 91.9958 54.5552 98.3742 54.3088 105.489V107.206C54.3088 113.584 55.7872 119.227 58.4976 124.133C60.2223 127.077 62.1935 129.53 64.9038 131.493C67.6142 133.456 70.8173 134.928 74.5133 135.418H76.7308C80.1803 135.418 83.6299 133.946 87.0794 131.248C91.0217 127.813 94.7177 123.888 97.6744 118.981C98.4136 117.755 99.1528 116.774 99.892 115.547V118.491V119.717C99.892 124.133 101.863 127.322 105.559 129.285C109.255 131.248 113.197 131.984 117.14 131.738C118.618 131.493 120.096 130.021 121.821 127.077C123.3 124.133 124.778 120.944 126.01 117.51C126.749 115.302 127.488 113.339 127.981 111.376C128.474 109.659 128.72 108.433 128.967 107.697C128.72 109.659 128.227 112.112 127.735 115.302C127.242 118.491 126.995 121.925 126.749 125.115C126.749 126.832 126.749 128.549 126.995 130.266C127.242 131.984 127.488 133.456 127.981 134.928C128.474 136.645 129.459 138.117 130.445 139.098C131.431 140.079 132.909 140.815 134.88 141.061H135.126C137.098 141.061 139.562 139.098 142.272 135.173C144.982 131.002 147.693 126.586 150.157 121.68C151.881 118.491 153.113 115.792 154.345 112.848C154.592 114.566 154.592 116.528 155.085 118.245C155.577 120.944 156.316 123.397 157.548 125.605C158.534 127.568 160.012 129.285 161.737 130.512C163.462 131.738 165.926 132.474 168.636 132.474C169.868 132.474 171.347 131.984 172.579 130.757C173.811 129.53 175.043 128.058 176.028 126.341C177.506 123.888 178.738 121.189 179.724 118.245C180.71 115.547 181.202 113.584 181.695 112.603C181.695 114.32 181.695 117.019 181.942 120.699C181.942 124.379 182.681 127.813 183.913 131.002C184.652 132.72 185.638 134.192 186.87 135.418C188.101 136.645 189.58 137.626 191.551 138.117H192.537C194.015 138.117 195.74 137.381 197.464 135.663C199.436 133.701 201.653 131.493 203.624 128.549C205.596 125.605 207.567 122.661 209.045 119.227C209.538 118 210.277 117.019 210.77 116.038C211.016 121.435 211.755 126.341 213.234 130.266C214.219 133.21 215.698 135.418 217.423 137.381C219.147 139.343 221.365 140.325 223.829 141.061H224.568C226.293 141.061 228.018 140.079 230.235 138.362C232.453 136.154 234.917 133.456 237.134 130.021C239.352 126.832 241.569 123.397 243.54 119.717C244.772 117.264 246.004 115.056 246.99 112.848C247.483 115.302 247.729 117.264 248.468 119.227C250.686 126.586 254.628 130.266 260.295 130.266C263.006 130.266 265.223 128.794 267.194 126.096C269.166 123.397 270.644 119.717 271.383 115.547V126.341C271.383 129.04 271.137 131.738 271.137 134.437C270.89 134.682 270.644 134.928 270.398 134.928C268.919 135.909 267.687 137.135 266.209 139.098C264.977 140.815 263.745 142.778 262.513 144.986C260.542 148.911 259.063 153.327 258.078 157.743C257.092 162.404 257.339 166.084 258.571 168.537C259.063 169.518 259.803 170.254 260.542 170.99C261.281 171.481 262.513 171.726 263.745 171.971H263.991C266.455 171.971 268.426 171.235 270.151 169.764C271.876 168.292 273.354 166.329 274.833 163.876C277.05 159.215 278.775 153.327 279.514 145.722C280.007 140.815 280.5 135.909 280.5 131.002C283.21 128.794 286.167 125.851 289.37 122.416C291.341 119.963 293.559 117.264 295.776 114.32C297.747 112.848 299.719 109.414 301.936 105.489ZM69.5853 103.771C70.3245 98.6196 71.5565 94.2037 72.7885 90.2785C74.2669 86.5987 75.7452 84.6361 76.9772 85.1267C78.4556 85.6174 79.1948 87.58 79.1948 91.5052C79.1948 95.4303 77.47 99.1102 74.5133 102.79C73.0349 104.507 71.3101 105.979 68.8462 107.451L69.5853 103.771ZM270.644 141.797C270.398 146.458 269.905 151.119 269.658 155.535C269.166 159.951 268.426 163.63 267.687 166.329C267.194 167.801 266.702 169.028 265.962 169.764C265.47 170.499 264.73 170.99 263.991 170.99C263.006 170.99 262.759 169.273 262.759 166.084C263.006 162.894 263.498 159.215 264.238 155.289C264.977 152.1 265.962 148.911 266.948 146.212C267.934 143.269 269.166 141.306 270.398 140.079L270.644 141.797Z" fill="black"/>
<path d="M407.145 49.8003C404.928 48.5737 402.957 48.5737 401.232 49.8003C398.029 52.0083 395.072 55.6881 392.608 60.1039C390.144 64.7651 387.927 69.4263 385.955 74.5781C384.231 79.4845 382.752 84.391 381.274 89.2975C380.042 94.204 379.056 98.1292 378.317 101.073C377.824 102.79 377.578 104.017 377.332 104.998C377.085 105.98 376.839 106.47 376.592 106.716C376.592 106.716 376.346 105.244 376.346 102.545C376.346 99.8464 376.1 96.4119 376.1 92.4867V85.6176C376.1 83.1644 375.853 80.9565 375.853 78.5032C375.853 73.8421 375.607 69.6716 375.607 65.5011C375.607 61.3306 375.361 58.3867 375.361 56.4241C375.114 55.1975 374.868 53.9708 374.375 52.9896C373.882 52.0083 373.143 51.2723 372.404 50.7816C370.925 49.555 369.447 49.0644 367.969 49.0644C366.244 49.0644 365.012 49.555 364.519 50.5363C363.534 52.0083 362.548 53.9708 361.316 56.9147C360.084 59.6133 359.098 62.8025 357.866 66.237C356.142 71.3888 354.91 76.2953 353.431 81.2018C352.199 86.1083 351.46 89.5428 351.214 91.2601C351.214 90.7694 351.214 88.0709 350.721 83.4097C350.475 79.7299 349.489 79.9752 348.75 77.5219C348.011 75.314 344.068 74.8234 343.576 74.8234C342.097 74.8234 341.112 75.5594 341.112 77.0313C341.112 78.0126 342.097 87.5802 341.851 93.7133C341.604 98.1292 341.604 102.545 341.604 106.716C341.604 108.433 341.604 110.15 341.851 111.867C341.851 117.755 342.344 122.907 343.083 127.568C343.329 129.776 343.083 130.757 344.561 130.512C347.271 130.021 348.503 127.568 350.475 125.115C351.214 124.379 351.707 123.398 352.199 122.416C352.692 121.435 352.939 120.454 353.185 119.227C353.185 115.547 352.939 111.867 352.446 108.678C352.199 105.489 351.953 101.809 351.707 97.8838C351.707 96.4119 352.199 93.7133 353.185 89.5428C354.17 85.6176 355.402 81.2018 356.634 76.786C358.359 71.3888 359.838 66.237 361.562 61.5759C363.287 56.9147 364.765 54.7068 365.505 54.9521C365.751 54.9521 365.997 55.4428 366.244 56.1788C366.49 56.9147 366.49 58.1414 366.49 59.6133C366.49 62.3119 366.244 65.7464 365.997 70.1622C365.751 74.5781 365.505 79.2392 365.258 84.1457C365.012 89.0522 365.012 94.204 365.258 99.1105C365.505 104.017 365.997 108.433 366.983 112.113C367.476 113.585 368.461 114.811 370.186 115.792C371.911 116.774 373.636 116.774 375.361 116.283C376.1 116.038 376.592 115.547 377.332 114.811C377.824 114.075 378.317 113.339 378.564 112.113C379.303 108.433 380.288 104.017 381.767 98.8651C383.245 93.7133 384.724 88.3162 386.448 82.9191C387.434 80.2205 388.419 77.5219 389.405 74.8234C390.391 72.1248 391.376 69.6716 392.362 67.2183C394.333 62.8025 396.058 59.368 397.782 56.6694C399.754 53.9708 401.232 52.9896 402.71 53.2349C403.45 53.4802 402.957 56.6694 401.478 62.8025C399.754 68.9356 398.522 77.2766 397.043 87.8256C396.304 93.468 395.811 99.8464 395.565 106.716C395.319 113.585 395.319 120.944 395.565 128.795C395.811 129.776 396.058 130.757 396.551 131.493C397.043 132.229 397.536 132.965 398.275 133.456C400 134.682 401.725 135.418 403.696 135.418H404.928C407.392 135.173 408.624 133.946 408.377 131.739C407.638 129.531 407.392 125.851 407.638 120.944C407.885 116.038 408.131 110.395 408.624 104.508C408.87 101.318 409.117 97.8838 409.363 94.6946C409.609 91.2601 409.856 88.0709 410.349 84.8817C410.841 78.7486 411.088 73.3514 411.334 68.1996C411.334 66.7277 411.334 65.5011 411.334 64.2745C411.334 61.0852 411.088 58.632 410.595 56.6694C410.841 52.9896 409.363 51.027 407.145 49.8003Z" fill="black"/>
<path d="M563.853 104.264C563.114 104.264 562.621 104.264 561.882 104.509C561.143 105.736 560.157 107.944 558.679 110.642C557.2 113.341 555.722 116.285 553.997 119.228C551.287 123.89 548.823 128.06 546.112 131.985C543.402 135.91 541.431 137.628 540.445 137.382C539.213 137.137 538.228 134.684 537.735 130.268C537.242 125.852 536.749 121.436 536.01 116.53C535.517 113.341 534.778 110.642 533.793 108.189C533.054 106.472 532.314 105.245 531.575 104.509C535.764 102.056 539.213 98.8665 542.17 95.1867C543.402 93.4694 544.388 91.7521 545.127 90.0349C545.866 88.3176 546.359 86.6003 546.359 84.6377C546.359 80.7126 544.88 78.5046 541.677 77.5233C538.474 76.7874 535.764 76.7874 533.054 77.5233C531.822 78.014 530.59 78.75 529.604 79.7313C528.618 80.7126 527.633 81.9392 526.647 82.9205C524.922 85.1284 523.69 87.3363 522.705 89.5442C521.719 91.7521 520.98 93.2241 520.734 93.96C520.487 93.7147 520.487 91.2615 520.487 86.355C520.734 81.4485 520.734 76.2967 520.734 70.8996C520.734 67.2197 520.734 64.0305 520.487 60.8413C520.734 55.4442 520.734 49.8017 515.559 45.3859C509.153 37.0449 492.645 49.5564 490.674 46.1219C489.442 44.1593 491.659 41.9514 492.398 40.2341C493.63 37.5355 499.79 36.3089 502.501 36.0636C507.182 35.5729 508.168 32.629 504.472 33.6103C503.732 33.8557 501.022 34.837 500.037 34.5916C499.544 34.5916 497.573 34.837 497.573 34.3463C497.573 34.101 498.805 32.8744 499.051 32.629C499.544 31.8931 500.283 31.4024 501.022 30.9118C502.008 30.1758 503.24 29.1945 503.979 28.2132C504.472 27.7226 504.718 26.9866 504.718 26.2506C504.718 25.2693 503.24 25.2693 502.993 26.2506C502.993 27.4772 498.065 30.4211 497.326 30.6665C493.384 32.1384 493.138 32.1384 490.181 35.3276C489.688 36.0636 488.21 36.0636 487.47 35.5729C482.296 32.8744 474.165 37.2902 480.571 36.7996C481.064 36.5542 483.774 37.2902 484.514 37.7808C485.253 38.0262 485.499 38.5168 485.499 39.2528C485.499 40.4794 485.006 41.2154 484.514 42.1967C481.557 50.0471 485.499 58.1427 492.891 55.1989C496.094 53.4816 510.139 49.5564 510.632 56.1802V56.4255V57.1614V60.3507C510.632 64.0305 510.385 68.6917 510.139 74.5795C509.892 80.4672 509.4 86.8457 509.4 93.7147V102.056H509.153C507.182 105.981 504.225 109.17 500.037 111.378C499.544 111.623 499.051 112.114 498.558 112.359C498.065 111.623 497.819 110.642 497.08 110.151C495.355 107.944 493.63 105.981 491.413 104.509C488.702 102.546 485.992 100.584 483.035 99.1119C480.079 97.3946 477.615 95.9226 475.643 93.96C474.658 92.9788 473.672 91.9975 473.179 90.7708C472.44 89.7895 471.947 88.5629 471.947 87.3363C471.701 84.1471 472.44 81.9392 474.165 80.4672C475.89 78.9953 477.615 78.9953 478.847 80.2219C479.586 80.7126 480.079 81.6939 480.325 82.6751C480.818 83.9018 480.818 85.3737 480.818 87.091C481.311 88.3176 482.296 88.5629 483.528 88.3176C484.76 87.8269 485.746 87.3363 485.992 86.6003C485.746 84.6377 485.499 82.9205 484.76 81.6938C484.021 80.4672 483.035 79.2406 482.05 78.5046C480.571 77.5233 478.847 77.0327 477.122 77.0327C476.383 77.0327 475.643 77.0327 474.904 77.278C472.194 77.7687 469.73 78.9953 468.005 80.9579C467.02 81.9392 466.034 83.1658 465.541 84.6377C465.048 85.619 464.802 86.8457 464.802 88.3176V89.0536C465.048 91.2615 465.541 93.2241 466.773 95.1867C467.759 97.1493 469.237 99.1119 470.716 100.829C470.962 101.32 471.455 101.565 471.701 102.056C470.962 103.282 470.223 105.245 468.744 108.189C467.266 111.378 465.541 114.813 463.57 118.492C461.353 122.908 459.135 127.079 456.671 130.759C454.453 134.439 452.729 136.156 451.497 135.91C451.25 135.91 451.004 135.42 451.004 134.439C451.004 133.703 451.004 132.476 451.004 131.004C451.25 128.305 451.497 124.626 452.236 120.455C452.729 116.039 453.468 111.869 453.961 107.698C454.7 102.301 455.685 97.6399 456.671 93.4694C457.657 89.2989 458.396 87.3363 458.889 87.3363C458.889 86.8456 458.889 86.6003 458.889 86.1097C458.889 85.619 458.642 85.3737 458.396 85.1284C457.41 84.1471 455.439 83.9018 452.729 84.3924C450.265 84.8831 448.786 85.619 448.294 86.6003C448.047 87.091 447.308 89.7895 446.076 94.9413C444.598 99.8478 443.119 105 441.148 110.151C439.67 114.322 438.191 118.247 436.713 121.436C435.235 124.626 434.003 126.343 433.017 126.343C430.799 126.343 429.568 123.89 429.568 119.228C429.568 114.322 430.553 109.17 432.031 103.282C433.263 98.6212 434.988 94.4507 436.959 90.5255C438.931 86.355 441.148 83.6564 443.612 81.9392C445.09 81.2032 446.322 80.7126 447.801 80.7126C449.279 80.7126 450.511 81.4485 451.989 82.9205C452.482 82.6751 452.482 82.4298 452.729 82.1845C452.729 81.6938 452.729 81.4485 452.482 81.2032C451.497 79.7313 449.772 78.75 447.554 78.2593C445.83 77.7687 444.105 77.5233 442.134 77.5233H440.655C439.423 77.5233 438.438 77.7687 437.206 78.014C436.22 78.2593 435.235 78.5046 434.742 78.9953C433.263 79.7313 431.785 80.9579 430.307 82.4298C428.828 83.9018 427.35 85.619 425.872 87.5816C423.161 91.2615 420.944 95.9226 418.973 101.074C417.248 105.981 416.509 111.133 416.509 116.53V117.756C416.509 122.172 418.48 125.362 422.176 127.324C425.872 129.287 429.814 130.023 433.756 129.777C435.235 129.532 436.713 128.06 438.438 125.116C439.916 122.172 441.394 118.983 442.626 115.549C443.366 113.341 444.105 111.378 444.598 109.415C445.09 107.698 445.337 106.472 445.583 105.736C445.337 107.698 444.844 110.151 444.351 113.341C443.858 116.53 443.612 119.964 443.366 123.154C443.366 124.871 443.366 126.588 443.612 128.305C443.858 130.023 444.105 131.495 444.598 132.967C445.09 134.684 446.076 136.156 447.062 137.137C448.047 138.118 449.526 138.854 451.497 139.1H451.743C453.714 139.1 456.178 137.137 458.889 133.212C461.599 129.041 464.309 124.626 466.773 119.719C468.744 115.794 470.716 112.114 471.947 108.679C472.687 106.962 473.179 105.736 473.672 104.509C475.643 106.472 477.368 108.189 479.339 110.151C482.789 113.095 484.76 116.039 485.499 118.738C485.746 119.474 485.746 120.21 485.746 120.946L483.528 122.663C481.803 124.135 480.325 125.362 478.847 126.833C476.136 129.532 474.165 131.985 472.933 134.193C471.701 136.646 471.947 138.609 473.672 140.326C475.643 142.289 478.107 143.27 480.818 143.27H481.557C484.514 143.025 487.224 142.044 489.934 140.326C491.413 139.345 492.891 138.118 494.123 136.892C495.355 135.42 496.341 133.948 497.326 132.231C498.558 130.023 499.297 127.815 499.79 125.362C500.283 122.908 500.283 120.21 499.79 117.511C499.544 116.775 499.544 115.794 499.297 115.058C501.515 113.586 503.486 112.114 505.457 110.397C506.689 109.415 507.675 108.434 508.66 107.208V107.944V110.151C508.66 116.039 508.907 121.436 509.646 126.588C509.892 127.569 510.139 128.305 510.632 128.796C511.124 129.532 511.864 130.023 512.603 130.268C513.588 130.759 514.82 131.004 516.299 131.004C517.038 131.004 517.531 131.004 518.27 130.759C520.241 130.268 521.719 129.777 522.212 129.041C522.705 128.06 522.705 126.097 522.459 123.644C522.212 121.191 521.966 118.247 521.719 115.303L521.227 110.642C521.227 108.925 520.98 107.453 520.98 106.226C521.719 106.472 522.705 106.226 523.937 105.981C524.183 106.226 524.676 106.717 524.922 107.208C525.662 108.189 526.154 109.415 526.647 111.133C527.386 113.831 528.126 117.021 528.618 120.946C529.111 124.626 530.097 128.06 531.329 131.004C532.068 132.967 533.054 134.684 534.286 136.156C535.517 137.628 537.242 138.364 539.213 138.609H539.706C541.677 138.609 544.141 136.892 547.098 133.457C550.301 129.777 553.258 125.607 555.968 120.7C557.939 117.511 559.664 114.322 561.143 111.378C562.621 108.189 563.853 105.736 564.592 103.773C565.085 104.754 564.592 104.509 563.853 104.264ZM484.76 132.476C483.528 135.42 482.05 137.628 480.325 139.345C478.6 141.062 477.122 141.553 476.136 140.572C475.643 140.081 475.643 139.59 475.89 138.854C476.136 138.118 476.629 137.137 477.368 136.401C478.6 134.684 480.571 132.476 483.282 130.023L486.485 127.079C485.746 129.041 485.253 131.004 484.76 132.476ZM527.879 102.546C527.386 103.037 526.647 103.282 525.169 103.773C523.937 104.264 522.951 104.509 522.212 104.509C521.966 104.509 521.966 104.509 521.719 104.509C522.705 97.1493 524.922 91.2615 528.126 87.091C531.329 82.9205 533.546 80.7126 534.778 80.7126C536.503 80.9579 537.242 81.9392 537.242 83.9018V84.8831C536.996 87.5816 536.01 90.2802 534.532 93.4694C533.793 95.1867 532.807 96.9039 531.575 98.3759C530.343 100.093 529.111 101.32 527.879 102.546Z" fill="black"/>
<path d="M476.875 37.2898C477.614 36.7992 477.614 36.0632 477.122 35.5726C474.658 33.1193 470.715 33.3647 468.005 36.3085C470.222 39.2524 474.165 39.7431 476.875 37.2898Z" fill="black"/>
<path d="M507.677 33.6103C511.127 34.5916 514.33 32.3837 515.069 28.4585C511.619 27.2319 508.17 28.4585 506.938 32.1384C506.691 32.629 506.938 33.6103 507.677 33.6103Z" fill="black"/>
<path d="M516.299 38.2712C514.82 35.082 511.371 33.6101 507.921 35.3274C507.182 35.5727 506.936 36.3087 507.182 37.0446C508.907 39.9885 512.849 40.7245 516.299 38.2712Z" fill="black"/>
<path d="M522.951 35.8171C521.473 32.6279 518.023 31.156 514.574 32.8733C513.834 33.1186 513.588 33.8546 513.834 34.5905C515.806 37.2891 519.501 38.0251 522.951 35.8171Z" fill="black"/>
<path d="M515.561 30.1754C515.314 30.9114 516.054 31.6474 516.793 31.6474C520.242 31.6474 522.706 28.7035 522.46 24.533C518.764 24.0423 515.807 26.2503 515.561 30.1754Z" fill="black"/>
<path d="M524.431 27.4761C527.88 27.4761 530.344 24.5323 530.098 20.3618C526.402 20.1164 523.445 22.3243 523.445 26.2495C523.199 26.9855 523.691 27.7215 524.431 27.4761Z" fill="black"/>
<path d="M529.604 29.1935C526.648 26.9856 522.952 27.2309 520.734 30.4201C520.241 31.1561 520.241 31.8921 520.98 32.1374C523.937 34.1 527.88 32.8734 529.604 29.1935Z" fill="black"/>
<path d="M514.576 22.5715C511.373 20.8542 507.677 21.5902 505.952 25.0247C505.459 25.7607 505.706 26.4967 506.445 26.742C509.401 27.9686 513.097 26.4967 514.576 22.5715Z" fill="black"/>
<path d="M503.488 23.0606C503.734 23.7966 504.473 24.2872 504.966 24.0419C508.169 22.8153 509.648 19.1354 507.676 15.4556C504.473 16.1915 502.502 19.3807 503.488 23.0606Z" fill="black"/>
<path d="M513.837 21.3452C517.041 22.3265 520.49 20.3639 521.229 16.1934C517.78 14.7214 514.33 16.1934 513.098 19.6279C512.852 20.3639 513.098 21.0998 513.837 21.3452Z" fill="black"/>
<path d="M511.372 19.8722C514.328 18.1549 515.314 14.4751 512.85 11.0405C509.401 12.5125 507.922 15.947 509.647 19.3815C510.14 20.1175 510.879 20.3628 511.372 19.8722Z" fill="black"/>
<path d="M495.108 23.7982C495.847 23.7982 496.587 23.3076 496.34 22.5716C495.847 19.137 492.644 16.9291 488.702 17.9104C488.702 21.345 491.412 24.0435 495.108 23.7982Z" fill="black"/>
<path d="M491.413 25.5133C492.152 25.0226 492.152 24.2867 491.659 23.796C489.195 21.3428 485.253 21.3428 482.542 24.532C484.76 27.4759 488.702 27.9665 491.413 25.5133Z" fill="black"/>
<path d="M501.517 18.3979C502.256 18.8885 502.995 18.6432 503.241 18.1525C504.966 15.2087 503.488 11.5288 499.545 9.81152C497.574 12.7554 498.313 16.4353 501.517 18.3979Z" fill="black"/>
<path d="M495.602 17.1747C496.342 17.1747 497.081 16.684 496.834 15.9481C496.342 12.5135 493.138 10.3056 488.95 11.2869C488.95 14.7214 491.66 17.42 495.602 17.1747Z" fill="black"/>
<path d="M501.269 25.5144C502.008 25.7598 502.747 25.5144 502.747 24.7785C503.487 21.3439 501.269 18.1547 497.08 17.6641C496.095 21.0986 497.573 24.5331 501.269 25.5144Z" fill="black"/>
<path d="M500.285 28.7044C501.024 28.4591 501.271 27.4778 500.778 26.9871C498.807 24.0432 495.111 23.5526 491.661 26.0058C493.386 29.195 497.082 30.4216 500.285 28.7044Z" fill="black"/>
<path d="M482.052 34.1007C482.791 34.5914 483.53 34.5914 483.776 33.8554C485.747 30.9115 484.515 27.2316 480.82 25.269C478.602 27.9676 479.095 31.8928 482.052 34.1007Z" fill="black"/>
<path d="M477.861 35.3301C478.6 35.5754 479.339 35.3301 479.586 34.5941C480.571 31.1596 478.354 27.9703 474.165 27.2344C472.933 30.6689 474.411 34.1034 477.861 35.3301Z" fill="black"/>
<path d="M478.108 37.7803C474.658 37.7803 471.948 40.7242 472.441 44.8947C476.137 45.14 479.094 42.9321 479.34 39.2522C479.34 38.2709 478.847 37.7803 478.108 37.7803Z" fill="black"/>
<path d="M481.558 47.1039C484.022 44.896 484.514 41.4615 482.05 38.7629C481.558 38.0269 480.818 38.0269 480.326 38.7629C478.108 40.9708 478.601 44.6507 481.558 47.1039Z" fill="black"/>
</svg>
