<svg width="546" height="164" viewBox="0 0 546 164" fill="none" xmlns="http://www.w3.org/2000/svg">
<path fill-rule="evenodd" clip-rule="evenodd" d="M270.629 139.294C270.179 142.37 260.574 136.517 249.318 133.576C244.531 132.315 239.833 132.54 236.667 132.54C231.189 132.54 223.445 134.656 220.278 137.043C217.112 139.429 215.536 142.16 215.536 145.222C215.536 148.554 217.187 151.27 220.503 153.401C223.82 155.532 231.354 156.598 237.102 156.598C239.983 156.598 242.925 156.253 245.956 155.577C249.123 154.812 252.14 153.866 255.021 152.771C257.903 151.57 260.634 150.34 263.23 149.064C265.962 147.788 268.333 146.543 270.359 145.357L277.443 141.35C280.519 139.759 283.536 138.123 286.477 136.442C289.554 134.671 292.72 133.081 295.947 131.655C299.174 130.154 302.625 128.909 306.302 127.933C309.979 126.958 314.016 126.477 318.414 126.477C322.811 126.477 326.788 126.958 330.315 127.933C333.992 128.818 337.143 130.109 339.785 131.79C342.426 133.381 344.407 135.287 345.728 137.493C347.198 139.699 347.934 142.145 347.934 144.802C347.934 147.458 347.273 149.934 345.953 152.246C344.632 154.452 342.726 156.403 340.22 158.083C337.728 159.764 334.637 161.1 330.975 162.061C327.448 162.946 323.411 163.396 318.864 163.396C314.752 163.396 310.79 162.991 306.978 162.196C303.166 161.31 299.564 160.2 296.187 158.879C292.81 157.558 282.23 154.392 283.866 151.765C285.217 149.889 286.687 151.345 290.244 152.651C293.141 153.716 306.347 158.489 316.733 157.168C322.045 156.493 329.624 155.547 332.941 153.416C336.258 151.285 337.909 148.554 337.909 145.237C337.909 142.16 336.333 139.444 333.166 137.058C330 134.671 322.676 133.471 317.213 133.471C314.046 133.471 310.955 133.891 307.923 134.747C304.757 135.602 301.74 136.668 298.859 137.943C295.977 139.129 293.246 140.419 290.649 141.785C287.918 143.151 285.442 144.877 283.145 145.897L273.871 151.33L268.003 154.377C264.926 155.967 261.684 157.423 258.308 158.759C255.081 160.08 251.629 161.19 247.952 162.076C244.276 162.961 240.238 163.411 235.841 163.411C231.444 163.411 227.392 162.961 223.73 162.076C220.203 161.1 217.127 159.824 214.485 158.234C211.994 156.553 210.013 154.602 208.542 152.396C207.222 150.189 206.561 147.788 206.561 145.222C206.561 142.656 207.222 140.404 208.542 138.183C210.013 135.887 211.994 133.891 214.485 132.21C216.977 130.439 219.993 129.074 223.52 128.098C227.047 127.123 231.009 126.642 235.421 126.642C239.833 126.642 243.72 127.123 247.532 128.098C251.344 128.984 256.042 130.379 259.418 131.88C262.945 133.291 271.74 136.397 270.689 139.324L270.629 139.294Z" fill="#00A7A7"/>
<path d="M278.763 12.0261C273.54 12.0261 269.293 19.3949 269.293 26.6286C269.293 33.8623 273.525 41.2311 278.763 41.2311C284.001 41.2311 288.233 33.8623 288.233 26.6286C288.233 19.3949 283.986 12.0261 278.763 12.0261V12.0261ZM278.688 2.51123C287.888 2.51123 295.361 12.8365 295.361 25.5781C295.361 38.3196 287.903 48.6449 278.688 48.6449C269.473 48.6449 262.014 38.3196 262.014 25.5781C262.014 12.8365 269.473 2.51123 278.688 2.51123V2.51123Z" fill="#00A7A7"/>
<path fill-rule="evenodd" clip-rule="evenodd" d="M288.687 75.526C319.213 17.7464 346.046 6.5056 342.925 2.00329C335.736 -8.38203 291.403 46.7712 280.658 73.4549C269.762 100.514 262.784 115.116 262.168 120.564C262.018 121.87 264.089 122.83 264.825 122.05C271.683 113.856 281.603 88.9429 288.687 75.526V75.526Z" fill="#00A7A7"/>
<path fill-rule="evenodd" clip-rule="evenodd" d="M267.122 75.526C236.612 17.7464 209.763 6.5056 212.884 2.00329C220.073 -8.38203 264.406 46.7712 275.151 73.4549C286.047 100.514 293.026 115.116 293.641 120.564C293.791 121.87 291.72 122.83 290.984 122.05C284.126 113.856 274.206 88.9429 267.122 75.526V75.526Z" fill="#00A7A7"/>
<path d="M4.35234 67.7069C4.15724 67.0315 3.67699 66.6563 3.01666 66.5663C1.59092 66.2811 0.630432 65.0355 0.630432 63.5047C0.630432 61.3136 2.34131 60.2631 4.35234 60.2631C6.93366 60.2631 8.83964 61.9739 9.69508 64.2701L21.4311 94.8108L23.8173 103.11H23.9074L26.3836 94.9008L38.4048 64.2551C39.3653 61.8689 41.2713 60.248 43.9426 60.248C45.8486 60.248 47.4695 61.3886 47.4695 63.3997C47.4695 64.9305 46.614 66.1611 45.0832 66.4612C44.5129 66.5513 44.0327 67.0315 43.7475 67.6018L27.044 110.269C25.138 115.041 22.8418 120.954 18.4596 124.106C16.4485 125.532 14.2574 126.117 12.0663 126.117C9.59003 126.117 7.09875 125.441 4.71253 124.586C3.57194 124.106 2.70149 122.77 2.70149 121.524C2.70149 119.814 4.23228 118.463 5.85311 118.463C7.75909 118.463 9.77012 119.799 11.8712 119.799C12.9217 119.799 13.9723 119.603 14.8277 118.943C14.8277 118.943 17.7842 116.557 19.9754 111.109C20.1705 110.734 20.3505 110.254 20.5456 109.773L4.35234 67.7069Z" fill="#545548"/>
<path d="M52.0878 85.4616C52.0878 71.6245 63.4487 60.2637 77.3758 60.2637C91.3029 60.2637 102.769 71.6245 102.769 85.4616C102.769 99.2987 91.408 110.855 77.3758 110.855C63.3436 110.855 52.0878 99.4938 52.0878 85.4616ZM58.1059 85.4616C58.1059 96.1471 66.8854 104.746 77.3908 104.746C87.8962 104.746 96.7657 96.1621 96.7657 85.4616C96.7657 74.7611 88.0763 66.3718 77.3908 66.3718C66.7053 66.3718 58.1059 74.9562 58.1059 85.4616V85.4616Z" fill="#545548"/>
<path d="M160.997 63.3102C160.997 64.4508 160.322 65.6064 159.181 66.0716C159.181 66.0716 158.506 66.3568 158.506 67.3173V103.396C158.506 120.775 147.055 126.117 135.694 126.117C125.009 126.117 117.655 120.775 117.655 120.775C116.515 120.009 116.124 119.244 116.124 118.298C116.124 116.588 117.37 115.237 119.186 115.237C119.666 115.237 120.327 115.327 120.807 115.612C120.807 115.612 128.056 120.294 135.604 120.294C146.875 120.294 152.398 113.421 152.398 103.396V98.1431C152.398 98.1431 147.821 106.067 135.409 106.067C122.052 106.067 112.222 97.0025 112.222 83.9308C112.222 70.8591 121.962 60.2637 135.514 60.2637C146.875 60.2637 152.413 69.4334 152.413 69.4334V66.9571C152.413 63.3252 154.229 60.2787 157.756 60.2787C159.467 60.2787 160.997 61.5243 160.997 63.3402V63.3102ZM118.721 83.8408C118.721 93.3857 125.594 100.259 135.799 100.259C146.005 100.259 152.878 93.6708 152.878 83.7507C152.878 74.491 146.2 66.1917 135.98 66.1917C125.759 66.1917 118.706 74.4009 118.706 83.8558L118.721 83.8408Z" fill="#545548"/>
<path d="M209.489 103.216V100.544C206.142 106.938 199.088 109.894 192.695 109.894C179.518 109.894 169.973 98.6233 169.973 85.6567C169.973 72.69 179.233 60.2637 192.695 60.2637C199.193 60.2637 205.677 62.7399 209.489 69.7185V66.9571C209.489 63.3252 211.305 60.2787 214.831 60.2787C216.542 60.2787 218.073 61.5243 218.073 63.3402C218.073 64.4808 217.398 65.6364 216.257 66.1017C216.257 66.1017 215.582 66.3868 215.582 67.3473V102.856C215.582 103.816 216.257 104.101 216.257 104.101C217.398 104.581 218.073 105.722 218.073 106.863C218.073 108.678 216.542 109.924 214.831 109.924C211.305 109.924 209.489 106.863 209.489 103.246V103.216ZM176.082 85.6567C176.082 95.2916 182.58 103.786 192.785 103.786C202.99 103.786 209.489 95.4867 209.489 85.7467C209.489 76.0067 203.185 66.3718 192.785 66.3718C182.385 66.3718 176.082 76.2018 176.082 85.6567V85.6567Z" fill="#545548"/>
<path d="M342.862 88.6117C344.108 97.016 350.981 104.745 359.956 104.745C366.634 104.745 371.407 102.734 374.559 99.5974C375.234 98.922 376.089 98.6369 376.945 98.6369C378.476 98.6369 380.006 99.8825 380.006 101.503C380.006 102.359 379.721 103.124 379.151 103.694C374.859 108.272 368.645 110.853 359.971 110.853C346.224 110.853 336.679 99.0121 336.679 85.4601C336.679 71.9082 346.224 60.2622 359.971 60.2622C373.718 60.2622 383.458 72.3884 383.458 85.4601C383.458 87.2761 381.837 88.6117 380.216 88.6117H342.892H342.862ZM377.23 82.5036C376.089 74.0093 368.931 66.3703 359.956 66.3703C350.981 66.3703 343.823 74.0093 342.862 82.5036H377.23V82.5036Z" fill="#545548"/>
<path d="M434.665 103.216V100.545C431.318 106.938 424.265 109.895 417.872 109.895C404.695 109.895 395.15 98.6238 395.15 85.6572C395.15 72.6905 404.41 60.2642 417.872 60.2642C424.37 60.2642 430.853 62.7404 434.665 69.719V66.9576C434.665 63.3257 436.481 60.2792 440.008 60.2792C441.719 60.2792 443.25 61.5248 443.25 63.3407C443.25 64.4813 442.574 65.6369 441.434 66.1022C441.434 66.1022 440.758 66.3873 440.758 67.3478V102.856C440.758 103.816 441.434 104.102 441.434 104.102C442.574 104.582 443.25 105.722 443.25 106.863C443.25 108.679 441.719 109.925 440.008 109.925C436.481 109.925 434.665 106.863 434.665 103.246V103.216ZM401.258 85.6572C401.258 95.2921 407.756 103.786 417.962 103.786C428.167 103.786 434.665 95.4872 434.665 85.7472C434.665 76.0072 428.362 66.3723 417.962 66.3723C407.561 66.3723 401.258 76.2023 401.258 85.6572V85.6572Z" fill="#545548"/>
<path d="M471.778 110.854C467.096 110.854 461.573 108.948 457.656 106.367C456.695 105.691 456.32 104.746 456.32 103.785C456.32 101.594 458.901 99.8684 461.573 101.684C464.334 103.695 468.161 104.746 472.168 104.746C478.081 104.746 483.529 101.879 483.529 97.9624C483.529 93.0999 477.511 90.9988 472.078 88.7927C465.775 86.3164 456.14 82.2043 456.14 73.6199C456.14 65.981 464.064 60.248 472.934 60.248C478.081 60.248 482.959 62.064 486.396 64.8254C487.251 65.5908 487.641 66.5363 487.641 67.4067C487.641 69.5978 484.88 71.3237 482.584 69.5978C479.912 67.4968 476.385 66.3562 472.949 66.3562C467.216 66.3562 462.263 69.7029 462.263 73.71C462.263 78.2873 469.047 80.8686 473.624 82.6846C480.693 85.551 489.757 89.9333 489.757 97.9624C489.757 107.417 479.252 110.854 471.808 110.854H471.778Z" fill="#545548"/>
<path d="M502.02 67.7069C501.825 67.0315 501.344 66.6563 500.684 66.5663C499.258 66.2811 498.298 65.0355 498.298 63.5047C498.298 61.3136 500.009 60.2631 502.02 60.2631C504.601 60.2631 506.507 61.9739 507.362 64.2701L519.098 94.8108L521.485 103.11H521.575L524.051 94.9008L536.072 64.2551C537.033 61.8689 538.939 60.248 541.61 60.248C543.516 60.248 545.137 61.3886 545.137 63.3997C545.137 64.9305 544.281 66.1611 542.751 66.4612C542.18 66.5513 541.7 67.0315 541.415 67.6018L524.711 110.269C522.805 115.041 520.509 120.954 516.127 124.106C514.116 125.532 511.925 126.117 509.734 126.117C507.257 126.117 504.766 125.441 502.38 124.586C501.239 124.106 500.369 122.77 500.369 121.524C500.369 119.814 501.9 118.463 503.52 118.463C505.426 118.463 507.437 119.799 509.539 119.799C510.589 119.799 511.64 119.603 512.495 118.943C512.495 118.943 515.452 116.557 517.643 111.109C517.838 110.734 518.018 110.254 518.213 109.773L501.99 67.6769L502.02 67.7069Z" fill="#545548"/>
</svg>
