<svg width="364" height="364" viewBox="0 0 364 364" fill="none" xmlns="http://www.w3.org/2000/svg">
<path d="M244.249 357.41L229.985 314.362L257.198 328.098C259.425 329.217 261.915 328.395 263.032 326.178C264.143 323.949 263.316 321.452 261.101 320.328L226.111 302.668L205.619 240.811L227.83 252.026C230.057 253.144 232.548 252.322 233.664 250.105C234.775 247.877 233.949 245.38 231.733 244.255L201.745 229.117L188.591 189.404L228.023 209.307L238.824 241.904C239.657 244.412 241.872 245.537 244.374 244.709C246.876 243.881 247.993 241.664 247.16 239.155L239.135 214.912L266.348 228.648L288.088 294.268C288.921 296.777 291.136 297.902 293.638 297.074C296.14 296.246 297.257 294.029 296.424 291.52L277.448 234.258L294.109 242.668L306.431 279.871C307.263 282.38 309.478 283.504 311.98 282.676C314.482 281.848 315.599 279.632 314.767 277.123L305.209 248.278L345.749 268.743C347.976 269.862 350.466 269.039 351.583 266.823C352.694 264.594 351.867 262.097 349.652 260.973L309.112 240.508L337.879 231.003C340.381 230.175 341.497 227.959 340.665 225.45C339.832 222.941 337.617 221.817 335.115 222.645L298.012 234.898L281.351 226.488L338.458 207.617C340.96 206.789 342.076 204.572 341.244 202.063C340.411 199.555 338.196 198.43 335.694 199.258L270.251 220.878L244.145 207.704L266.657 200.269C269.159 199.441 270.276 197.225 269.443 194.716C268.611 192.207 266.396 191.083 263.894 191.911L233.051 202.105L194.179 182.481L235.859 168.71L263.632 182.724C265.859 183.843 268.349 183.02 269.466 180.804C270.577 178.575 269.75 176.078 267.535 174.954L247.539 164.863L305.487 145.722L340.477 163.382C342.704 164.501 345.195 163.679 346.311 161.462C347.422 159.233 346.596 156.736 344.38 155.612L317.167 141.876L360.098 127.691C362.6 126.863 363.717 124.647 362.884 122.138C362.052 119.629 359.837 118.505 357.335 119.333L314.403 133.517L328.046 106.287C329.157 104.058 328.33 101.561 326.115 100.437C323.888 99.3182 321.398 100.14 320.281 102.357L302.741 137.37L242.302 157.333L254.276 133.439C255.386 131.211 254.56 128.714 252.344 127.589C250.117 126.471 247.627 127.293 246.51 129.51L230.916 160.625L189.645 174.252L208.578 136.463L241.513 125.584C244.015 124.756 245.132 122.54 244.299 120.031C243.467 117.522 241.251 116.398 238.749 117.226L214.162 125.35L229.756 94.2343L294.375 72.8911C296.877 72.0631 297.994 69.8465 297.161 67.3377C296.329 64.8289 294.113 63.7045 291.611 64.5325L234.504 83.4034L242.857 66.7313L279.96 54.4786C282.462 53.6506 283.579 51.4339 282.746 48.9251C281.913 46.4163 279.698 45.292 277.196 46.12L248.429 55.6244L269.027 15.9023C270.138 13.6739 269.311 11.1769 267.096 10.0525C264.869 8.9339 262.378 9.75611 261.262 11.9728L240.936 52.5389L231.378 23.6939C230.545 21.1852 228.33 20.0608 225.828 20.8888C223.326 21.7168 222.209 23.9335 223.042 26.4422L235.363 63.6458L227.011 80.3179L208.034 23.0559C207.202 20.5471 204.986 19.4227 202.484 20.2507C199.982 21.0787 198.866 23.2954 199.698 25.8042L221.439 91.4249L206.961 120.324L199.757 98.595C198.924 96.0862 196.709 94.9618 194.207 95.7898C191.705 96.6178 190.588 98.8345 191.421 101.343L201.395 131.443L182.738 168.672L169.439 128.549L184.199 99.1018C185.31 96.8734 184.483 94.3764 182.268 93.252C180.041 92.1334 177.551 92.9556 176.434 95.1723L165.853 116.29L146.605 58.1834L164.145 23.1708C165.256 20.9424 164.429 18.4453 162.214 17.321C159.987 16.2024 157.497 17.0246 156.38 19.2413L142.737 46.472L128.35 3.38272C127.518 0.873944 125.302 -0.250431 122.8 0.577565C120.298 1.40556 119.182 3.62225 120.014 6.13103L134.279 49.1787L107.065 35.4427C104.838 34.3241 102.348 35.1463 101.231 37.363C100.673 38.4713 100.68 39.8696 100.946 40.7019C101.229 41.5401 102.055 42.6506 103.163 43.2128L138.152 60.8726L157.678 119.805L135.467 108.59C133.24 107.472 130.75 108.294 129.633 110.511C129.075 111.619 129.082 113.017 129.348 113.85C129.631 114.688 130.457 115.798 131.564 116.36L161.552 131.499L174.706 171.211L137.501 152.427L127.666 122.756C126.833 120.247 124.618 119.123 122.116 119.951C119.614 120.779 118.497 122.995 119.33 125.504L126.39 146.823L96.9614 131.962L75.3539 66.7579C74.5212 64.2491 72.306 63.1247 69.804 63.9527C67.302 64.7807 66.1852 66.9974 67.0179 69.5062L85.9945 126.768L69.3332 118.359L57.0117 81.155C56.1791 78.6462 53.9638 77.5218 51.4618 78.3498C48.9599 79.1778 47.8431 81.3945 48.6757 83.9033L58.2334 112.748L17.2843 92.4272C15.0574 91.3086 12.5671 92.1308 11.4503 94.3475C10.8919 95.4559 10.899 96.8542 11.1649 97.6864C11.4483 98.5247 12.2738 99.6352 13.3815 100.197L53.9213 120.662L25.1544 130.167C22.6525 130.995 21.5357 133.211 22.3683 135.72C23.2009 138.229 25.4162 139.353 27.9182 138.525L65.0211 126.273L81.6824 134.682L24.5754 153.553C22.0734 154.381 20.9566 156.598 21.7893 159.107C22.6219 161.615 24.8372 162.74 27.3391 161.912L92.7822 140.293L124.997 156.55L99.9833 164.812C97.4813 165.64 96.3646 167.857 97.1972 170.366C98.0298 172.874 100.245 173.999 102.747 173.171L136.097 162.16L172.754 180.66L133.149 193.741L102.054 178.04C99.8267 176.922 97.3364 177.744 96.2197 179.96C95.1087 182.189 95.9355 184.686 98.1508 185.81L122.029 197.866L58.6615 218.795L23.6715 201.135C21.4446 200.016 18.9543 200.839 17.8375 203.055C16.7266 205.284 17.5534 207.781 19.7687 208.905L46.9818 222.641L4.05069 236.826C1.54871 237.654 0.431923 239.871 1.26455 242.379C2.09718 244.888 4.31247 246.013 6.81445 245.185L49.7456 231L36.1028 258.231C35.5445 259.339 35.5515 260.737 35.8174 261.569C36.1008 262.408 36.9263 263.518 38.034 264.08C40.2609 265.199 42.7512 264.377 43.868 262.16L61.1302 226.321L121.154 206.49L111.132 226.499C110.574 227.607 110.581 229.005 110.847 229.838C111.13 230.676 111.956 231.786 113.063 232.349C115.29 233.467 117.781 232.645 118.897 230.428L132.817 202.637L171.58 189.827L152.647 227.616L122.629 237.535C120.127 238.363 119.01 240.579 119.843 243.088C120.675 245.597 122.891 246.721 125.393 245.893L147.063 238.729L133.42 265.96L67.977 287.579C65.4751 288.407 64.3583 290.624 65.1909 293.132C66.0235 295.641 68.2388 296.765 70.7408 295.937L128.263 276.934L119.91 293.607L82.8074 305.859C80.3054 306.687 79.1886 308.904 80.0213 311.413C80.8539 313.922 83.0692 315.046 85.5711 314.218L114.338 304.713L94.0121 345.28C93.4537 346.388 93.4608 347.786 93.7267 348.618C94.01 349.457 94.8356 350.567 95.9432 351.129C98.1702 352.248 100.66 351.426 101.777 349.209L122.103 308.643L131.661 337.488C132.494 339.997 134.709 341.121 137.211 340.293C139.713 339.465 140.83 337.248 139.997 334.74L127.675 297.536L136.028 280.864L155.005 338.126C155.837 340.635 158.053 341.759 160.555 340.931C163.057 340.103 164.173 337.886 163.341 335.378L141.6 269.757L156.078 240.858L164.248 265.512C165.08 268.021 167.296 269.145 169.798 268.317C172.3 267.489 173.416 265.272 172.584 262.764L161.644 229.739L180.301 192.51L193.599 232.633L179.122 261.532C178.564 262.64 178.571 264.038 178.837 264.871C179.12 265.709 179.945 266.819 181.053 267.382C183.28 268.5 185.77 267.678 186.887 265.461L197.467 244.344L217.681 305.375L200.142 340.388C199.583 341.496 199.59 342.894 199.856 343.727C200.14 344.565 200.965 345.675 202.073 346.238C204.3 347.356 206.79 346.534 207.907 344.317L221.549 317.086L235.814 360.134C236.646 362.643 238.862 363.767 241.364 362.939C243.866 362.111 244.982 359.895 244.15 357.386L244.249 357.41Z" fill="white"/>
</svg>
