<svg width="719" height="334" viewBox="0 0 719 334" fill="none" xmlns="http://www.w3.org/2000/svg">
<path fill-rule="evenodd" clip-rule="evenodd" d="M23.8864 85.0703L0.625 0H11.0926L28.871 69.2858H29.7018L47.8124 0H59.4432L77.5538 69.2858H78.3846L96.163 0H106.631L83.3692 85.0703H72.7354L53.9601 17.2799H53.2955L34.5202 85.0703H23.8864ZM138.117 86.3996C132.357 86.3996 127.303 85.0288 122.955 82.2873C118.635 79.5457 115.257 75.7104 112.82 70.7812C110.411 65.852 109.206 60.092 109.206 53.5013C109.206 46.8551 110.411 41.0536 112.82 36.0967C115.257 31.1398 118.635 27.2906 122.955 24.5491C127.303 21.8076 132.357 20.4368 138.117 20.4368C143.877 20.4368 148.917 21.8076 153.237 24.5491C157.584 27.2906 160.963 31.1398 163.372 36.0967C165.809 41.0536 167.027 46.8551 167.027 53.5013C167.027 60.092 165.809 65.852 163.372 70.7812C160.963 75.7104 157.584 79.5457 153.237 82.2873C148.917 85.0288 143.877 86.3996 138.117 86.3996ZM138.117 77.5934C142.492 77.5934 146.092 76.4719 148.917 74.2288C151.741 71.9858 153.832 69.0366 155.189 65.3812C156.546 61.7258 157.224 57.7659 157.224 53.5013C157.224 49.2367 156.546 45.2628 155.189 41.5798C153.832 37.8967 151.741 34.9198 148.917 32.6491C146.092 30.3783 142.492 29.2429 138.117 29.2429C133.741 29.2429 130.141 30.3783 127.317 32.6491C124.492 34.9198 122.401 37.8967 121.044 41.5798C119.687 45.2628 119.009 49.2367 119.009 53.5013C119.009 57.7659 119.687 61.7258 121.044 65.3812C122.401 69.0366 124.492 71.9858 127.317 74.2288C130.141 76.4719 133.741 77.5934 138.117 77.5934ZM181.991 21.2676V85.0703H191.794V45.1936C191.794 42.0644 192.459 39.309 193.788 36.9275C195.145 34.5183 196.917 32.6352 199.105 31.2783C201.321 29.9214 203.702 29.2429 206.25 29.2429C209.96 29.2429 212.993 30.3645 215.347 32.6075C217.7 34.8229 218.877 37.7444 218.877 41.3721V85.0703H228.847V43.5321C228.847 39.4059 230.079 35.9998 232.543 33.3137C235.008 30.5998 238.483 29.2429 242.97 29.2429C246.459 29.2429 249.491 30.2537 252.066 32.2752C254.642 34.2967 255.929 37.6613 255.929 42.369V85.0703H265.732V42.369C265.732 34.8644 263.919 29.3398 260.291 25.7953C256.663 22.223 251.997 20.4368 246.293 20.4368C241.723 20.4368 237.805 21.4199 234.537 23.386C231.27 25.3245 228.819 27.9414 227.185 31.2368H226.52C224.942 27.8306 222.74 25.186 219.916 23.303C217.119 21.3922 213.616 20.4368 209.407 20.4368C205.253 20.4368 201.694 21.3922 198.731 23.303C195.768 25.186 193.622 27.8306 192.293 31.2368H191.462V21.2676H181.991ZM310.407 86.3996C304.259 86.3996 298.956 85.0426 294.498 82.3288C290.067 79.5873 286.647 75.7658 284.238 70.8642C281.856 65.935 280.665 60.2028 280.665 53.6674C280.665 47.1321 281.856 41.3721 284.238 36.3875C286.647 31.3752 289.998 27.4706 294.29 24.6737C298.61 21.8491 303.65 20.4368 309.41 20.4368C312.733 20.4368 316.015 20.9907 319.255 22.0983C322.495 23.206 325.444 25.006 328.102 27.4983C330.761 29.9629 332.879 33.2306 334.458 37.3013C336.036 41.3721 336.825 46.3844 336.825 52.3382V56.492H290.49C290.631 60.7369 291.454 64.3784 292.961 67.4166C294.65 70.7396 296.99 73.2735 299.981 75.0181C302.972 76.735 306.447 77.5934 310.407 77.5934C312.982 77.5934 315.308 77.2334 317.385 76.5134C319.49 75.7658 321.304 74.6581 322.827 73.1904C324.35 71.695 325.527 69.8396 326.358 67.6243L335.828 70.2827C334.831 73.495 333.156 76.3196 330.802 78.7565C328.448 81.1657 325.541 83.0488 322.079 84.4057C318.618 85.7349 314.727 86.3996 310.407 86.3996ZM292.753 39.6275C291.448 42.2617 290.702 45.0586 290.515 48.0182H326.856C326.856 44.4182 326.136 41.2059 324.696 38.3813C323.284 35.5567 321.262 33.3275 318.631 31.6937C316.028 30.0598 312.955 29.2429 309.41 29.2429C305.505 29.2429 302.127 30.2122 299.275 32.1506C296.45 34.0614 294.276 36.5537 292.753 39.6275ZM361.54 85.0703V46.689C361.54 42.9782 362.247 39.8213 363.659 37.2183C365.071 34.6152 366.996 32.6352 369.433 31.2783C371.897 29.9214 374.694 29.2429 377.823 29.2429C382.365 29.2429 385.937 30.6552 388.54 33.4798C391.143 36.2767 392.445 40.1813 392.445 45.1936V85.0703H402.248V44.529C402.248 39.1013 401.348 34.6152 399.548 31.0706C397.748 27.4983 395.228 24.8399 391.988 23.0953C388.748 21.323 384.968 20.4368 380.648 20.4368C375.83 20.4368 371.897 21.4337 368.851 23.4276C365.805 25.3937 363.534 27.9968 362.039 31.2368H361.208V21.2676H351.737V85.0703H361.54ZM428.801 0V7.47688C428.801 9.74764 428.386 12.1707 427.555 14.7461C426.752 17.2938 425.561 19.7722 423.983 22.1814C422.432 24.563 420.549 26.6399 418.334 28.4122L413.017 24.0922C414.761 21.5999 416.271 19.0107 417.544 16.3245C418.846 13.6107 419.497 10.7169 419.497 7.64304V0H428.801ZM469.114 38.049L477.92 35.5567C476.397 31.0152 473.822 27.3599 470.194 24.5906C466.594 21.8214 461.637 20.4368 455.323 20.4368C450.837 20.4368 446.822 21.226 443.277 22.8045C439.76 24.383 436.977 26.5568 434.928 29.326C432.907 32.0952 431.896 35.2798 431.896 38.8798C431.896 43.2829 433.253 46.9521 435.967 49.8874C438.708 52.7951 443 54.9413 448.843 56.3259L459.477 58.8182C462.69 59.5658 465.071 60.7012 466.622 62.2243C468.173 63.7197 468.948 65.575 468.948 67.7904C468.948 70.5319 467.591 72.8858 464.877 74.8519C462.191 76.7904 458.563 77.7596 453.994 77.7596C449.979 77.7596 446.725 76.9011 444.233 75.1842C441.768 73.4673 440.093 70.8919 439.207 67.4581L429.902 69.7843C431.037 75.2119 433.737 79.338 438.002 82.1626C442.267 84.9873 447.653 86.3996 454.16 86.3996C459.117 86.3996 463.465 85.5688 467.203 83.9073C470.942 82.2457 473.849 79.975 475.926 77.095C478.031 74.215 479.083 70.9473 479.083 67.292C479.083 62.8335 477.685 59.192 474.888 56.3674C472.091 53.5151 467.84 51.3967 462.136 50.0121L452.665 47.6859C448.899 46.7444 446.13 45.5675 444.357 44.1552C442.585 42.7429 441.699 40.8182 441.699 38.3813C441.699 35.6398 442.987 33.3829 445.562 31.6106C448.165 29.8106 451.419 28.9106 455.323 28.9106C458.176 28.9106 460.516 29.3675 462.343 30.2814C464.171 31.1952 465.611 32.3583 466.663 33.7706C467.743 35.1552 468.56 36.5813 469.114 38.049ZM578.777 244.438H568.974V308.24H578.777V244.438ZM569.015 231.851C570.4 233.153 572.048 233.804 573.958 233.804C575.869 233.804 577.503 233.153 578.86 231.851C580.245 230.55 580.937 228.985 580.937 227.158C580.937 225.33 580.245 223.765 578.86 222.464C577.503 221.162 575.869 220.511 573.958 220.511C572.048 220.511 570.4 221.162 569.015 222.464C567.658 223.765 566.98 225.33 566.98 227.158C566.98 228.985 567.658 230.55 569.015 231.851ZM400.91 249.754H411.212C410.436 245.379 409.024 241.488 406.975 238.082C404.926 234.648 402.378 231.741 399.332 229.359C396.286 226.95 392.866 225.122 389.072 223.876C385.306 222.63 381.276 222.007 376.984 222.007C369.729 222.007 363.276 223.779 357.627 227.324C351.978 230.868 347.533 235.908 344.294 242.444C341.054 248.979 339.434 256.733 339.434 265.705C339.434 274.677 341.054 282.431 344.294 288.967C347.533 295.502 351.978 300.542 357.627 304.086C363.276 307.631 369.729 309.403 376.984 309.403C381.276 309.403 385.306 308.78 389.072 307.534C392.866 306.288 396.286 304.474 399.332 302.093C402.378 299.683 404.926 296.762 406.975 293.328C409.024 289.894 410.436 286.003 411.212 281.656H400.91C400.301 284.591 399.235 287.194 397.712 289.465C396.216 291.708 394.389 293.605 392.229 295.156C390.096 296.679 387.729 297.828 385.126 298.603C382.523 299.379 379.809 299.766 376.984 299.766C371.833 299.766 367.167 298.465 362.986 295.862C358.832 293.259 355.523 289.423 353.058 284.356C350.621 279.288 349.403 273.071 349.403 265.705C349.403 258.339 350.621 252.122 353.058 247.054C355.523 241.987 358.832 238.151 362.986 235.548C367.167 232.945 371.833 231.644 376.984 231.644C379.809 231.644 382.523 232.031 385.126 232.807C387.729 233.582 390.096 234.745 392.229 236.296C394.389 237.819 396.216 239.702 397.712 241.945C399.235 244.188 400.301 246.791 400.91 249.754ZM437.287 305.457C441.635 308.199 446.689 309.569 452.449 309.569C458.209 309.569 463.249 308.199 467.569 305.457C471.916 302.716 475.295 298.88 477.704 293.951C480.141 289.022 481.359 283.262 481.359 276.671C481.359 270.025 480.141 264.224 477.704 259.267C475.295 254.31 471.916 250.461 467.569 247.719C463.249 244.978 458.209 243.607 452.449 243.607C446.689 243.607 441.635 244.978 437.287 247.719C432.967 250.461 429.589 254.31 427.152 259.267C424.743 264.224 423.538 270.025 423.538 276.671C423.538 283.262 424.743 289.022 427.152 293.951C429.589 298.88 432.967 302.716 437.287 305.457ZM463.249 297.399C460.424 299.642 456.824 300.763 452.449 300.763C448.073 300.763 444.473 299.642 441.649 297.399C438.824 295.156 436.733 292.207 435.376 288.551C434.02 284.896 433.341 280.936 433.341 276.671C433.341 272.407 434.02 268.433 435.376 264.75C436.733 261.067 438.824 258.09 441.649 255.819C444.473 253.548 448.073 252.413 452.449 252.413C456.824 252.413 460.424 253.548 463.249 255.819C466.073 258.09 468.164 261.067 469.521 264.75C470.878 268.433 471.556 272.407 471.556 276.671C471.556 280.936 470.878 284.896 469.521 288.551C468.164 292.207 466.073 295.156 463.249 297.399ZM520.416 309.569C515.099 309.569 510.405 308.226 506.334 305.54C502.263 302.826 499.079 299.005 496.78 294.076C494.482 289.119 493.333 283.262 493.333 276.505C493.333 269.804 494.482 263.988 496.78 259.059C499.079 254.13 502.277 250.322 506.376 247.636C510.474 244.95 515.21 243.607 520.582 243.607C524.736 243.607 528.017 244.299 530.426 245.684C532.863 247.041 534.719 248.591 535.993 250.336C537.294 252.053 538.305 253.465 539.025 254.573H539.856V223.17H549.659V308.24H540.188V298.437H539.025C538.305 299.6 537.28 301.068 535.951 302.84C534.622 304.585 532.725 306.149 530.26 307.534C527.796 308.891 524.514 309.569 520.416 309.569ZM521.745 300.763C525.677 300.763 529 299.739 531.714 297.69C534.428 295.613 536.491 292.746 537.903 289.091C539.316 285.408 540.022 281.157 540.022 276.339C540.022 271.576 539.329 267.408 537.945 263.836C536.56 260.236 534.511 257.439 531.797 255.445C529.083 253.424 525.733 252.413 521.745 252.413C517.591 252.413 514.13 253.479 511.36 255.611C508.619 257.716 506.556 260.582 505.171 264.21C503.814 267.81 503.136 271.853 503.136 276.339C503.136 280.88 503.828 285.007 505.213 288.717C506.625 292.4 508.702 295.336 511.443 297.523C514.213 299.683 517.646 300.763 521.745 300.763ZM606.535 269.859V308.24H596.732V244.438H606.203V254.407H607.033C608.529 251.167 610.799 248.564 613.846 246.597C616.892 244.604 620.824 243.607 625.642 243.607C629.962 243.607 633.742 244.493 636.982 246.265C640.222 248.01 642.742 250.668 644.542 254.241C646.342 257.785 647.242 262.271 647.242 267.699V308.24H637.439V268.364C637.439 263.351 636.138 259.447 633.535 256.65C630.932 253.825 627.359 252.413 622.818 252.413C619.689 252.413 616.892 253.091 614.427 254.448C611.99 255.805 610.066 257.785 608.653 260.388C607.241 262.991 606.535 266.148 606.535 269.859ZM678.697 331.668C682.103 332.886 686.174 333.496 690.909 333.496C696.005 333.496 700.629 332.679 704.783 331.045C708.965 329.439 712.288 326.905 714.752 323.443C717.245 320.009 718.491 315.551 718.491 310.068V244.438H709.02V254.573H708.023C707.303 253.465 706.279 252.053 704.949 250.336C703.648 248.591 701.765 247.041 699.3 245.684C696.863 244.299 693.568 243.607 689.414 243.607C684.042 243.607 679.306 244.95 675.208 247.636C671.11 250.294 667.911 254.061 665.613 258.934C663.314 263.78 662.165 269.471 662.165 276.007C662.165 282.653 663.342 288.302 665.696 292.954C668.077 297.606 671.303 301.151 675.374 303.588C679.473 306.025 684.097 307.243 689.248 307.243C693.402 307.243 696.697 306.593 699.134 305.291C701.599 303.962 703.482 302.453 704.783 300.763C706.112 299.046 707.137 297.606 707.857 296.443H708.688V309.403C708.688 314.72 707.012 318.625 703.662 321.117C700.311 323.609 696.06 324.856 690.909 324.856C687.06 324.856 683.945 324.288 681.563 323.152C679.21 322.045 677.354 320.729 675.997 319.206C674.64 317.711 673.519 316.382 672.633 315.219L664.823 320.702C666.153 322.917 667.939 324.994 670.182 326.932C672.453 328.899 675.291 330.477 678.697 331.668ZM700.546 295.737C697.832 297.537 694.509 298.437 690.577 298.437C686.479 298.437 683.045 297.482 680.276 295.571C677.534 293.633 675.457 290.974 674.045 287.596C672.66 284.19 671.968 280.271 671.968 275.84C671.968 271.52 672.646 267.588 674.003 264.044C675.388 260.499 677.451 257.674 680.193 255.57C682.962 253.465 686.423 252.413 690.577 252.413C694.565 252.413 697.916 253.41 700.629 255.404C703.343 257.397 705.392 260.153 706.777 263.67C708.162 267.187 708.854 271.244 708.854 275.84C708.854 280.548 708.148 284.591 706.736 287.97C705.323 291.348 703.26 293.937 700.546 295.737Z" fill="#252629"/>
<path d="M114.07 242.474L145.019 241.115L173.58 185.385C175.115 182.175 175.596 178.801 175.676 175.865C175.621 174.61 175.757 172.928 178.057 172.827C180.357 172.726 180.64 174.39 180.695 175.644C181.033 178.563 181.807 181.881 183.618 184.944L216.955 237.955L247.904 236.596L198.355 162.716L238.092 89.5248L207.561 90.8658L181.753 142.494C180.018 145.922 179.747 149.286 179.666 152.223C179.721 153.478 179.586 155.16 177.285 155.261C174.985 155.362 174.702 153.698 174.647 152.444C174.31 149.525 173.744 146.198 171.715 142.935L141.48 93.7683L110.949 95.1094L156.95 164.535L114.07 242.474Z" fill="#D52708"/>
<path d="M252.975 236.373L281.415 235.124L276.574 124.919C276.28 118.228 274.378 113.073 272.248 107.51C271.538 105.655 272.11 104.373 273.974 103.872C275.01 103.617 276.083 104.199 276.566 105.644L319.056 233.47L354.187 231.927L385.306 100.868C385.66 99.3855 386.678 98.7122 387.733 98.8754C389.633 99.211 390.316 100.438 389.771 102.348C388.137 108.077 386.694 113.378 386.988 120.07L391.828 230.274L420.268 229.025L413.802 81.8069L364.45 83.9746L338.806 196.565C337.926 200.375 337.955 205.822 338.176 210.84C338.249 212.513 337.45 213.387 335.777 213.46C334.104 213.534 333.23 212.734 333.157 211.061C332.937 206.042 332.489 200.614 331.278 196.896L295.86 86.9873L246.509 89.1551L252.975 236.373Z" fill="#D52708"/>
<path d="M539.03 223.808L570.815 222.412L510.815 77.5457L470.665 79.3092L423.598 228.878L455.383 227.482L465.206 193.528L526.268 190.846L539.03 223.808ZM471.914 169.767L486.639 118.626C488.264 112.688 489.179 104.895 489.067 97.5672C489.011 96.3125 489.356 94.6212 491.447 94.5294C493.539 94.4375 494.03 96.0921 494.085 97.3468C494.616 104.657 496.211 112.339 498.35 118.111L517.502 167.764L471.914 169.767Z" fill="#D52708"/>
<path d="M623.836 129.78C597.777 127.992 594.636 118.492 594.388 112.845C594.112 106.572 599.072 95.4591 620.611 94.5131C641.94 93.5762 649.029 107.093 649.452 116.712L676.428 115.528C674.962 91.7067 658.268 69.3928 620 71.0737C585.078 72.6076 565.202 92.3374 566.212 115.34C567.314 140.434 581.295 153.439 623.357 157.039C648.807 159.273 655.611 166.308 656.052 176.345C656.41 184.501 649.633 197.16 625.167 198.235C598.191 199.42 592.136 180.829 591.222 169.555L563.618 170.767C564.812 197.952 585.208 223.456 626.195 221.656C665.509 219.929 685.484 197.681 684.418 173.423C682.949 139.964 658.515 132.238 623.836 129.78Z" fill="#D52708"/>
<path fill-rule="evenodd" clip-rule="evenodd" d="M111.401 244.132L155.153 164.609L108.163 93.6911L142.317 92.191L173.022 142.122L173.025 142.125C175.237 145.685 175.832 149.292 176.176 152.267L176.182 152.321L176.185 152.376C176.211 152.984 176.295 153.338 176.414 153.52C176.451 153.577 176.487 153.611 176.553 153.642C176.632 153.678 176.826 153.741 177.218 153.723C177.609 153.706 177.797 153.627 177.872 153.584C177.935 153.548 177.969 153.511 178.001 153.451C178.103 153.259 178.155 152.899 178.128 152.291L178.126 152.236L178.127 152.181C178.21 149.187 178.486 145.543 180.378 141.803L180.38 141.799L206.589 89.3679L240.743 87.8677L200.152 162.632L250.708 238.013L216.128 239.532L182.303 185.746L182.292 185.727C180.334 182.414 179.518 178.864 179.166 175.821L179.159 175.767L179.157 175.712C179.13 175.104 179.047 174.75 178.928 174.567C178.891 174.511 178.855 174.477 178.788 174.446C178.709 174.41 178.515 174.347 178.124 174.364C177.733 174.382 177.545 174.461 177.47 174.504C177.407 174.54 177.373 174.577 177.341 174.637C177.239 174.829 177.187 175.189 177.214 175.797L177.216 175.852L177.214 175.907C177.13 178.969 176.629 182.577 174.968 186.049L174.959 186.068L145.98 242.613L111.401 244.132ZM198.355 162.716L238.092 89.5248L207.561 90.8658L181.753 142.494C180.018 145.922 179.747 149.286 179.666 152.223C179.721 153.478 179.586 155.16 177.285 155.261C174.985 155.362 174.702 153.698 174.647 152.444C174.31 149.525 173.744 146.198 171.715 142.935L141.48 93.7683L110.949 95.1094L156.95 164.535L114.07 242.474L145.019 241.115L173.58 185.385C175.115 182.175 175.596 178.801 175.676 175.865C175.621 174.61 175.757 172.928 178.057 172.827C180.357 172.726 180.64 174.39 180.695 175.644C181.033 178.563 181.807 181.881 183.618 184.944L216.955 237.955L247.904 236.596L198.355 162.716ZM251.505 237.978L244.903 87.685L296.965 85.3982L332.741 196.419L332.742 196.424C334.026 200.368 334.475 205.992 334.694 210.993C334.721 211.593 334.877 211.753 334.906 211.78C334.936 211.807 335.109 211.949 335.709 211.922C336.308 211.896 336.469 211.74 336.496 211.711C336.523 211.681 336.664 211.507 336.638 210.908C336.418 205.906 336.372 200.263 337.306 196.222L337.306 196.219L363.21 82.4885L415.272 80.2017L421.824 229.385L469.52 77.8189L511.825 75.9607L573.078 223.853L537.993 225.394L525.231 192.432L466.377 195.017L456.555 228.971L390.358 231.879L385.45 120.137C385.144 113.173 386.656 107.659 388.291 101.926C388.502 101.186 388.387 100.88 388.337 100.792C388.301 100.731 388.148 100.515 387.485 100.395C387.373 100.38 387.285 100.405 387.199 100.472C387.098 100.549 386.916 100.754 386.803 101.224L355.416 233.414L317.962 235.059L275.106 106.131M385.306 100.868C385.66 99.3855 386.678 98.7122 387.733 98.8754C389.633 99.211 390.316 100.438 389.771 102.348C388.137 108.077 386.694 113.378 386.988 120.07L391.828 230.274L420.268 229.025L413.802 81.8069L364.45 83.9746L338.806 196.565C337.926 200.375 337.955 205.822 338.176 210.84C338.249 212.513 337.45 213.387 335.777 213.46C334.104 213.534 333.23 212.734 333.157 211.061C332.937 206.042 332.489 200.614 331.278 196.896L295.86 86.9873L246.509 89.1551L252.975 236.373L281.415 235.124L276.574 124.919C276.28 118.228 274.378 113.073 272.248 107.51C271.538 105.655 272.11 104.373 273.974 103.872C275.01 103.617 276.083 104.199 276.566 105.644L319.056 233.47L354.187 231.927L385.306 100.868ZM274.353 105.364C273.704 105.542 273.57 105.771 273.54 105.835C273.497 105.926 273.41 106.241 273.685 106.959C275.817 112.527 277.806 117.888 278.112 124.852L283.02 236.594L251.505 237.978M274.353 105.364C274.464 105.339 274.553 105.356 274.646 105.416C274.752 105.484 274.952 105.672 275.105 106.129M465.206 193.528L526.268 190.846L539.03 223.808L570.815 222.412L510.815 77.5457L470.665 79.3092L423.598 228.878L455.383 227.482L465.206 193.528ZM486.639 118.626L471.914 169.767L517.502 167.764L498.35 118.111C496.211 112.339 494.616 104.657 494.085 97.3468C494.03 96.0921 493.539 94.4375 491.447 94.5294C489.356 94.6212 489.011 96.3125 489.067 97.5672C489.179 104.895 488.264 112.688 486.639 118.626ZM515.295 166.321L496.91 118.656L496.906 118.646C494.709 112.718 493.09 104.89 492.55 97.4582L492.549 97.4363L492.548 97.4143C492.525 96.9096 492.416 96.5258 492.269 96.3156C492.209 96.2307 492.149 96.1804 492.074 96.1449C491.996 96.1077 491.83 96.0532 491.515 96.067C491.2 96.0808 491.039 96.1497 490.964 96.1937C490.893 96.2356 490.837 96.291 490.786 96.3808C490.657 96.6031 490.582 96.995 490.604 97.4997L490.605 97.5216L490.605 97.5436C490.72 104.994 489.792 112.934 488.124 119.032L488.121 119.042L488.118 119.052L473.986 168.135L515.295 166.321ZM623.941 128.245L623.945 128.245C641.305 129.475 656.41 132.033 667.376 138.659C678.499 145.38 685.201 156.179 685.956 173.355C686.509 185.951 681.589 198.019 671.479 207.132C661.382 216.233 646.191 222.318 626.263 223.193C605.426 224.109 589.66 218.081 578.942 208.213C568.238 198.358 562.693 184.786 562.081 170.835L562.013 169.297L592.636 167.952L592.756 169.43C593.199 174.903 594.886 182.006 599.596 187.573C604.243 193.065 612.013 197.272 625.099 196.697C637.081 196.171 644.508 192.819 648.878 188.811C653.248 184.803 654.674 180.04 654.514 176.413C654.312 171.806 652.697 168.026 648.229 165.046C643.621 161.973 635.875 159.683 623.223 158.572C602.11 156.765 587.734 152.583 578.486 145.47C569.13 138.273 565.239 128.255 564.674 115.408C563.613 91.2447 584.51 71.092 619.932 69.536C639.384 68.6817 653.551 73.925 663.053 82.6009C672.541 91.2645 677.211 103.201 677.964 115.433L678.06 116.996L647.982 118.318L647.914 116.78C647.717 112.286 645.958 106.892 641.786 102.746C637.65 98.6335 630.988 95.5978 620.678 96.0507C610.16 96.5127 603.929 99.4444 600.375 102.8C596.819 106.159 595.806 110.064 595.925 112.778C596.036 115.306 596.769 118.617 600.402 121.564C604.121 124.58 611.051 127.36 623.941 128.245ZM623.357 157.039C581.295 153.439 567.314 140.434 566.212 115.34C565.202 92.3374 585.078 72.6076 620 71.0737C657.445 69.429 674.234 90.7574 676.312 113.992C676.358 114.503 676.396 115.015 676.428 115.528L649.452 116.712C649.029 107.093 641.94 93.5762 620.611 94.5131C599.072 95.4591 594.112 106.572 594.388 112.845C594.636 118.492 597.777 127.992 623.836 129.78C658.515 132.238 682.949 139.964 684.418 173.423C685.484 197.681 665.509 219.929 626.195 221.656C585.982 223.422 565.589 198.905 563.706 172.304C563.67 171.792 563.641 171.28 563.618 170.767L591.222 169.555C592.136 180.829 598.191 199.42 625.167 198.235C649.633 197.16 656.41 184.501 656.052 176.345C655.611 166.308 648.807 159.273 623.357 157.039Z" fill="#D52708"/>
</svg>
