<svg width="719" height="334" viewBox="0 0 719 334" fill="none" xmlns="http://www.w3.org/2000/svg">
<path fill-rule="evenodd" clip-rule="evenodd" d="M23.8864 85.5469L0.625 0.476562H11.0926L28.871 69.7624H29.7018L47.8124 0.476562H59.4432L77.5538 69.7624H78.3846L96.163 0.476562H106.631L83.3692 85.5469H72.7354L53.9601 17.7565H53.2955L34.5202 85.5469H23.8864ZM138.117 86.8761C132.357 86.8761 127.303 85.5054 122.955 82.7638C118.635 80.0223 115.257 76.1869 112.82 71.2577C110.411 66.3285 109.206 60.5686 109.206 53.9778C109.206 47.3317 110.411 41.5302 112.82 36.5733C115.257 31.6164 118.635 27.7672 122.955 25.0257C127.303 22.2841 132.357 20.9134 138.117 20.9134C143.877 20.9134 148.917 22.2841 153.237 25.0257C157.584 27.7672 160.963 31.6164 163.372 36.5733C165.809 41.5302 167.027 47.3317 167.027 53.9778C167.027 60.5686 165.809 66.3285 163.372 71.2577C160.963 76.1869 157.584 80.0223 153.237 82.7638C148.917 85.5054 143.877 86.8761 138.117 86.8761ZM138.117 78.07C142.492 78.07 146.092 76.9485 148.917 74.7054C151.741 72.4623 153.832 69.5131 155.189 65.8578C156.546 62.2024 157.224 58.2424 157.224 53.9778C157.224 49.7132 156.546 45.7394 155.189 42.0563C153.832 38.3733 151.741 35.3964 148.917 33.1256C146.092 30.8549 142.492 29.7195 138.117 29.7195C133.741 29.7195 130.141 30.8549 127.317 33.1256C124.492 35.3964 122.401 38.3733 121.044 42.0563C119.687 45.7394 119.009 49.7132 119.009 53.9778C119.009 58.2424 119.687 62.2024 121.044 65.8578C122.401 69.5131 124.492 72.4623 127.317 74.7054C130.141 76.9485 133.741 78.07 138.117 78.07ZM181.991 21.7441V85.5469H191.794V45.6702C191.794 42.541 192.459 39.7856 193.788 37.4041C195.145 34.9948 196.917 33.1118 199.105 31.7549C201.321 30.3979 203.702 29.7195 206.25 29.7195C209.96 29.7195 212.993 30.841 215.347 33.0841C217.7 35.2995 218.877 38.221 218.877 41.8487V85.5469H228.847V44.0086C228.847 39.8825 230.079 36.4764 232.543 33.7902C235.008 31.0764 238.483 29.7195 242.97 29.7195C246.459 29.7195 249.491 30.7303 252.066 32.7518C254.642 34.7733 255.929 38.1379 255.929 42.8456V85.5469H265.732V42.8456C265.732 35.341 263.919 29.8164 260.291 26.2718C256.663 22.6995 251.997 20.9134 246.293 20.9134C241.723 20.9134 237.805 21.8965 234.537 23.8626C231.27 25.801 228.819 28.418 227.185 31.7133H226.52C224.942 28.3072 222.74 25.6626 219.916 23.7795C217.119 21.8688 213.616 20.9134 209.407 20.9134C205.253 20.9134 201.694 21.8688 198.731 23.7795C195.768 25.6626 193.622 28.3072 192.293 31.7133H191.462V21.7441H181.991ZM310.407 86.8761C304.259 86.8761 298.956 85.5192 294.498 82.8054C290.067 80.0638 286.647 76.2423 284.238 71.3408C281.856 66.4116 280.665 60.6793 280.665 54.144C280.665 47.6086 281.856 41.8487 284.238 36.8641C286.647 31.8518 289.998 27.9472 294.29 25.1503C298.61 22.3257 303.65 20.9134 309.41 20.9134C312.733 20.9134 316.015 21.4672 319.255 22.5749C322.495 23.6826 325.444 25.4826 328.102 27.9749C330.761 30.4395 332.879 33.7072 334.458 37.7779C336.036 41.8487 336.825 46.8609 336.825 52.8148V56.9686H290.49C290.631 61.2134 291.454 64.8549 292.961 67.8931C294.65 71.2162 296.99 73.75 299.981 75.4946C302.972 77.2116 306.447 78.07 310.407 78.07C312.982 78.07 315.308 77.71 317.385 76.99C319.49 76.2423 321.304 75.1346 322.827 73.667C324.35 72.1716 325.527 70.3162 326.358 68.1008L335.828 70.7593C334.831 73.9716 333.156 76.7962 330.802 79.2331C328.448 81.6423 325.541 83.5254 322.079 84.8823C318.618 86.2115 314.727 86.8761 310.407 86.8761ZM292.753 40.104C291.448 42.7383 290.702 45.5352 290.515 48.4948H326.856C326.856 44.8948 326.136 41.6825 324.696 38.8579C323.284 36.0333 321.262 33.8041 318.631 32.1702C316.028 30.5364 312.955 29.7195 309.41 29.7195C305.505 29.7195 302.127 30.6887 299.275 32.6272C296.45 34.5379 294.276 37.0302 292.753 40.104ZM361.54 85.5469V47.1656C361.54 43.4548 362.247 40.2979 363.659 37.6948C365.071 35.0918 366.996 33.1118 369.433 31.7549C371.897 30.3979 374.694 29.7195 377.823 29.7195C382.365 29.7195 385.937 31.1318 388.54 33.9564C391.143 36.7533 392.445 40.6579 392.445 45.6702V85.5469H402.248V45.0056C402.248 39.5779 401.348 35.0918 399.548 31.5472C397.748 27.9749 395.228 25.3164 391.988 23.5718C388.748 21.7995 384.968 20.9134 380.648 20.9134C375.83 20.9134 371.897 21.9103 368.851 23.9041C365.805 25.8703 363.534 28.4733 362.039 31.7133H361.208V21.7441H351.737V85.5469H361.54ZM428.801 0.476562V7.95345C428.801 10.2242 428.386 12.6473 427.555 15.2226C426.752 17.7703 425.561 20.2488 423.983 22.658C422.432 25.0395 420.549 27.1164 418.334 28.8887L413.017 24.5687C414.761 22.0765 416.271 19.4872 417.544 16.8011C418.846 14.0873 419.497 11.1934 419.497 8.1196V0.476562H428.801ZM469.114 38.5256L477.92 36.0333C476.397 31.4918 473.822 27.8364 470.194 25.0672C466.594 22.298 461.637 20.9134 455.323 20.9134C450.837 20.9134 446.822 21.7026 443.277 23.2811C439.76 24.8595 436.977 27.0334 434.928 29.8026C432.907 32.5718 431.896 35.7564 431.896 39.3564C431.896 43.7594 433.253 47.4286 435.967 50.364C438.708 53.2717 443 55.4178 448.843 56.8024L459.477 59.2947C462.69 60.0424 465.071 61.1778 466.622 62.7009C468.173 64.1962 468.948 66.0516 468.948 68.267C468.948 71.0085 467.591 73.3623 464.877 75.3285C462.191 77.2669 458.563 78.2362 453.994 78.2362C449.979 78.2362 446.725 77.3777 444.233 75.6608C441.768 73.9439 440.093 71.3685 439.207 67.9347L429.902 70.2608C431.037 75.6885 433.737 79.8146 438.002 82.6392C442.267 85.4638 447.653 86.8761 454.16 86.8761C459.117 86.8761 463.465 86.0454 467.203 84.3838C470.942 82.7223 473.849 80.4515 475.926 77.5715C478.031 74.6916 479.083 71.4239 479.083 67.7685C479.083 63.3101 477.685 59.6686 474.888 56.844C472.091 53.9917 467.84 51.8732 462.136 50.4886L452.665 48.1625C448.899 47.2209 446.13 46.044 444.357 44.6317C442.585 43.2194 441.699 41.2948 441.699 38.8579C441.699 36.1164 442.987 33.8595 445.562 32.0872C448.165 30.2872 451.419 29.3872 455.323 29.3872C458.176 29.3872 460.516 29.8441 462.343 30.7579C464.171 31.6718 465.611 32.8349 466.663 34.2472C467.743 35.6318 468.56 37.0579 469.114 38.5256ZM578.777 244.914H568.974V308.717H578.777V244.914ZM569.015 232.328C570.4 233.63 572.048 234.28 573.958 234.28C575.869 234.28 577.503 233.63 578.86 232.328C580.245 231.026 580.937 229.462 580.937 227.634C580.937 225.806 580.245 224.242 578.86 222.94C577.503 221.639 575.869 220.988 573.958 220.988C572.048 220.988 570.4 221.639 569.015 222.94C567.658 224.242 566.98 225.806 566.98 227.634C566.98 229.462 567.658 231.026 569.015 232.328ZM400.91 250.231H411.212C410.436 245.856 409.024 241.965 406.975 238.559C404.926 235.125 402.378 232.217 399.332 229.836C396.286 227.426 392.866 225.599 389.072 224.353C385.306 223.106 381.276 222.483 376.984 222.483C369.729 222.483 363.276 224.256 357.627 227.8C351.978 231.345 347.533 236.385 344.294 242.92C341.054 249.456 339.434 257.209 339.434 266.182C339.434 275.154 341.054 282.908 344.294 289.443C347.533 295.978 351.978 301.018 357.627 304.563C363.276 308.108 369.729 309.88 376.984 309.88C381.276 309.88 385.306 309.257 389.072 308.011C392.866 306.765 396.286 304.951 399.332 302.569C402.378 300.16 404.926 297.238 406.975 293.805C409.024 290.371 410.436 286.48 411.212 282.132H400.91C400.301 285.068 399.235 287.671 397.712 289.942C396.216 292.185 394.389 294.082 392.229 295.632C390.096 297.155 387.729 298.305 385.126 299.08C382.523 299.855 379.809 300.243 376.984 300.243C371.833 300.243 367.167 298.941 362.986 296.338C358.832 293.735 355.523 289.9 353.058 284.832C350.621 279.765 349.403 273.548 349.403 266.182C349.403 258.816 350.621 252.599 353.058 247.531C355.523 242.463 358.832 238.628 362.986 236.025C367.167 233.422 371.833 232.12 376.984 232.12C379.809 232.12 382.523 232.508 385.126 233.283C387.729 234.059 390.096 235.222 392.229 236.773C394.389 238.296 396.216 240.179 397.712 242.422C399.235 244.665 400.301 247.268 400.91 250.231ZM437.287 305.934C441.635 308.675 446.689 310.046 452.449 310.046C458.209 310.046 463.249 308.675 467.569 305.934C471.916 303.192 475.295 299.357 477.704 294.428C480.141 289.498 481.359 283.738 481.359 277.148C481.359 270.502 480.141 264.7 477.704 259.743C475.295 254.786 471.916 250.937 467.569 248.196C463.249 245.454 458.209 244.083 452.449 244.083C446.689 244.083 441.635 245.454 437.287 248.196C432.967 250.937 429.589 254.786 427.152 259.743C424.743 264.7 423.538 270.502 423.538 277.148C423.538 283.738 424.743 289.498 427.152 294.428C429.589 299.357 432.967 303.192 437.287 305.934ZM463.249 297.875C460.424 300.118 456.824 301.24 452.449 301.24C448.073 301.24 444.473 300.118 441.649 297.875C438.824 295.632 436.733 292.683 435.376 289.028C434.02 285.372 433.341 281.412 433.341 277.148C433.341 272.883 434.02 268.909 435.376 265.226C436.733 261.543 438.824 258.566 441.649 256.296C444.473 254.025 448.073 252.889 452.449 252.889C456.824 252.889 460.424 254.025 463.249 256.296C466.073 258.566 468.164 261.543 469.521 265.226C470.878 268.909 471.556 272.883 471.556 277.148C471.556 281.412 470.878 285.372 469.521 289.028C468.164 292.683 466.073 295.632 463.249 297.875ZM520.416 310.046C515.099 310.046 510.405 308.703 506.334 306.017C502.263 303.303 499.079 299.481 496.78 294.552C494.482 289.595 493.333 283.738 493.333 276.982C493.333 270.28 494.482 264.465 496.78 259.536C499.079 254.606 502.277 250.799 506.376 248.113C510.474 245.426 515.21 244.083 520.582 244.083C524.736 244.083 528.017 244.776 530.426 246.16C532.863 247.517 534.719 249.068 535.993 250.813C537.294 252.529 538.305 253.942 539.025 255.049H539.856V223.646H549.659V308.717H540.188V298.914H539.025C538.305 300.077 537.28 301.545 535.951 303.317C534.622 305.061 532.725 306.626 530.26 308.011C527.796 309.368 524.514 310.046 520.416 310.046ZM521.745 301.24C525.677 301.24 529 300.215 531.714 298.166C534.428 296.089 536.491 293.223 537.903 289.568C539.316 285.885 540.022 281.634 540.022 276.815C540.022 272.052 539.329 267.885 537.945 264.312C536.56 260.712 534.511 257.916 531.797 255.922C529.083 253.9 525.733 252.889 521.745 252.889C517.591 252.889 514.13 253.956 511.36 256.088C508.619 258.192 506.556 261.059 505.171 264.686C503.814 268.286 503.136 272.329 503.136 276.815C503.136 281.357 503.828 285.483 505.213 289.194C506.625 292.877 508.702 295.812 511.443 298C514.213 300.16 517.646 301.24 521.745 301.24ZM606.535 270.335V308.717H596.732V244.914H606.203V254.883H607.033C608.529 251.643 610.799 249.04 613.846 247.074C616.892 245.08 620.824 244.083 625.642 244.083C629.962 244.083 633.742 244.969 636.982 246.742C640.222 248.486 642.742 251.145 644.542 254.717C646.342 258.262 647.242 262.748 647.242 268.175V308.717H637.439V268.84C637.439 263.828 636.138 259.923 633.535 257.126C630.932 254.302 627.359 252.889 622.818 252.889C619.689 252.889 616.892 253.568 614.427 254.925C611.99 256.282 610.066 258.262 608.653 260.865C607.241 263.468 606.535 266.625 606.535 270.335ZM678.697 332.144C682.103 333.363 686.174 333.972 690.909 333.972C696.005 333.972 700.629 333.155 704.783 331.521C708.965 329.915 712.288 327.381 714.752 323.92C717.245 320.486 718.491 316.028 718.491 310.545V244.914H709.02V255.049H708.023C707.303 253.942 706.279 252.529 704.949 250.813C703.648 249.068 701.765 247.517 699.3 246.16C696.863 244.776 693.568 244.083 689.414 244.083C684.042 244.083 679.306 245.426 675.208 248.113C671.11 250.771 667.911 254.537 665.613 259.411C663.314 264.257 662.165 269.948 662.165 276.483C662.165 283.129 663.342 288.778 665.696 293.431C668.077 298.083 671.303 301.628 675.374 304.065C679.473 306.501 684.097 307.72 689.248 307.72C693.402 307.72 696.697 307.069 699.134 305.768C701.599 304.438 703.482 302.929 704.783 301.24C706.112 299.523 707.137 298.083 707.857 296.92H708.688V309.88C708.688 315.197 707.012 319.101 703.662 321.594C700.311 324.086 696.06 325.332 690.909 325.332C687.06 325.332 683.945 324.764 681.563 323.629C679.21 322.521 677.354 321.206 675.997 319.683C674.64 318.188 673.519 316.858 672.633 315.695L664.823 321.178C666.153 323.394 667.939 325.471 670.182 327.409C672.453 329.375 675.291 330.954 678.697 332.144ZM700.546 296.214C697.832 298.014 694.509 298.914 690.577 298.914C686.479 298.914 683.045 297.958 680.276 296.048C677.534 294.109 675.457 291.451 674.045 288.072C672.66 284.666 671.968 280.748 671.968 276.317C671.968 271.997 672.646 268.065 674.003 264.52C675.388 260.976 677.451 258.151 680.193 256.046C682.962 253.942 686.423 252.889 690.577 252.889C694.565 252.889 697.916 253.886 700.629 255.88C703.343 257.874 705.392 260.629 706.777 264.146C708.162 267.663 708.854 271.72 708.854 276.317C708.854 281.025 708.148 285.068 706.736 288.446C705.323 291.825 703.26 294.414 700.546 296.214Z" fill="white"/>
<path d="M114.07 242.951L145.019 241.591L173.58 185.862C175.115 182.651 175.596 179.278 175.676 176.341C175.621 175.087 175.757 173.404 178.057 173.303C180.357 173.202 180.64 174.866 180.695 176.121C181.033 179.039 181.807 182.358 183.618 185.421L216.955 238.432L247.904 237.072L198.355 163.193L238.092 90.0013L207.561 91.3424L181.753 142.97C180.018 146.399 179.747 149.763 179.666 152.7C179.721 153.954 179.586 155.637 177.285 155.738C174.985 155.839 174.702 154.175 174.647 152.92C174.31 150.002 173.744 146.674 171.715 143.411L141.48 94.2449L110.949 95.5859L156.95 165.012L114.07 242.951Z" fill="white"/>
<path d="M252.975 236.849L281.415 235.6L276.574 125.396C276.28 118.704 274.378 113.55 272.248 107.986C271.538 106.132 272.11 104.85 273.974 104.349C275.01 104.094 276.083 104.675 276.566 106.121L319.056 233.947L354.187 232.404L385.306 101.344C385.66 99.8621 386.678 99.1888 387.733 99.352C389.633 99.6876 390.316 100.915 389.771 102.824C388.137 108.553 386.694 113.854 386.988 120.546L391.828 230.75L420.268 229.501L413.802 82.2834L364.45 84.4512L338.806 197.042C337.926 200.852 337.955 206.298 338.176 211.317C338.249 212.99 337.45 213.863 335.777 213.937C334.104 214.01 333.23 213.21 333.157 211.537C332.937 206.519 332.489 201.091 331.278 197.373L295.86 87.4639L246.509 89.6316L252.975 236.849Z" fill="white"/>
<path d="M539.03 224.285L570.815 222.889L510.815 78.0222L470.665 79.7858L423.598 229.355L455.383 227.959L465.206 194.004L526.268 191.322L539.03 224.285ZM471.914 170.243L486.639 119.102C488.264 113.164 489.179 105.372 489.067 98.0438C489.011 96.7891 489.356 95.0978 491.447 95.006C493.539 94.9141 494.03 96.5687 494.085 97.8234C494.616 105.133 496.211 112.815 498.35 118.588L517.502 168.241L471.914 170.243Z" fill="white"/>
<path d="M623.836 130.257C597.777 128.468 594.636 118.968 594.388 113.322C594.112 107.049 599.072 95.9357 620.611 94.9896C641.94 94.0527 649.029 107.57 649.452 117.189L676.428 116.004C674.962 92.1832 658.268 69.8693 620 71.5502C585.078 73.0842 565.202 92.814 566.212 115.817C567.314 140.911 581.295 153.915 623.357 157.515C648.807 159.75 655.611 166.784 656.052 176.822C656.41 184.977 649.633 197.637 625.167 198.711C598.191 199.896 592.136 181.305 591.222 170.031L563.618 171.244C564.812 198.429 585.208 223.933 626.195 222.132C665.509 220.405 685.484 198.157 684.418 173.9C682.949 140.441 658.515 132.714 623.836 130.257Z" fill="white"/>
<path fill-rule="evenodd" clip-rule="evenodd" d="M111.401 244.608L155.153 165.085L108.163 94.1677L142.317 92.6675L173.022 142.598L173.025 142.602C175.237 146.162 175.832 149.768 176.176 152.743L176.182 152.798L176.185 152.853C176.211 153.461 176.295 153.815 176.414 153.997C176.451 154.054 176.487 154.088 176.553 154.118C176.632 154.155 176.826 154.217 177.218 154.2C177.609 154.183 177.797 154.103 177.872 154.06C177.935 154.024 177.969 153.987 178.001 153.927C178.103 153.735 178.155 153.375 178.128 152.767L178.126 152.712L178.127 152.658C178.21 149.664 178.486 146.019 180.378 142.279L180.38 142.275L206.589 89.8444L240.743 88.3443L200.152 163.109L250.708 238.49L216.128 240.008L182.303 186.222L182.292 186.204C180.334 182.89 179.518 179.34 179.166 176.298L179.159 176.243L179.157 176.188C179.13 175.58 179.047 175.226 178.928 175.044C178.891 174.987 178.855 174.953 178.788 174.923C178.709 174.886 178.515 174.824 178.124 174.841C177.733 174.858 177.545 174.938 177.47 174.981C177.407 175.017 177.373 175.054 177.341 175.114C177.239 175.306 177.187 175.666 177.214 176.274L177.216 176.329L177.214 176.383C177.13 179.445 176.629 183.053 174.968 186.526L174.959 186.545L145.98 243.09L111.401 244.608ZM198.355 163.193L238.092 90.0013L207.561 91.3424L181.753 142.97C180.018 146.399 179.747 149.763 179.666 152.7C179.721 153.954 179.586 155.637 177.285 155.738C174.985 155.839 174.702 154.175 174.647 152.92C174.31 150.002 173.744 146.674 171.715 143.411L141.48 94.2449L110.949 95.5859L156.95 165.012L114.07 242.951L145.019 241.591L173.58 185.862C175.115 182.651 175.596 179.278 175.676 176.341C175.621 175.087 175.757 173.404 178.057 173.303C180.357 173.202 180.64 174.866 180.695 176.121C181.033 179.039 181.807 182.358 183.618 185.421L216.955 238.432L247.904 237.072L198.355 163.193ZM251.505 238.455L244.903 88.1615L296.965 85.8748L332.741 196.896L332.742 196.901C334.026 200.844 334.475 206.469 334.694 211.47C334.721 212.069 334.877 212.23 334.906 212.257C334.936 212.284 335.109 212.425 335.709 212.399C336.308 212.373 336.469 212.217 336.496 212.187C336.523 212.158 336.664 211.984 336.638 211.385C336.418 206.383 336.372 200.739 337.306 196.698L337.306 196.696L363.21 82.965L415.272 80.6783L421.824 229.862L469.52 78.2954L511.825 76.4373L573.078 224.33L537.993 225.871L525.231 192.908L466.377 195.493L456.555 229.448L390.358 232.356L385.45 120.614C385.144 113.649 386.656 108.135 388.291 102.402C388.502 101.662 388.387 101.356 388.337 101.269C388.301 101.208 388.148 100.992 387.485 100.871C387.373 100.856 387.285 100.881 387.199 100.948C387.098 101.026 386.916 101.231 386.803 101.701L355.416 233.89L317.962 235.536L275.106 106.608M385.306 101.344C385.66 99.8621 386.678 99.1888 387.733 99.352C389.633 99.6876 390.316 100.915 389.771 102.824C388.137 108.553 386.694 113.854 386.988 120.546L391.828 230.75L420.268 229.501L413.802 82.2834L364.45 84.4512L338.806 197.042C337.926 200.852 337.955 206.298 338.176 211.317C338.249 212.99 337.45 213.863 335.777 213.937C334.104 214.01 333.23 213.21 333.157 211.537C332.937 206.519 332.489 201.091 331.278 197.373L295.86 87.4639L246.509 89.6316L252.975 236.849L281.415 235.6L276.574 125.396C276.28 118.704 274.378 113.55 272.248 107.986C271.538 106.132 272.11 104.85 273.974 104.349C275.01 104.094 276.083 104.675 276.566 106.121L319.056 233.947L354.187 232.404L385.306 101.344ZM274.353 105.84C273.704 106.019 273.57 106.247 273.54 106.311C273.497 106.403 273.41 106.718 273.685 107.436C275.817 113.004 277.806 118.364 278.112 125.328L283.02 237.07L251.505 238.455M274.353 105.84C274.464 105.816 274.553 105.833 274.646 105.892C274.752 105.96 274.952 106.148 275.105 106.606M465.206 194.004L526.268 191.322L539.03 224.285L570.815 222.889L510.815 78.0222L470.665 79.7858L423.598 229.355L455.383 227.959L465.206 194.004ZM486.639 119.102L471.914 170.243L517.502 168.241L498.35 118.588C496.211 112.815 494.616 105.133 494.085 97.8234C494.03 96.5687 493.539 94.9141 491.447 95.006C489.356 95.0978 489.011 96.7891 489.067 98.0438C489.179 105.372 488.264 113.164 486.639 119.102ZM515.295 166.797L496.91 119.132L496.906 119.123C494.709 113.194 493.09 105.367 492.55 97.9348L492.549 97.9128L492.548 97.8909C492.525 97.3862 492.416 97.0024 492.269 96.7922C492.209 96.7073 492.149 96.657 492.074 96.6215C491.996 96.5842 491.83 96.5297 491.515 96.5435C491.2 96.5574 491.039 96.6263 490.964 96.6702C490.893 96.7122 490.837 96.7676 490.786 96.8573C490.657 97.0796 490.582 97.4716 490.604 97.9762L490.605 97.9982L490.605 98.0202C490.72 105.471 489.792 113.41 488.124 119.509L488.121 119.518L488.118 119.528L473.986 168.612L515.295 166.797ZM623.941 128.721L623.945 128.721C641.305 129.952 656.41 132.509 667.376 139.135C678.499 145.856 685.201 156.656 685.956 173.832C686.509 186.428 681.589 198.496 671.479 207.608C661.382 216.709 646.191 222.795 626.263 223.67C605.426 224.585 589.66 218.558 578.942 208.69C568.238 198.835 562.693 185.263 562.081 171.311L562.013 169.774L592.636 168.429L592.756 169.907C593.199 175.38 594.886 182.483 599.596 188.049C604.243 193.541 612.013 197.748 625.099 197.174C637.081 196.647 644.508 193.296 648.878 189.288C653.248 185.279 654.674 180.517 654.514 176.889C654.312 172.283 652.697 168.503 648.229 165.523C643.621 162.45 635.875 160.16 623.223 159.049C602.11 157.241 587.734 153.059 578.486 145.946C569.13 138.75 565.239 128.732 564.674 115.884C563.613 91.7213 584.51 71.5685 619.932 70.0126C639.384 69.1582 653.551 74.4016 663.053 83.0774C672.541 91.7411 677.211 103.678 677.964 115.91L678.06 117.473L647.982 118.794L647.914 117.257C647.717 112.763 645.958 107.369 641.786 103.222C637.65 99.1101 630.988 96.0743 620.678 96.5272C610.16 96.9892 603.929 99.921 600.375 103.277C596.819 106.635 595.806 110.541 595.925 113.254C596.036 115.783 596.769 119.094 600.402 122.041C604.121 125.057 611.051 127.836 623.941 128.721ZM623.357 157.515C581.295 153.915 567.314 140.911 566.212 115.817C565.202 92.814 585.078 73.0842 620 71.5502C657.445 69.9055 674.234 91.234 676.312 114.469C676.358 114.98 676.396 115.491 676.428 116.004L649.452 117.189C649.029 107.57 641.94 94.0527 620.611 94.9896C599.072 95.9357 594.112 107.049 594.388 113.322C594.636 118.968 597.777 128.468 623.836 130.257C658.515 132.714 682.949 140.441 684.418 173.9C685.484 198.157 665.509 220.405 626.195 222.132C585.982 223.899 565.589 199.382 563.706 172.781C563.67 172.269 563.641 171.757 563.618 171.244L591.222 170.031C592.136 181.305 598.191 199.896 625.167 198.711C649.633 197.637 656.41 184.977 656.052 176.822C655.611 166.784 648.807 159.75 623.357 157.515Z" fill="white"/>
</svg>
